<svg width="65" height="175" viewBox="0 0 65 175" fill="none" xmlns="http://www.w3.org/2000/svg">
<g clip-path="url(#clip0_1273_1222)">
<path d="M7.89844 175C11.1685 161.087 14.098 145.796 16.3135 129.256C19.3016 106.932 20.4441 86.3533 20.521 68.0097C29.6831 68.1951 38.8452 68.3804 48.0073 68.5658C46.3778 84.9467 45.7809 105.191 48.2893 128.14C50.2411 146.011 53.6613 161.745 57.3891 174.967C40.8922 174.978 24.3953 174.989 7.89844 175Z" fill="#FFEB57"/>
<path d="M61.3516 46.7912C62.1718 55.7685 62.6772 61.3149 59.7879 66.8248C53.6799 78.4663 38.3658 78.5608 33.305 78.5899C27.4313 78.6262 14.8893 78.6989 8.45899 68.733C4.46385 62.5397 4.81539 55.5505 5.25482 46.7912C5.69791 37.9483 6.41565 23.7009 14.9113 17.5367C18.5585 14.8907 23.4728 14.9235 33.305 14.9925C42.6429 15.0579 47.3118 15.0906 50.8126 17.5367C59.2203 23.4065 60.4471 36.8471 61.3516 46.7912Z" fill="#FFEB57"/>
<path d="M20.3904 77.3905C22.2287 78.6299 26.1652 80.9196 31.6471 81.3267C39.4872 81.9082 45.1595 78.2482 46.8367 77.0743C43.3212 77.8448 38.8867 78.5136 33.749 78.5826C28.5052 78.6553 23.9681 78.0847 20.3867 77.3869L20.3904 77.3905Z" fill="#F0DD53"/>
<path d="M15.2523 17.6675C15.4464 17.0097 16.9624 11.576 13.8901 6.61488C11.0265 1.9881 5.37981 -0.283499 0.154272 1.35205C-0.0727662 3.17296 -0.285157 6.90564 1.35538 11.1435C4.2849 18.707 10.7372 21.7419 11.8577 22.2471C12.1653 21.5747 12.5791 20.8078 13.1357 20.0191C13.8571 18.9942 14.6115 18.2273 15.256 17.6675H15.2523Z" fill="#FFEB57"/>
<path d="M49.4546 16.8461C49.2605 16.1883 47.7445 10.7546 50.8168 5.79347C53.6805 1.16668 59.3271 -1.10491 64.5527 0.530638C64.7797 2.35155 64.9884 6.08423 63.3479 10.3221C60.4184 17.8856 53.9661 20.9205 52.8455 21.4257C52.5379 20.7533 52.1241 19.9864 51.5675 19.1977C50.8461 18.1727 50.0918 17.4059 49.4473 16.8461H49.4546Z" fill="#FFEB57"/>
<path d="M18.2757 45.5809C22.0718 45.5809 25.1491 42.5266 25.1491 38.7588C25.1491 34.9911 22.0718 31.9368 18.2757 31.9368C14.4797 31.9368 11.4023 34.9911 11.4023 38.7588C11.4023 42.5266 14.4797 45.5809 18.2757 45.5809Z" fill="#313639"/>
<path d="M14.7204 36.9161C15.2887 36.9161 15.7494 36.4589 15.7494 35.8948C15.7494 35.3308 15.2887 34.8735 14.7204 34.8735C14.1521 34.8735 13.6914 35.3308 13.6914 35.8948C13.6914 36.4589 14.1521 36.9161 14.7204 36.9161Z" fill="white"/>
<path d="M48.3343 45.5809C52.1304 45.5809 55.2077 42.5266 55.2077 38.7588C55.2077 34.9911 52.1304 31.9368 48.3343 31.9368C44.5383 31.9368 41.4609 34.9911 41.4609 38.7588C41.4609 42.5266 44.5383 45.5809 48.3343 45.5809Z" fill="#313639"/>
<path d="M45.0602 37.0797C45.6285 37.0797 46.0892 36.6224 46.0892 36.0584C46.0892 35.4943 45.6285 35.0371 45.0602 35.0371C44.4919 35.0371 44.0312 35.4943 44.0312 36.0584C44.0312 36.6224 44.4919 37.0797 45.0602 37.0797Z" fill="white"/>
<path d="M30.0599 58.9633C30.0599 61.1768 28.4852 62.4707 28.2838 62.6306C28.0824 62.4707 26.5078 61.1768 26.5078 58.9633C26.5078 56.7499 28.0824 55.456 28.2838 55.2961C28.4852 55.456 30.0599 56.7499 30.0599 58.9633Z" fill="#F0DD53"/>
<path d="M40.72 58.9161C40.72 61.1295 39.1454 62.4234 38.944 62.5833C38.7426 62.4234 37.168 61.1295 37.168 58.9161C37.168 56.7026 38.7426 55.4087 38.944 55.2488C39.1454 55.4087 40.72 56.7026 40.72 58.9161Z" fill="#F0DD53"/>
<path d="M38.3479 153.632C37.1468 154.388 37.0516 155.37 35.9128 157.834C33.6973 162.628 32.2582 162.806 32.423 164.765C32.6537 167.52 35.6711 169.29 36.5499 169.806C37.2457 170.213 40.633 172.201 44.0605 170.857C47.9238 169.341 49.4545 164.525 48.9272 160.88C48.4658 157.685 46.2686 154.312 43.0022 153.32C42.5408 153.178 40.2009 152.466 38.3479 153.636V153.632Z" fill="#F9B552"/>
<path d="M25.6116 90.9982C24.9195 91.518 23.2277 92.7901 22.7737 94.9744C22.5393 96.1012 22.737 96.9735 23.019 98.2165C23.3303 99.5903 23.6122 100.819 24.6229 101.4C25.0221 101.629 25.5677 101.655 26.659 101.706C27.7648 101.757 28.6291 101.8 29.68 101.52C30.0572 101.422 31.3791 101.099 32.3312 100.175C34.0999 98.4563 33.9645 95.8104 33.8107 92.7719C33.6312 89.2646 33.5909 88.7412 33.1955 88.4868C32.5473 88.0724 31.3572 88.5122 29.0026 89.4063C27.2851 90.0605 26.4246 90.384 25.6116 90.9982Z" fill="#F9B552"/>
<path d="M37.7973 105.878C34.4027 109.553 33.7912 109.415 33.5641 110.621C33.1943 112.587 34.4173 115.077 36.2263 115.771C37.3835 116.215 38.7274 115.771 41.4152 114.892C42.4735 114.543 43.0045 114.368 43.3268 114.078C45.1174 112.464 44.3118 108.811 43.2572 106.689C42.8251 105.82 41.8107 103.781 40.3899 103.774C39.6173 103.77 39.1851 104.37 37.7936 105.874L37.7973 105.878Z" fill="#F9B552"/>
<path d="M22.078 113.791C21.4408 114.645 21.4152 115.27 20.9977 117.541C20.0676 122.59 19.5806 122.822 19.9944 123.895C20.767 125.897 23.4109 127.533 25.2382 126.958C26.3002 126.624 26.5748 125.708 28.5559 119.915C30.4052 114.507 30.8446 113.325 30.0976 112.413C28.988 111.057 26.2892 111.555 25.7765 111.646C25.3627 111.722 23.3413 112.093 22.0743 113.791H22.078Z" fill="#F9B552"/>
<path d="M33.0924 127.682C32.9276 127.813 32.7409 127.998 32.0744 129.332C30.9978 131.494 30.4595 132.578 30.3167 133.461C29.8773 136.212 32.1293 140.323 35.0296 140.435C37.6075 140.537 39.4641 137.433 40.1123 135.758C40.3759 135.074 41.7089 131.633 39.6509 129.15C37.9554 127.108 34.6011 126.486 33.0888 127.682H33.0924Z" fill="#F9B552"/>
<path d="M24.0178 143.619C25.1822 144.593 24.9955 145.382 26.6067 150.231C27.5661 153.113 27.9067 153.665 27.5332 154.363C26.7239 155.864 23.5271 156.246 21.4251 155.188C17.0748 153 16.6573 144.266 19.2976 142.609C20.6012 141.787 22.8057 142.609 24.0178 143.619Z" fill="#F9B552"/>
<path d="M12.4946 168.745C13.4503 166.459 16.6252 163.544 19.833 164.794C23.0701 166.055 23.9856 170.639 22.7516 171.991C21.5907 173.263 19.1226 171.035 14.6148 172.165C13.941 172.336 13.0438 172.623 12.4909 172.165C11.7072 171.518 12.0698 169.748 12.4909 168.741L12.4946 168.745Z" fill="#F9B552"/>
<path d="M19.4524 18.9942C18.4271 11.4525 16.739 8.50849 15.2742 7.29092C14.9373 7.01106 13.7179 6.08061 13.6996 4.79035C13.6849 3.96167 14.1244 3.11845 15.0398 2.3552C16.5229 1.11581 18.3209 0.774167 20.2654 0.828685C22.5065 0.890472 24.1433 2.08624 24.3667 3.60912C24.4766 4.3651 24.0701 4.63043 23.6197 5.94613C23.5135 6.2587 22.6859 8.77018 23.389 11.4379C23.9236 13.4733 25.154 14.8726 26.0182 15.6649C24.9673 15.883 23.5391 16.3082 22.0048 17.166C20.9355 17.7657 20.0896 18.4235 19.4561 19.0014L19.4524 18.9942Z" fill="#FFEB57"/>
<path d="M16.6685 8.8465C16.1375 8.13413 15.6395 7.6253 15.2733 7.29092C14.8229 6.88021 14.5958 6.74573 14.3102 6.34593C14.2187 6.21872 13.7426 5.54997 13.6987 4.79035C13.6327 3.65273 14.5555 2.76227 15.0389 2.3552C16.522 1.11581 18.32 0.774167 20.2645 0.828685C22.5055 0.890472 24.1424 2.08624 24.3658 3.60912C24.45 4.18338 24.0692 4.41962 23.6188 5.94613C23.3624 6.81843 23.2379 7.54897 23.1757 8.00692C22.5239 8.34857 21.5242 8.77745 20.2388 8.97735C18.7118 9.21359 17.4448 9.02823 16.6721 8.85014L16.6685 8.8465Z" fill="#F9B552"/>
<path d="M46.4916 18.9942C47.5169 11.4525 49.205 8.50849 50.6698 7.29092C51.0067 7.01106 52.2261 6.08061 52.2444 4.79035C52.2591 3.96167 51.8196 3.11845 50.9042 2.3552C49.4211 1.11581 47.6231 0.774167 45.6786 0.828685C43.4375 0.890472 41.8007 2.08624 41.5773 3.60912C41.4674 4.3651 41.8739 4.63043 42.3243 5.94613C42.4305 6.2587 43.2581 8.77018 42.555 11.4379C42.0204 13.4733 40.79 14.8726 39.9258 15.6649C40.9767 15.883 42.4049 16.3082 43.9392 17.166C45.0085 17.7657 45.8544 18.4235 46.4879 19.0014L46.4916 18.9942Z" fill="#FFEB57"/>
<path d="M49.2755 8.8465C49.8065 8.13413 50.3045 7.6253 50.6707 7.29092C51.1211 6.88021 51.3481 6.74573 51.6338 6.34593C51.7253 6.21872 52.2013 5.54997 52.2453 4.79035C52.3112 3.65273 51.3884 2.76227 50.905 2.3552C49.422 1.11581 47.624 0.774167 45.6795 0.828685C43.4384 0.890472 41.8015 2.08624 41.5782 3.60912C41.4939 4.18338 41.8748 4.41962 42.3252 5.94613C42.5815 6.81843 42.706 7.54897 42.7683 8.00692C43.4201 8.34857 44.4198 8.77745 45.7051 8.97735C47.2321 9.21359 48.4992 9.02823 49.2718 8.85014L49.2755 8.8465Z" fill="#F9B552"/>
</g>
<defs>
<clipPath id="clip0_1273_1222">
<rect width="64.7059" height="175" fill="white"/>
</clipPath>
</defs>
</svg>
