<svg width="563" height="390" viewBox="0 0 563 390" fill="none" xmlns="http://www.w3.org/2000/svg">
<g clip-path="url(#clip0_2192_3009)">
<rect width="844" height="391" fill="url(#paint0_linear_2192_3009)"/>
</g>
<g clip-path="url(#clip1_2192_3009)">
<path d="M253.671 212.996C318.231 202.599 383.408 204.277 447.691 217.992C385.121 254.734 315.356 252.938 253.671 212.996Z" fill="#99A155"/>
<path d="M0 231.359C44.8787 240.111 79.3586 233.028 103.079 224.476C138.662 211.638 158.891 192.306 196.815 194.374C219.224 195.593 226.982 203.156 253.657 212.996C277.732 221.878 361.738 252.419 443.176 219.88C463.345 211.828 484.538 200.248 516.423 202.277C532.234 203.325 547.887 207.442 562.987 214.525V390.01H0V231.359Z" fill="#ACAE4B"/>
<path d="M0 231.359C11.7898 218.691 40.8596 191.157 82.0737 188.25C104.519 186.729 126.912 192.652 147.643 205.593C123.275 219.904 97.7265 229.239 71.6882 233.347C47.8286 237.102 23.7499 236.434 0 231.359Z" fill="#848B3D"/>
</g>
<g clip-path="url(#clip2_2192_3009)">
<path d="M171.029 290.484C170.824 291.423 170.413 293.267 169.884 295.568C166.637 309.801 165.856 324.797 160.372 338.325C159.586 340.263 157.501 345.177 159.398 347.097C160.049 347.755 161.453 347.902 164.265 348.195C167.084 348.489 168.505 348.624 169.321 347.925C169.914 347.42 170.084 346.763 170.518 343.093C170.818 340.568 170.971 339.306 171 338.707C171.188 334.838 173.073 324.339 175.879 314.17C178.498 304.687 181.704 296.255 185.015 288.951C180.353 289.462 175.691 289.967 171.023 290.478L171.029 290.484Z" fill="#EDCF00"/>
<path d="M168.24 288.37C169.35 290.713 171.017 294.218 173.084 298.446C182.731 318.156 182.532 315.708 183.776 319.619C186.213 327.275 190.464 347.579 191.456 350.527C191.609 350.973 191.914 351.713 192.613 352.077C193.194 352.382 193.893 352.37 194.574 352.135C197.064 351.26 199.589 350.268 201.79 348.847C203.258 347.896 203.934 346.105 202.947 344.156C202.231 342.735 202.248 341.872 201.72 340.856C200.417 338.361 199.289 334.074 197.98 329.089C195.913 321.227 197.416 321.486 195.625 315.268C194.357 310.858 193.435 310.159 190.312 302.497C188.491 298.035 187.194 294.324 186.389 291.916" fill="#FFDF00"/>
<path d="M128.372 304.505C129.059 305.732 130.098 307.676 131.208 310.136C132.148 312.226 135.805 323.535 138.266 334.215C139.017 337.462 140.004 340.639 140.573 343.944C141.055 346.722 142.047 347.186 144.889 346.763C146.862 346.469 149.093 346.088 150.244 344.596C151.753 342.647 150.755 339.605 150.097 337.497C150.097 337.497 148.318 333.475 145.781 320.963C143.756 310.97 143.515 307.247 143.556 305.216C143.562 304.863 143.609 304.006 143.65 303.131C143.85 299.033 144.108 295.727 144.302 293.531C141.066 293.496 137.831 293.461 134.596 293.425C132.523 297.119 130.451 300.806 128.372 304.499V304.505Z" fill="#EDCF00"/>
<path d="M221.847 150.17C219.569 151.585 211.349 157.075 208.56 167.638C207.25 172.6 207.597 176.927 208.078 179.693" fill="#FFDF00"/>
<path d="M184.516 142.109C183.283 134.834 177.277 133.249 171.581 131.61C167.489 130.43 163.196 130.818 158.405 131.088C160.378 136.484 162.404 141.363 166.907 144.745C171.352 148.086 176.308 149.536 181.88 148.591C182.244 148.526 182.661 148.767 183.048 148.861" fill="#FFDF00"/>
<path d="M203.012 134.529C203.206 132.867 203.429 131.205 203.593 129.538C203.722 128.234 204.556 127.653 205.648 127.177C210.04 125.257 210.345 122.48 206.535 119.556C204.298 117.841 201.427 117.677 199.184 118.945C197.246 120.043 196.5 121.999 197.252 123.613C198.749 126.819 198.238 129.884 197.727 133.061" fill="#FFDF00"/>
<path d="M204.192 128.117C204.515 127.888 205.014 127.547 205.648 127.177C206.817 126.484 207.163 126.426 207.691 126.009C207.832 125.897 208.96 124.975 209.165 123.766C209.523 121.646 206.84 119.791 206.535 119.556C204.468 117.971 201.362 117.689 199.184 118.945C198.737 119.204 197.616 119.85 197.187 121.147C196.929 121.922 197.07 122.627 197.252 123.613C197.457 124.746 197.804 125.639 198.068 126.214C198.655 126.661 199.583 127.254 200.839 127.665C202.219 128.117 203.423 128.152 204.192 128.117Z" fill="#D49740"/>
<path d="M139.305 295.944C140.098 296.214 141.342 296.619 142.881 297.03C153.567 299.884 162.31 298.78 173.031 297.312C177.505 296.702 179.572 296.197 181.868 295.063C186.401 292.821 188.984 289.509 190.106 288.029C196.265 279.938 197.357 268.547 197.316 258.66C197.275 249.071 196.935 239.489 197.028 229.889C197.252 208.364 195.314 198.717 198.579 184.678C199.389 181.196 200.24 178.383 200.822 176.563L198.015 174.696C200.692 176.681 204.761 179.076 210.075 180.192C212.471 180.697 215.683 181.331 219.675 180.397C222.218 179.804 224.161 178.783 225.412 178.002C226.745 177.509 229.381 176.328 231.6 173.668C232.129 173.034 235.628 168.707 234.894 162.994C233.92 155.384 226.24 151.609 225.001 150.998C222.394 149.718 221.965 150.317 219.722 148.885C216.557 146.865 216.775 145.461 212.424 140.617C209.999 137.916 206.94 135.392 202.589 133.941C200.686 133.307 196.16 132.139 190.012 133.883L173.648 148.861C172.057 152.355 173.56 155.701 174.623 158.813C177.817 168.155 177.429 177.767 177.071 187.32C176.801 194.483 175.779 201.635 174.781 208.751C173.343 219.062 171.675 229.343 167.477 238.996C166.831 240.481 166.109 241.932 165.428 243.399C163.578 247.41 159.533 248.032 156.01 249.206C150.044 251.203 143.709 250.921 137.532 251.608C124.191 253.088 120.686 256.657 118.972 259.176C118.232 260.268 117.791 261.29 117.533 262.012L116.1 267.767C113.664 272.769 112.413 278.071 112.302 283.62C112.219 287.824 112.067 292.051 112.337 296.238C112.707 301.927 113.505 307.588 114.022 313.271C114.245 315.714 114.409 318.192 114.509 320.617C114.873 329.436 116.335 338.184 116.1 347.033V346.892C116.059 347.673 116.065 348.788 116.306 350.086C116.576 351.566 116.717 352.306 117.21 352.863C118.226 354.008 120.064 353.838 123.733 353.498C125.836 353.304 126.429 353.028 126.828 352.558C127.286 352.018 127.309 351.102 127.239 349.382C127.004 343.604 126.669 337.832 126.376 332.06C126.176 328.144 125.9 324.234 125.824 320.317C125.789 318.567 125.724 316.818 126.018 315.021C126.845 310.018 130.386 306.766 133.469 303.331C137.191 299.174 139.798 294.729 141.36 290.002C142.611 286.209 144.225 280.144 142.523 271.289" fill="#FFDF00"/>
<path d="M214.502 172.13C215.019 172.929 215.735 173.839 216.733 174.684C219.91 177.385 223.668 177.567 225.077 177.555" fill="#FFDF00"/>
<path d="M214.502 172.13C215.019 172.929 215.735 173.839 216.733 174.684C219.91 177.385 223.668 177.567 225.077 177.555" stroke="#3C3C3B" stroke-width="2" stroke-miterlimit="10" stroke-linecap="round"/>
<path d="M183.852 139.543C182.643 130.606 180.658 127.113 178.938 125.668C178.544 125.339 177.106 124.236 177.082 122.703C177.065 121.723 177.582 120.724 178.662 119.82C180.406 118.352 182.52 117.947 184.809 118.012C187.446 118.082 189.372 119.503 189.636 121.306C189.765 122.198 189.284 122.515 188.755 124.077C188.626 124.447 187.657 127.424 188.479 130.589C189.107 133.002 190.558 134.658 191.574 135.597C190.341 135.855 188.655 136.36 186.853 137.376C185.596 138.087 184.604 138.868 183.852 139.549V139.543Z" fill="#FFDF00"/>
<path d="M180.577 127.512C179.954 126.666 179.367 126.068 178.932 125.668C178.404 125.181 178.134 125.022 177.799 124.547C177.694 124.394 177.13 123.601 177.077 122.703C177.001 121.353 178.081 120.296 178.657 119.82C180.4 118.352 182.514 117.947 184.804 118.012C187.44 118.082 189.366 119.503 189.631 121.306C189.73 121.987 189.278 122.269 188.75 124.077C188.444 125.11 188.304 125.979 188.227 126.52C187.458 126.925 186.284 127.43 184.775 127.67C182.978 127.952 181.487 127.729 180.577 127.518V127.512Z" fill="#D49740"/>
<path d="M121.902 256.188C119.876 257.339 117.099 259.112 114.139 261.695C113.458 262.288 111.339 264.079 109.712 266.128C106.677 269.951 104.751 274.466 103.782 279.498C101.533 291.206 102.966 302.978 103.189 314.727C103.248 317.904 102.89 321.127 104.375 324.116C104.592 324.551 104.892 324.944 105.25 325.502C107.205 324.198 107.845 322.319 107.857 320.305C107.869 316.959 108.256 313.612 105.966 310.523C105.044 309.279 105.649 307.775 105.543 305.333C105.309 299.802 104.716 285.957 112.625 274.272C113.406 273.116 114.098 272.235 114.474 271.771C114.973 270.761 115.701 269.199 116.424 267.226C117.345 264.702 117.469 263.662 118.12 262.03C118.719 260.533 119.806 258.448 121.908 256.188H121.902Z" fill="#FFDF00"/>
<path d="M103.189 314.733C102.79 316.847 102.461 320.57 104.375 324.122C104.645 324.627 104.939 325.085 105.25 325.508C105.96 325.032 106.495 324.486 106.888 323.887C107.27 323.306 107.651 322.496 107.851 320.311C108.051 318.203 108.215 316.413 107.569 314.117C107.317 313.224 106.853 311.938 105.96 310.529C105.561 310.67 104.862 310.993 104.246 311.68C103.16 312.901 103.171 314.375 103.183 314.733H103.189Z" fill="#D49740"/>
<path d="M201.391 156.042C204.634 156.042 207.263 153.413 207.263 150.17C207.263 146.928 204.634 144.299 201.391 144.299C198.148 144.299 195.52 146.928 195.52 150.17C195.52 153.413 198.148 156.042 201.391 156.042Z" fill="#313639"/>
<path d="M198.597 148.726C199.083 148.726 199.477 148.332 199.477 147.845C199.477 147.359 199.083 146.965 198.597 146.965C198.11 146.965 197.716 147.359 197.716 147.845C197.716 148.332 198.11 148.726 198.597 148.726Z" fill="white"/>
<path d="M141.049 253.639C139.998 254.344 139.387 255.354 138.853 256.241C138.043 257.579 137.091 259.141 137.356 261.038C137.778 264.097 141.025 265.641 141.853 266.034C142.945 266.551 143.732 266.927 144.554 266.633C146.128 266.076 145.599 263.862 147.554 262.136C149.075 260.797 150.261 261.366 151.154 260.04C151.935 258.877 151.829 257.245 151.353 256.141C149.956 252.882 144.155 251.567 141.061 253.639H141.049Z" fill="#D49740"/>
<path d="M170.037 239.143C168.904 239.865 168.816 240.792 167.741 243.141C165.651 247.703 164.289 247.874 164.441 249.735C164.659 252.354 167.506 254.039 168.34 254.532C168.998 254.92 172.198 256.81 175.439 255.53C179.091 254.086 180.535 249.506 180.036 246.036C179.602 242.994 177.523 239.783 174.441 238.837C174.006 238.702 171.793 238.027 170.043 239.137L170.037 239.143Z" fill="#D49740"/>
<path d="M163.05 257.433C161.083 258.695 160.043 261.114 160.149 263.328C160.296 266.351 162.603 269.71 164.846 269.522C167.083 269.34 168.393 265.694 168.645 263.427C168.915 260.991 168.287 257.292 166.144 256.634C164.887 256.246 163.625 257.063 163.044 257.433H163.05Z" fill="#D49740"/>
<path d="M153.691 266.387C152.487 265.565 150.502 265.113 148.794 266.087C146.774 267.244 146.609 269.698 146.598 269.986C146.457 272.84 148.899 274.578 149.199 274.783C151.471 276.345 155.147 276.48 156.397 274.683C157.513 273.08 156.309 270.503 155.599 268.988C155.106 267.931 154.683 267.056 153.702 266.387H153.691Z" fill="#D49740"/>
<path d="M163.337 275.323C161.106 275.787 160.812 275.946 160.536 276.222C159.474 277.302 159.333 279.568 160.536 280.919C161.599 282.111 163.214 282.034 163.537 282.017C165.703 281.917 167.224 280.109 167.835 278.617C167.887 278.494 168.921 275.893 167.835 274.918C167.612 274.718 167.218 274.513 163.337 275.317V275.323Z" fill="#D49740"/>
<path d="M175.08 258.46C173.824 258.9 172.761 259.288 172.156 260.333C171.634 261.243 171.739 262.165 172.379 264.907C173.912 271.43 174.652 271.865 175.08 272.029C175.891 272.335 176.795 271.959 178.603 271.207C180.94 270.233 182.666 269.516 183.324 267.907C183.835 266.657 183.13 266.246 182.948 262.887C182.784 259.869 183.312 259.399 182.725 258.613C181.075 256.417 175.579 258.29 175.08 258.46Z" fill="#D49740"/>
<path d="M188.726 265.882C188.591 265.987 188.438 266.14 187.904 267.232C187.029 269 186.595 269.886 186.477 270.602C186.125 272.851 187.945 276.21 190.3 276.298C192.39 276.38 193.893 273.844 194.422 272.476C194.639 271.918 195.719 269.105 194.046 267.08C192.672 265.412 189.947 264.901 188.726 265.882Z" fill="#D49740"/>
<path d="M185.35 242.795C184.71 243.488 184.574 244.509 184.298 246.541C184.04 248.484 183.882 249.659 184.146 250.815C184.956 254.274 189.565 257.315 191.791 256.211C193.452 255.389 193.347 252.465 193.141 246.617C193.065 244.486 192.865 243.64 192.243 242.941C190.634 241.133 186.911 241.086 185.35 242.789V242.795Z" fill="#D49740"/>
<path d="M185.802 223.753C184.962 224.393 182.907 225.949 182.355 228.627C182.067 230.006 182.314 231.075 182.655 232.602C183.036 234.287 183.377 235.79 184.604 236.5C185.091 236.782 185.749 236.812 187.076 236.876C188.421 236.941 189.472 236.994 190.752 236.653C191.21 236.53 192.818 236.136 193.975 235.003C196.124 232.895 195.96 229.654 195.772 225.931C195.554 221.639 195.502 220.993 195.02 220.682C194.228 220.177 192.783 220.712 189.924 221.804C187.833 222.602 186.788 223.002 185.802 223.753Z" fill="#D49740"/>
<path d="M184.452 205.616C180.724 209.679 180.054 209.526 179.808 210.865C179.402 213.037 180.747 215.791 182.732 216.56C184 217.054 185.474 216.56 188.427 215.586C189.59 215.198 190.171 215.01 190.523 214.687C192.49 212.902 191.604 208.863 190.447 206.52C189.971 205.563 188.862 203.308 187.3 203.297C186.448 203.297 185.979 203.954 184.452 205.622V205.616Z" fill="#D49740"/>
<path d="M192.619 186.95C192.038 187.39 191.785 188.036 191.421 188.976C191.139 189.698 190.587 191.113 190.746 192.874C190.899 194.589 191.82 197.789 194.192 198.347C194.621 198.447 195.584 198.576 196.893 197.895C196.999 195.311 197.21 192.61 197.569 189.798C197.663 189.064 197.762 188.336 197.868 187.625C195.883 186.416 193.817 186.052 192.619 186.95Z" fill="#D49740"/>
<path d="M180.853 189.122C182.861 188.383 185.01 189.363 186.102 190.62C188.515 193.415 186.865 198.922 183.777 200.59C182.567 201.241 180.7 201.547 179.954 200.742C179.179 199.909 180.342 198.681 179.802 196.468C179.303 194.419 177.993 194.237 178.005 192.722C178.011 191.201 179.332 189.686 180.853 189.122Z" fill="#D49740"/>
<path d="M180.177 177.279C182.127 178.09 184.616 180.779 183.548 183.503C182.473 186.245 178.557 187.026 177.4 185.975C176.314 184.995 178.216 182.899 177.247 179.082C177.101 178.513 176.854 177.749 177.247 177.285C177.799 176.622 179.308 176.927 180.171 177.285L180.177 177.279Z" fill="#D49740"/>
<path d="M175.38 223.677C174.434 224.469 174.587 225.115 173.283 229.073C172.508 231.421 172.227 231.879 172.532 232.443C173.19 233.664 175.779 233.981 177.482 233.118C181.005 231.333 181.345 224.205 179.208 222.849C178.151 222.18 176.366 222.849 175.386 223.671L175.38 223.677Z" fill="#D49740"/>
<path d="M130.181 267.902C129.981 268.53 130.11 268.782 130.181 270.45C130.304 273.315 129.969 273.415 130.257 274.125C131.032 276.028 134.273 277.326 136.252 276.298C137.074 275.869 137.55 274.912 138.501 272.998C139.311 271.366 139.716 270.556 139.699 269.475C139.699 269.088 139.616 266.968 137.902 265.653C135.688 263.962 132.888 265.242 132.653 265.353C132.33 265.506 130.697 266.287 130.181 267.902Z" fill="#D49740"/>
<path d="M119.389 269.628C116.829 270.89 116.453 274.102 116.388 274.801C116.118 277.977 118.197 278.594 118.414 282.745C118.537 285.17 117.886 286.121 118.637 286.867C119.812 288.029 123.147 287.477 124.708 285.593C125.883 284.184 125.02 283.268 126.059 278.547C126.605 276.075 126.998 275.588 126.81 274.202C126.722 273.579 126.388 271.131 124.186 269.857C122.765 269.029 120.904 268.888 119.389 269.634V269.628Z" fill="#D49740"/>
<path d="M130.48 282.146C129.864 282.98 129.834 283.596 129.429 285.822C128.525 290.766 128.049 290.989 128.454 292.046C129.206 294.007 131.772 295.604 133.551 295.046C134.584 294.717 134.849 293.819 136.774 288.153C138.571 282.856 139 281.7 138.272 280.807C137.197 279.48 134.573 279.968 134.074 280.056C133.674 280.132 131.707 280.49 130.474 282.152L130.48 282.146Z" fill="#D49740"/>
<path d="M149.938 279.903C150.884 280.696 150.731 281.342 152.034 285.299C152.81 287.648 153.091 288.106 152.786 288.669C152.128 289.891 149.539 290.208 147.836 289.345C144.313 287.56 143.973 280.432 146.11 279.075C147.167 278.406 148.952 279.075 149.932 279.897L149.938 279.903Z" fill="#D49740"/>
<path d="M179.936 289.268C180.776 288.628 182.831 287.072 183.383 284.395C183.671 283.015 183.424 281.946 183.083 280.42C182.702 278.735 182.361 277.232 181.134 276.521C180.647 276.239 179.989 276.21 178.662 276.145C177.318 276.081 176.267 276.028 174.987 276.368C174.529 276.492 172.92 276.885 171.763 278.018C169.614 280.126 169.778 283.367 169.966 287.09C170.184 291.382 170.236 292.028 170.718 292.339C171.511 292.844 172.955 292.31 175.814 291.218C177.905 290.419 178.95 290.02 179.936 289.268Z" fill="#D49740"/>
<path d="M155.769 292.586C156.58 290.636 159.269 288.147 161.993 289.215C164.735 290.29 165.516 294.206 164.465 295.363C163.484 296.449 161.388 294.547 157.572 295.516C157.002 295.662 156.239 295.909 155.775 295.516C155.112 294.964 155.417 293.455 155.775 292.592L155.769 292.586Z" fill="#D49740"/>
<path d="M121.214 265.811C122.271 267.667 124.555 268.301 126.199 268.037C129.846 267.449 132.118 262.165 130.826 258.906C130.321 257.632 129.082 256.2 127.996 256.335C126.869 256.475 126.968 258.166 125.137 259.511C123.434 260.762 122.318 260.057 121.349 261.226C120.375 262.394 120.416 264.402 121.22 265.811H121.214Z" fill="#D49740"/>
<path d="M98.0631 347.896C98.1277 348.331 97.6756 348.847 97.2 349.076C96.5306 349.399 95.8965 349.117 95.8143 349.076C96.5893 349.71 97.0415 350.409 96.8653 350.732C96.6774 351.078 95.6969 351.078 94.4991 350.538C94.2055 351.478 93.3658 351.865 92.9372 351.672C92.5438 351.501 92.2913 350.756 92.5849 349.975C91.8979 350.532 90.9585 350.321 90.6297 349.775C90.3009 349.223 90.5651 348.289 91.3871 347.955C90.6356 346.604 90.8 345.377 91.3108 345.101C91.7335 344.872 92.5262 345.236 93.1897 345.929C93.0957 345.078 93.4657 344.285 94.1057 343.945C95.098 343.41 96.5776 344.038 96.7479 345.031C96.8653 345.712 96.3545 346.522 95.4737 346.904C96.9475 346.775 97.975 347.315 98.0572 347.896H98.0631Z" fill="#FFF088"/>
<path opacity="0.8" d="M76.4557 351.155C76.4088 350.844 76.7317 350.48 77.0664 350.315C77.542 350.086 77.9941 350.286 78.0528 350.315C77.5009 349.863 77.1838 349.364 77.3071 349.141C77.4422 348.894 78.1409 348.894 78.9864 349.276C79.1978 348.606 79.7908 348.336 80.0961 348.471C80.3721 348.595 80.5541 349.123 80.3427 349.675C80.8301 349.282 81.4994 349.428 81.7343 349.816C81.9692 350.204 81.7813 350.873 81.2 351.108C81.7343 352.071 81.6169 352.94 81.2587 353.133C80.9592 353.298 80.3956 353.034 79.9258 352.546C79.9904 353.151 79.7262 353.715 79.2741 353.955C78.5695 354.337 77.5185 353.891 77.3952 353.186C77.313 352.699 77.677 352.124 78.2994 351.853C77.2543 351.947 76.5203 351.56 76.4616 351.149L76.4557 351.155Z" fill="#FFF088"/>
<path opacity="0.6" d="M67.7829 351.871C67.8064 351.713 67.642 351.519 67.4658 351.437C67.2192 351.319 66.9844 351.425 66.955 351.437C67.2368 351.202 67.4071 350.943 67.3425 350.826C67.2721 350.697 66.9139 350.697 66.4735 350.896C66.3678 350.55 66.0566 350.409 65.8981 350.48C65.7572 350.544 65.6574 350.814 65.7689 351.102C65.5165 350.896 65.17 350.973 65.0467 351.178C64.9234 351.378 65.0232 351.724 65.3227 351.848C65.0467 352.347 65.1054 352.799 65.2933 352.899C65.4519 352.981 65.7396 352.846 65.9862 352.593C65.951 352.905 66.086 353.198 66.3267 353.327C66.6908 353.521 67.2368 353.292 67.3014 352.928C67.3425 352.676 67.1546 352.376 66.8317 352.235C67.3719 352.282 67.7535 352.082 67.7829 351.871Z" fill="#FFF088"/>
</g>
<defs>
<linearGradient id="paint0_linear_2192_3009" x1="422" y1="0" x2="422" y2="274.703" gradientUnits="userSpaceOnUse">
<stop stop-color="#CFEAFF"/>
<stop offset="1" stop-color="#6FBEFB"/>
</linearGradient>
<clipPath id="clip0_2192_3009">
<rect width="563" height="390" fill="white"/>
</clipPath>
<clipPath id="clip1_2192_3009">
<rect width="563" height="202" fill="white" transform="translate(0 188)"/>
</clipPath>
<clipPath id="clip2_2192_3009">
<rect width="170" height="236.108" fill="white" transform="translate(65 118)"/>
</clipPath>
</defs>
</svg>
