<svg width="564" height="390" viewBox="0 0 564 390" fill="none" xmlns="http://www.w3.org/2000/svg">
<rect width="564" height="390" fill="url(#paint0_linear_2193_3103)"/>
<g clip-path="url(#clip0_2193_3103)">
<path d="M0.966553 279.527C60.9782 254.569 122.51 233.414 185.196 216.187C308.693 182.334 435.91 163.812 563.96 161.04L564 390H0.966553V279.527Z" fill="#7EC186"/>
<path d="M429.5 197C397.473 231.414 350.902 251.688 277.234 283.327C231.345 303.044 201.092 307.056 122.643 328.279C76.047 340.89 8.41241 360.651 -73 390H111.83C150.362 383.967 188.046 374.084 224.197 360.53C238.122 355.274 244.892 351.778 299.351 326.671C376.783 290.95 378.01 290.835 386.202 286.772C421.698 269.154 447.142 244.777 495 177.5C483.486 178.852 466.098 196.349 453 197C436.321 197.861 443.852 197.523 429.5 197Z" fill="#D49040"/>
<path d="M141.172 307.08L140.308 310.8C137.924 321.194 137.354 332.147 133.338 342.033C132.759 343.454 131.23 347.045 132.621 348.44C133.096 348.923 134.124 349.034 136.188 349.25C138.252 349.465 139.298 349.56 139.894 349.052C140.325 348.681 140.446 348.191 140.757 345.521C140.973 343.678 141.085 342.748 141.111 342.318C141.25 339.484 142.623 331.82 144.678 324.389C146.445 318.087 148.7 311.931 151.424 305.977L141.172 307.08Z" fill="#EACD07"/>
<path d="M139.125 305.538C139.937 307.26 141.154 309.844 142.675 312.901C149.74 327.299 149.584 325.508 150.508 328.401C152.296 333.99 155.406 348.828 156.131 350.981C156.266 351.454 156.574 351.86 156.995 352.117C157.22 352.223 157.464 352.281 157.712 352.288C157.96 352.295 158.207 352.252 158.437 352.16C160.285 351.562 162.058 350.756 163.723 349.758C164.292 349.411 164.701 348.856 164.862 348.212C165.024 347.567 164.925 346.886 164.587 346.313C164.06 345.271 164.077 344.643 163.723 343.902C162.764 342.076 161.935 338.95 160.977 335.291C159.465 329.538 160.562 329.728 159.249 325.189C158.316 321.969 157.643 321.461 155.345 315.863C154.015 312.6 153.065 309.887 152.478 308.113" fill="#FFDF00"/>
<path d="M109.905 317.327C110.406 318.188 111.175 319.644 111.987 321.444C114.075 327.196 115.806 333.072 117.169 339.037C117.713 341.405 118.439 343.73 118.897 346.141C119.242 348.173 119.976 348.509 122.058 348.199C123.5 347.984 125.141 347.708 125.979 346.615C127.085 345.194 126.359 342.972 125.875 341.448C125.875 341.448 124.571 338.511 122.714 329.392C121.229 322.089 121.047 319.368 121.082 317.887C121.082 317.629 121.082 317.026 121.151 316.363C121.298 313.366 121.479 310.955 121.626 309.344L114.509 309.267L109.905 317.327Z" fill="#EACD07"/>
<path d="M178.406 204.569C176.731 205.611 170.711 209.616 168.664 217.332C167.916 220.209 167.795 223.213 168.309 226.141" fill="#FFDF00"/>
<path d="M151.044 198.679C150.18 193.366 145.741 192.212 141.543 191.015C138.546 190.154 135.402 190.429 131.887 190.628C133.329 194.572 134.815 198.128 138.114 200.608C139.641 201.823 141.409 202.702 143.301 203.185C145.193 203.669 147.167 203.748 149.092 203.415C149.389 203.43 149.682 203.497 149.956 203.614" fill="#FFDF00"/>
<path d="M164.604 193.168C164.742 191.954 164.906 190.74 165.027 189.525C165.114 188.569 165.727 188.147 166.53 187.803C169.752 186.408 169.985 184.358 167.178 182.24C166.426 181.643 165.514 181.281 164.556 181.201C163.598 181.122 162.638 181.327 161.797 181.792C161.158 182.069 160.652 182.584 160.387 183.228C160.123 183.871 160.12 184.592 160.381 185.237C161.478 187.579 161.106 189.818 160.726 192.126" fill="#FFDF00"/>
<path d="M165.468 188.458C165.701 188.294 166.073 188.044 166.53 187.769C167.048 187.512 167.55 187.224 168.033 186.907C168.56 186.492 168.939 185.918 169.113 185.271C169.372 183.721 167.386 182.369 167.178 182.197C166.416 181.622 165.506 181.274 164.553 181.195C163.6 181.116 162.645 181.308 161.797 181.749C161.126 182.088 160.603 182.661 160.329 183.36C160.192 183.954 160.21 184.574 160.381 185.159C160.504 185.815 160.704 186.454 160.977 187.062C161.595 187.523 162.283 187.88 163.015 188.122C163.806 188.38 164.637 188.494 165.468 188.458Z" fill="#D49740"/>
<path d="M117.921 311.067C118.499 311.265 119.406 311.566 120.512 311.868C128.346 313.952 134.754 313.142 142.605 312.066C145.887 311.618 147.408 311.256 149.083 310.429C151.48 309.207 153.551 307.437 155.129 305.263C159.646 299.355 160.441 291.028 160.415 283.803C160.415 276.802 160.13 269.801 160.208 262.783C160.363 247.058 158.947 240.014 161.339 229.758C161.935 227.174 162.557 225.151 162.98 223.825L160.925 222.464C163.545 224.422 166.559 225.791 169.76 226.477C172.063 227.075 174.474 227.125 176.8 226.623C178.284 226.282 179.702 225.7 180.997 224.901C183.214 224.104 185.1 222.594 186.359 220.609C187.618 218.623 188.178 216.276 187.95 213.939C187.233 208.376 181.602 205.62 180.695 205.172C178.786 204.242 178.475 204.673 176.834 203.631C174.511 202.158 174.675 201.133 171.488 197.603C169.561 195.367 167.072 193.681 164.276 192.72C161.279 191.777 158.066 191.762 155.06 192.677L143.072 203.622C141.906 206.206 143.003 208.625 143.789 210.89C146.129 217.719 145.836 224.737 145.577 231.721C145.378 236.948 144.626 242.175 143.901 247.377C142.847 254.903 141.629 262.412 138.546 269.465C138.08 270.55 137.544 271.609 137.052 272.686C135.696 275.622 132.733 276.07 130.142 276.931C125.772 278.386 121.125 278.18 116.599 278.653C106.83 279.73 104.257 282.339 103.004 284.182C102.566 284.823 102.212 285.518 101.951 286.249L100.923 290.477C99.1581 294.089 98.2088 298.042 98.1415 302.059C98.0811 305.133 97.9688 308.216 98.1415 311.282C98.4093 315.441 99.0053 319.575 99.3766 323.725C99.5408 325.508 99.6617 327.316 99.7308 329.09C99.9986 335.532 101.07 341.921 100.897 348.389V348.285C100.856 349.067 100.909 349.85 101.052 350.619C101.087 351.342 101.314 352.044 101.709 352.651C102.451 353.512 103.799 353.357 106.494 353.108C108.031 352.97 108.463 352.772 108.757 352.427C109.05 352.083 109.111 351.36 109.059 350.102C108.886 345.883 108.644 341.672 108.428 337.452C108.282 334.593 108.083 331.734 108.022 328.841C107.951 327.547 108 326.25 108.169 324.966C108.774 321.314 111.374 318.938 113.628 316.432C116.213 313.622 118.181 310.304 119.406 306.692C120.923 302.294 121.222 297.57 120.27 293.017" fill="#FFDF00"/>
<path d="M173.025 220.613C173.471 221.314 174.021 221.945 174.658 222.481C176.387 223.873 178.551 224.617 180.773 224.582" fill="#FFDF00"/>
<path d="M173.025 220.613C173.471 221.314 174.021 221.945 174.658 222.481C176.387 223.873 178.551 224.617 180.773 224.582" stroke="#3C3C3B" stroke-miterlimit="10" stroke-linecap="round"/>
<path d="M150.56 196.811C149.697 190.274 148.22 187.725 146.959 186.675C146.596 186.425 146.288 186.103 146.055 185.73C145.822 185.357 145.668 184.94 145.603 184.505C145.623 184.089 145.738 183.683 145.938 183.317C146.139 182.952 146.42 182.637 146.76 182.395C148.038 181.403 149.647 180.932 151.26 181.077C153.195 181.129 154.603 182.163 154.801 183.48C154.896 184.135 154.542 184.341 154.154 185.504C153.654 187.041 153.586 188.684 153.955 190.257C154.341 191.669 155.126 192.939 156.218 193.917C155.006 194.173 153.841 194.611 152.763 195.217C151.973 195.667 151.234 196.201 150.56 196.811Z" fill="#FFDF00"/>
<path d="M148.168 188.001C147.812 187.513 147.407 187.063 146.958 186.658C146.634 186.409 146.344 186.12 146.095 185.797C145.802 185.404 145.62 184.94 145.568 184.453C145.59 184.037 145.705 183.632 145.905 183.267C146.106 182.901 146.386 182.586 146.725 182.343C148.004 181.352 149.612 180.881 151.225 181.026C153.16 181.077 154.568 182.111 154.766 183.428C154.835 183.928 154.507 184.126 154.119 185.452C153.945 186.035 153.818 186.631 153.739 187.235C152.95 187.662 152.094 187.953 151.208 188.096C150.197 188.253 149.166 188.221 148.168 188.001Z" fill="#D49740"/>
<path d="M105.172 282.029C103.143 283.174 101.236 284.521 99.4805 286.051C98.3055 287.034 97.2189 288.117 96.2329 289.288C94.0171 292.148 92.5347 295.503 91.9144 299.062C90.2647 307.614 91.3184 316.208 91.4825 324.793C91.4825 327.118 91.2579 329.469 92.3462 331.682C92.5103 332.001 92.7349 332.285 92.994 332.699C93.6143 332.284 94.1163 331.716 94.4508 331.051C94.7854 330.385 94.9411 329.644 94.9028 328.901C94.9028 326.455 95.1879 324.01 93.5123 321.753C92.8386 320.841 93.2791 319.747 93.2013 317.956C93.0286 313.917 92.5967 303.807 98.3836 295.265C98.9537 294.404 99.4633 293.775 99.7396 293.439C100.274 292.357 100.75 291.248 101.165 290.115C101.838 288.272 101.933 287.532 102.408 286.318C103.051 284.727 103.988 283.272 105.172 282.029Z" fill="#FFDF00"/>
<path d="M91.4566 324.793C90.9476 327.121 91.2524 329.552 92.3203 331.682C92.5099 332.037 92.7265 332.377 92.9681 332.699C93.4438 332.386 93.8521 331.982 94.1687 331.51C94.6214 330.723 94.8652 329.834 94.8769 328.927C95.1115 327.418 95.041 325.878 94.6696 324.397C94.4008 323.484 94.0023 322.614 93.4863 321.814C93.0039 321.993 92.5737 322.289 92.234 322.675C91.7299 323.266 91.4542 324.017 91.4566 324.793Z" fill="#D49740"/>
<path d="M163.412 208.858C161.037 208.858 159.111 206.938 159.111 204.569C159.111 202.201 161.037 200.281 163.412 200.281C165.788 200.281 167.714 202.201 167.714 204.569C167.714 206.938 165.788 208.858 163.412 208.858Z" fill="#313639"/>
<path d="M161.365 203.519C161.007 203.519 160.717 203.23 160.717 202.873C160.717 202.516 161.007 202.227 161.365 202.227C161.723 202.227 162.013 202.516 162.013 202.873C162.013 203.23 161.723 203.519 161.365 203.519Z" fill="white"/>
<path d="M119.199 280.143C118.527 280.649 117.978 281.3 117.593 282.046C116.818 283.047 116.426 284.289 116.487 285.551C116.798 287.782 119.182 288.91 119.786 289.202C120.59 289.581 121.16 289.848 121.764 289.633C122.922 289.228 122.533 287.609 123.958 286.352C125.072 285.37 125.945 285.784 126.601 284.819C126.849 284.389 126.991 283.906 127.015 283.411C127.039 282.915 126.945 282.421 126.739 281.969C125.72 279.609 121.471 278.645 119.199 280.143Z" fill="#D49740"/>
<path d="M140.438 269.577C139.574 270.102 139.574 270.783 138.754 272.496C137.216 275.829 136.223 275.941 136.335 277.31C136.499 279.23 138.581 280.462 139.194 280.815C139.678 281.099 142.018 282.485 144.376 281.547C147.054 280.496 148.107 277.146 147.745 274.615C147.425 272.393 145.905 270.042 143.642 269.353C143.121 269.171 142.568 269.096 142.017 269.135C141.466 269.173 140.928 269.324 140.438 269.577Z" fill="#D49740"/>
<path d="M135.324 282.933C134.631 283.411 134.072 284.057 133.701 284.811C133.329 285.564 133.156 286.4 133.2 287.239C133.303 289.443 134.996 291.898 136.655 291.76C138.313 291.622 139.246 288.961 139.436 287.308C139.626 285.654 139.177 282.83 137.605 282.348C137.205 282.278 136.794 282.295 136.401 282.396C136.008 282.496 135.641 282.68 135.324 282.933Z" fill="#D49740"/>
<path d="M128.458 289.478C127.938 289.117 127.329 288.905 126.697 288.865C126.065 288.826 125.434 288.96 124.873 289.254C124.4 289.571 124.007 289.993 123.727 290.488C123.446 290.983 123.286 291.537 123.258 292.104C123.267 292.807 123.447 293.497 123.785 294.114C124.122 294.731 124.605 295.256 125.193 295.644C126.86 296.78 129.512 296.884 130.462 295.566C131.282 294.395 130.401 292.518 129.883 291.407C129.61 290.637 129.114 289.966 128.458 289.478Z" fill="#D49740"/>
<path d="M135.558 296.005C133.925 296.341 133.709 296.462 133.511 296.66C133.103 297.142 132.879 297.752 132.879 298.382C132.879 299.013 133.103 299.623 133.511 300.104C133.796 300.389 134.14 300.607 134.519 300.746C134.898 300.884 135.302 300.938 135.704 300.905C136.408 300.82 137.074 300.543 137.63 300.106C138.186 299.669 138.61 299.087 138.857 298.425C138.857 298.331 139.652 296.436 138.857 295.721C138.667 295.566 138.373 295.42 135.558 296.005Z" fill="#D49740"/>
<path d="M144.134 283.682C143.277 283.863 142.515 284.35 141.992 285.052C141.612 285.715 141.69 286.395 142.156 288.393C143.279 293.155 143.823 293.482 144.134 293.56C144.73 293.784 145.395 293.508 146.725 292.957C148.453 292.251 149.705 291.726 150.18 290.554C150.552 289.633 150.033 289.34 149.904 286.877C149.783 284.673 150.172 284.294 149.74 283.76C148.513 282.193 144.506 283.588 144.134 283.682Z" fill="#D49740"/>
<path d="M154.136 289.108C154.032 289.185 153.92 289.297 153.532 290.089C153.078 290.862 152.726 291.69 152.486 292.552C152.227 294.197 153.566 296.651 155.285 296.72C156.814 296.78 157.876 294.929 158.308 293.921C158.463 293.517 159.258 291.467 158.031 289.986C157.021 288.755 155.034 288.393 154.136 289.108Z" fill="#D49740"/>
<path d="M151.657 272.238C151.191 272.746 151.096 273.495 150.888 274.976C150.666 276.004 150.631 277.062 150.785 278.102C151.372 280.625 154.758 282.847 156.382 282.038C157.599 281.443 157.522 279.308 157.375 275.037C157.314 273.478 157.168 272.858 156.71 272.35C156.029 271.715 155.137 271.353 154.205 271.332C153.273 271.311 152.366 271.634 151.657 272.238Z" fill="#D49740"/>
<path d="M151.968 258.33C150.714 259.165 149.813 260.431 149.437 261.887C149.284 262.858 149.358 263.851 149.653 264.789C149.938 266.02 150.189 267.123 151.087 267.639C151.665 267.86 152.283 267.954 152.901 267.915C153.799 268.008 154.707 267.953 155.587 267.751C156.464 267.551 157.277 267.137 157.953 266.546C159.525 265.004 159.405 262.636 159.266 259.915C159.111 256.78 159.076 256.315 158.722 256.083C158.143 255.713 157.081 256.083 154.982 256.944C153.915 257.256 152.899 257.723 151.968 258.33Z" fill="#D49740"/>
<path d="M151.001 245.078C148.271 248.048 147.779 247.937 147.598 248.91C147.467 249.741 147.604 250.592 147.988 251.341C148.373 252.09 148.986 252.698 149.74 253.078C150.664 253.431 151.752 253.077 153.911 252.363C154.449 252.24 154.96 252.024 155.423 251.726C156.865 250.417 156.218 247.42 155.371 245.749C155.026 245.052 154.205 243.407 153.065 243.398C152.469 243.381 152.124 243.863 151.001 245.078Z" fill="#D49740"/>
<path d="M156.986 231.446C156.566 231.847 156.267 232.357 156.122 232.918C155.739 233.817 155.57 234.793 155.63 235.769C155.742 237.026 156.425 239.359 158.161 239.764C158.838 239.906 159.544 239.789 160.139 239.437C160.216 237.551 160.372 235.579 160.631 233.521C160.7 232.987 160.769 232.453 160.847 231.936C159.379 231.058 157.858 230.783 156.986 231.446Z" fill="#D49740"/>
<path d="M148.367 233.03C149.044 232.817 149.77 232.807 150.453 233.002C151.136 233.196 151.747 233.586 152.21 234.124C153.981 236.165 152.772 240.195 150.483 241.409C149.619 241.883 148.228 242.107 147.684 241.521C147.14 240.935 147.969 240.014 147.572 238.395C147.175 236.776 146.251 236.767 146.251 235.657C146.315 235.063 146.548 234.5 146.923 234.035C147.298 233.569 147.799 233.221 148.367 233.03Z" fill="#D49740"/>
<path d="M147.874 224.376C149.299 224.97 151.122 226.959 150.344 228.923C149.567 230.886 146.682 231.506 145.836 230.731C144.989 229.956 146.432 228.483 145.732 225.693C145.62 225.271 145.439 224.72 145.732 224.376C146.138 223.893 147.244 224.117 147.874 224.376Z" fill="#D49740"/>
<path d="M144.359 258.279C143.668 258.856 143.772 259.329 142.822 262.214C142.252 263.936 142.044 264.264 142.269 264.686C142.753 265.547 144.644 265.805 145.897 265.177C148.488 263.868 148.721 258.666 147.158 257.676C146.38 257.185 145.059 257.667 144.359 258.279Z" fill="#D49740"/>
<path d="M111.236 290.589C111.089 291.045 111.184 291.226 111.236 292.449C111.331 294.541 111.08 294.61 111.287 295.127C111.706 295.875 112.381 296.447 113.188 296.74C113.995 297.032 114.881 297.025 115.684 296.72C116.288 296.41 116.634 295.704 117.333 294.309C117.833 293.533 118.13 292.645 118.197 291.725C118.194 291.193 118.074 290.667 117.846 290.185C117.617 289.703 117.286 289.276 116.876 288.935C115.252 287.695 113.205 288.634 113.032 288.711C112.211 289.08 111.566 289.753 111.236 290.589Z" fill="#D49740"/>
<path d="M103.324 291.846C101.45 292.768 101.173 295.11 101.13 295.627C100.932 297.943 102.46 298.391 102.616 301.431C102.702 303.205 102.227 303.893 102.78 304.436C103.644 305.297 106.079 304.884 107.228 303.506C108.092 302.473 107.453 301.784 108.213 298.339C108.61 296.539 108.904 296.178 108.765 295.17C108.709 294.529 108.506 293.91 108.172 293.359C107.838 292.808 107.382 292.341 106.839 291.993C106.309 291.685 105.712 291.511 105.1 291.486C104.487 291.46 103.878 291.584 103.324 291.846Z" fill="#D49740"/>
<path d="M111.46 300.991C111.002 301.603 110.985 302.051 110.691 303.67C110.026 307.286 109.681 307.45 109.975 308.216C110.527 309.654 112.402 310.8 113.706 310.404C114.466 310.171 114.656 309.543 116.072 305.366C117.385 301.499 117.696 300.656 117.169 300.001C116.383 299.037 114.457 299.39 114.094 299.459C113.056 299.626 112.117 300.172 111.46 300.991Z" fill="#D49740"/>
<path d="M125.711 299.355C126.402 299.932 126.29 300.406 127.249 303.291C127.819 305.013 128.026 305.34 127.802 305.762C127.318 306.623 125.418 306.882 124.174 306.253C121.583 304.944 121.341 299.734 122.913 298.752C123.682 298.227 124.994 298.744 125.711 299.355Z" fill="#D49740"/>
<path d="M147.65 306.193C148.901 305.356 149.802 304.09 150.18 302.636C150.33 301.664 150.253 300.671 149.956 299.734C149.679 298.503 149.429 297.4 148.531 296.884C147.953 296.663 147.334 296.569 146.717 296.608C145.815 296.52 144.906 296.575 144.022 296.772C143.147 296.971 142.337 297.386 141.664 297.977C140.083 299.519 140.204 301.887 140.343 304.608C140.507 307.743 140.541 308.216 140.895 308.44C141.474 308.811 142.536 308.44 144.627 307.579C145.697 307.268 146.716 306.801 147.65 306.193Z" fill="#D49740"/>
<path d="M129.986 308.621C130.582 307.192 132.578 305.375 134.547 306.15C136.516 306.925 137.138 309.801 136.352 310.645C135.566 311.489 134.098 310.051 131.299 310.757C130.885 310.86 130.332 311.041 129.986 310.757C129.511 310.352 129.719 309.25 129.986 308.621Z" fill="#D49740"/>
<path d="M104.663 289.056C105.046 289.653 105.596 290.125 106.245 290.414C106.894 290.703 107.614 290.797 108.316 290.683C110.994 290.253 112.635 286.378 111.711 284.01C111.339 283.08 110.432 282.029 109.638 282.132C108.843 282.236 108.878 283.467 107.539 284.457C106.2 285.448 105.474 284.854 104.766 285.706C104.43 286.196 104.241 286.772 104.223 287.366C104.205 287.96 104.357 288.546 104.663 289.056Z" fill="#D49740"/>
</g>
<g clip-path="url(#clip1_2193_3103)">
<path d="M378.967 206.088C358.196 169.766 360.25 148.069 365.597 135.122C376.486 108.789 405.278 108.417 425.414 71.1875C437.088 49.6145 431.658 41.9236 440.892 29.7338C453.007 13.7741 482.833 -0.0254262 563.986 16.3882V200.46C536.255 203.873 505.906 206.445 473.268 207.491C439.349 208.578 407.773 207.876 378.953 206.088H378.967Z" fill="#7C7C7B"/>
<path d="M419.819 207.78C411.907 195.618 411.411 180.704 418.385 169.559C419.199 168.266 427.289 155.787 441.609 154.81C457.652 153.71 470.498 167.785 474.688 180.8C478.602 192.948 474.812 203.721 473.282 207.491C455.461 207.587 437.64 207.684 419.819 207.78Z" fill="#4A4A49"/>
</g>
<defs>
<linearGradient id="paint0_linear_2193_3103" x1="282" y1="0" x2="282" y2="274" gradientUnits="userSpaceOnUse">
<stop stop-color="#CFEAFF"/>
<stop offset="1" stop-color="#6FBEFB"/>
</linearGradient>
<clipPath id="clip0_2193_3103">
<rect width="563" height="231" fill="white" transform="matrix(-1 0 0 1 564 159)"/>
</clipPath>
<clipPath id="clip1_2193_3103">
<rect width="202" height="199" fill="white" transform="translate(362 9)"/>
</clipPath>
</defs>
</svg>
