<svg width="564" height="390" viewBox="0 0 564 390" fill="none" xmlns="http://www.w3.org/2000/svg">
<rect width="564" height="390" fill="url(#paint0_linear_2195_3009)"/>
<g clip-path="url(#clip0_2195_3009)">
<path d="M1.00005 68C50.6363 54.6099 93.4898 49.8309 124.03 48.0135C168.267 45.3792 202.692 48.2888 245.057 52.0284C300.987 56.9694 328.944 62.8584 358.729 66.7509C406.331 72.9719 475.639 76.3361 564 61.5C564.223 171.032 563.782 280.463 564.004 389.996H1.0001C1.2227 282.696 0.777442 175.3 1.00005 68Z" fill="#7EC186"/>
<g clip-path="url(#clip1_2195_3009)">
<path d="M168 395.621C191.514 365.036 195.818 340.36 195.615 323.826C195.11 282.899 166.693 265.608 172.286 223.338C173.507 214.096 176.418 192.109 192.853 175.404C200.689 167.441 209.391 162.926 256.365 133.292C260.854 130.462 267.586 126.082 270.173 118.106C274.688 104.163 263.107 89.7518 262.579 89.1119C253.044 77.5711 242.585 79.261 223.23 69.7842C214.943 65.7239 203.086 59.8968 191 48C202.5 48 213.564 49.3028 224.609 50.4519C230.445 54.1967 239.349 59.4195 250.84 64.2594C264.405 69.9689 267.5 69.2164 283.976 75.3045C312.154 85.7187 319.508 93.9833 322.636 98.0841C325.835 102.28 329.634 107.259 329.54 113.96C329.409 123.468 321.55 128.583 312.28 139.502C312.28 139.502 300.221 153.706 292.952 171.258C290.149 178.031 280.515 201.284 288.811 223.032C295.945 241.742 308.116 237.772 321.946 261.692C327.151 270.691 330.477 282.191 337.133 305.183C342.905 325.124 343.122 329.833 346.105 339.702C350.544 354.37 359.318 374.549 378.551 397C308.369 396.54 238.182 396.081 168 395.621Z" fill="#D49040"/>
<g clip-path="url(#clip2_2195_3009)">
<path d="M360.543 107.069C363.649 109.691 360.795 114.797 360.543 124.731C360.277 135.183 363.089 143.464 360.311 144.72C359.382 145.137 357.375 144.98 356.624 144.925C355.607 144.843 354.098 144.727 353.34 144.256C351.108 142.856 353.716 137.245 354.501 128.451C355.402 118.334 355.859 113.275 355.197 109.629C355.067 108.906 354.678 106.96 355.661 106.141C356.747 105.239 359.211 105.949 360.543 107.069Z" fill="#80602E"/>
<path d="M363.239 86.0898C360.515 80.9832 354.515 78.7575 349.558 80.6896C345.332 82.3349 342.54 86.7383 342.758 91.5855C340.649 91.7835 338.853 92.9919 338.225 94.7259C337.317 97.2451 339.277 99.8121 341.099 100.911C342.861 101.976 344.697 101.799 345.373 101.696C345.414 102.106 345.687 104.509 347.81 106.141C350.289 108.045 353.163 107.274 353.477 107.185C354.583 112.224 359.314 115.453 363.936 114.77C367.875 114.183 371.111 110.851 371.691 106.578C372.859 106.079 374.975 104.987 376.661 102.741C379.16 99.4093 380.041 94.4187 377.883 90.186C376.013 86.513 371.698 83.0995 367.336 83.9119C365.445 84.2601 364.066 85.3115 363.239 86.0898Z" fill="#549354"/>
</g>
<path d="M213.116 400.506C211.684 416.452 210.796 426.311 215.86 436.089C226.574 456.765 253.449 456.938 262.333 456.991C272.635 457.058 294.644 457.191 305.928 439.486C312.942 428.482 312.319 416.066 311.55 400.519C310.767 384.813 309.521 359.501 294.605 348.551C288.201 343.848 279.582 343.915 262.333 344.034C245.945 344.154 237.764 344.208 231.612 348.551C216.855 358.982 214.707 382.841 213.116 400.519V400.506Z" fill="#FFDF00"/>
<path d="M293.966 348.671C293.617 347.47 290.938 337.585 296.377 328.546C301.453 320.122 311.458 315.985 320.727 318.962C321.129 322.279 321.504 329.079 318.598 336.793C313.414 350.569 301.975 356.085 299.98 357C299.43 355.771 298.707 354.379 297.716 352.945C296.43 351.074 295.104 349.682 293.966 348.671Z" fill="#FFDF00"/>
<path d="M234.034 346.885C234.383 345.714 237.062 336.082 231.623 327.275C226.547 319.08 216.542 315.035 207.273 317.936C206.871 321.168 206.496 327.794 209.402 335.31C214.586 348.734 226.025 354.109 228.02 355C228.57 353.803 229.293 352.446 230.284 351.049C231.57 349.226 232.896 347.869 234.034 346.885Z" fill="#FFDF00"/>
<path d="M286.715 351C288.551 337.316 291.56 331.965 294.179 329.746C294.772 329.242 296.959 327.554 296.999 325.198C297.026 323.701 296.244 322.162 294.61 320.787C291.965 318.54 288.753 317.914 285.271 318.009C281.276 318.118 278.347 320.297 277.942 323.047C277.74 324.422 278.469 324.899 279.278 327.281C279.467 327.853 280.952 332.401 279.697 337.248C278.739 340.938 276.539 343.484 275 344.914C276.876 345.309 279.427 346.085 282.167 347.637C284.083 348.726 285.581 349.924 286.715 350.973V351Z" fill="#FFDF00"/>
<path d="M292 332.5C292.941 331.206 293.527 330.341 294.185 329.741C294.991 328.992 295.395 328.747 295.905 328.024C296.066 327.793 296.913 326.58 296.994 325.204C297.115 323.133 295.475 321.525 294.615 320.789C291.982 318.541 288.784 317.914 285.317 318.009C281.339 318.118 278.403 320.248 278 323C277.852 324.049 277.649 324.711 279 327.5C279.457 329.081 279.5 330.5 280.144 331.036C281.299 331.663 283.086 332.439 285.371 332.794C288.085 333.23 290.342 332.889 291.713 332.562L292 332.5Z" fill="#B68135"/>
<path d="M239.285 351C237.449 337.316 234.44 331.965 231.821 329.746C231.228 329.242 229.041 327.554 229.001 325.198C228.974 323.701 229.756 322.162 231.39 320.787C234.035 318.54 237.247 317.914 240.729 318.009C244.724 318.118 247.653 320.297 248.058 323.047C248.26 324.422 247.531 324.899 246.722 327.281C246.533 327.853 245.048 332.401 246.303 337.248C247.261 340.938 249.461 343.484 251 344.914C249.124 345.309 246.573 346.085 243.833 347.637C241.917 348.726 240.419 349.924 239.285 350.973V351Z" fill="#FFDF00"/>
<path d="M234 332.5C233.059 331.206 232.473 330.341 231.815 329.741C231.008 328.992 230.605 328.747 230.095 328.024C229.933 327.793 229.087 326.58 229.006 325.204C228.885 323.133 230.525 321.525 231.385 320.789C234.018 318.541 237.216 317.914 240.683 318.009C244.661 318.118 247.597 320.248 248 323C248.148 324.049 248 324.5 246.649 327.289C246.192 328.869 246.121 330.169 246 331C244.844 331.627 242.914 332.439 240.629 332.794C237.915 333.23 235.671 333.121 234.301 332.794L234 332.5Z" fill="#B68135"/>
<g clip-path="url(#clip3_2195_3009)">
<path d="M364.135 326.526C366.052 327.845 364.917 336.277 360.309 337.264C357.97 337.766 354.871 336.323 354.418 334.364C353.58 330.699 361.999 325.053 364.135 326.526Z" fill="#979696"/>
<path d="M365.113 326.673C367.233 325.701 374.071 330.877 372.632 335.313C371.904 337.565 369.087 339.486 367.139 338.892C363.501 337.773 362.75 327.768 365.113 326.68V326.673Z" fill="#777777"/>
<path d="M365.074 324.659C362.812 325.261 356.992 318.981 359.19 314.862C360.301 312.771 363.423 311.36 365.23 312.278C368.618 314.006 367.593 323.988 365.074 324.651V324.659Z" fill="#A4A3A3"/>
<path d="M364.33 325.307C363.728 327.537 355.302 329.373 352.79 325.438C351.515 323.44 351.828 320.077 353.541 318.989C356.749 316.96 365.003 322.823 364.33 325.307Z" fill="#777777"/>
<path d="M365.621 325.037C367.538 326.364 375.182 322.43 374.548 317.817C374.227 315.479 371.786 313.095 369.768 313.358C365.989 313.836 363.485 323.564 365.621 325.037Z" fill="#707070"/>
<path d="M366.091 325.893C365.887 328.192 373.163 332.751 376.895 329.905C378.789 328.462 379.657 325.191 378.421 323.595C376.105 320.601 366.318 323.332 366.091 325.893Z" fill="#979696"/>
<path d="M365.027 323.579C363.644 323.579 362.523 324.684 362.523 326.048C362.523 327.411 363.644 328.516 365.027 328.516C366.409 328.516 367.53 327.411 367.53 326.048C367.53 324.684 366.409 323.579 365.027 323.579Z" fill="#C4C4C4"/>
</g>
<g clip-path="url(#clip4_2195_3009)">
<path d="M189.854 56.234C189.357 55.892 189.651 53.706 190.846 53.45C191.452 53.32 192.256 53.694 192.373 54.202C192.59 55.152 190.408 56.616 189.854 56.234Z" fill="#979696"/>
<path d="M189.6 56.196C189.051 56.448 187.278 55.106 187.651 53.956C187.84 53.372 188.57 52.874 189.075 53.028C190.018 53.318 190.213 55.912 189.6 56.194V56.196Z" fill="#777777"/>
<path d="M189.61 56.718C190.197 56.562 191.706 58.19 191.136 59.258C190.848 59.8 190.038 60.166 189.57 59.928C188.692 59.48 188.957 56.892 189.61 56.72V56.718Z" fill="#A4A3A3"/>
<path d="M189.803 56.55C189.959 55.972 192.144 55.496 192.795 56.516C193.126 57.034 193.045 57.906 192.6 58.188C191.769 58.714 189.629 57.194 189.803 56.55Z" fill="#777777"/>
<path d="M189.469 56.62C188.972 56.276 186.99 57.296 187.154 58.492C187.237 59.098 187.87 59.716 188.394 59.648C189.373 59.524 190.022 57.002 189.469 56.62Z" fill="#707070"/>
<path d="M189.347 56.398C189.4 55.802 187.513 54.62 186.546 55.358C186.055 55.732 185.83 56.58 186.15 56.994C186.751 57.77 189.288 57.062 189.347 56.398Z" fill="#979696"/>
<path d="M189.623 56.998C189.981 56.998 190.272 56.7115 190.272 56.358C190.272 56.0045 189.981 55.718 189.623 55.718C189.264 55.718 188.974 56.0045 188.974 56.358C188.974 56.7115 189.264 56.998 189.623 56.998Z" fill="#C4C4C4"/>
</g>
<g clip-path="url(#clip5_2195_3009)">
<path d="M192.955 77.158C192.316 76.7183 192.694 73.9077 194.23 73.5786C195.01 73.4114 196.043 73.8923 196.194 74.5454C196.473 75.7669 193.667 77.6491 192.955 77.158Z" fill="#979696"/>
<path d="M192.629 77.1091C191.922 77.4331 189.643 75.7077 190.123 74.2291C190.365 73.4783 191.304 72.838 191.954 73.036C193.166 73.4089 193.417 76.744 192.629 77.1066V77.1091Z" fill="#777777"/>
<path d="M192.642 77.7803C193.396 77.5797 195.336 79.6729 194.603 81.046C194.233 81.7429 193.192 82.2134 192.59 81.9074C191.461 81.3314 191.802 78.004 192.642 77.7829V77.7803Z" fill="#A4A3A3"/>
<path d="M192.89 77.5643C193.091 76.8211 195.899 76.2091 196.737 77.5206C197.162 78.1866 197.057 79.3077 196.486 79.6703C195.417 80.3466 192.666 78.3923 192.89 77.5643Z" fill="#777777"/>
<path d="M192.46 77.6543C191.821 77.212 189.273 78.5234 189.484 80.0611C189.591 80.8403 190.404 81.6349 191.077 81.5474C192.337 81.388 193.171 78.1454 192.46 77.6543Z" fill="#707070"/>
<path d="M192.303 77.3689C192.371 76.6026 189.946 75.0829 188.702 76.0317C188.071 76.5126 187.781 77.6029 188.193 78.1351C188.965 79.1329 192.228 78.2226 192.303 77.3689Z" fill="#979696"/>
<path d="M192.658 78.1403C193.119 78.1403 193.492 77.7719 193.492 77.3174C193.492 76.863 193.119 76.4946 192.658 76.4946C192.197 76.4946 191.823 76.863 191.823 77.3174C191.823 77.7719 192.197 78.1403 192.658 78.1403Z" fill="#C4C4C4"/>
</g>
<g clip-path="url(#clip6_2195_3009)">
<path d="M258.854 62.234C258.357 61.892 258.651 59.706 259.846 59.45C260.452 59.32 261.256 59.694 261.373 60.202C261.59 61.152 259.408 62.616 258.854 62.234Z" fill="#979696"/>
<path d="M258.6 62.196C258.051 62.448 256.278 61.106 256.651 59.956C256.84 59.372 257.57 58.874 258.075 59.028C259.018 59.318 259.213 61.912 258.6 62.194V62.196Z" fill="#777777"/>
<path d="M258.61 62.718C259.197 62.562 260.706 64.19 260.136 65.258C259.848 65.8 259.038 66.166 258.57 65.928C257.692 65.48 257.957 62.892 258.61 62.72V62.718Z" fill="#A4A3A3"/>
<path d="M258.803 62.55C258.959 61.972 261.144 61.496 261.795 62.516C262.126 63.034 262.045 63.906 261.6 64.188C260.769 64.714 258.629 63.194 258.803 62.55Z" fill="#777777"/>
<path d="M258.469 62.62C257.972 62.276 255.99 63.296 256.154 64.492C256.237 65.098 256.87 65.716 257.394 65.648C258.373 65.524 259.022 63.002 258.469 62.62Z" fill="#707070"/>
<path d="M258.347 62.398C258.4 61.802 256.513 60.62 255.546 61.358C255.055 61.732 254.83 62.58 255.15 62.994C255.751 63.77 258.288 63.062 258.347 62.398Z" fill="#979696"/>
<path d="M258.623 62.998C258.981 62.998 259.272 62.7115 259.272 62.358C259.272 62.0045 258.981 61.718 258.623 61.718C258.264 61.718 257.974 62.0045 257.974 62.358C257.974 62.7115 258.264 62.998 258.623 62.998Z" fill="#C4C4C4"/>
</g>
<g clip-path="url(#clip7_2195_3009)">
<path d="M201.36 143.854C200.153 143.023 200.867 137.715 203.769 137.093C205.241 136.777 207.192 137.685 207.478 138.919C208.005 141.226 202.705 144.782 201.36 143.854Z" fill="#979696"/>
<path d="M200.744 143.762C199.409 144.374 195.103 141.115 196.01 138.322C196.468 136.903 198.241 135.694 199.468 136.068C201.759 136.772 202.231 143.072 200.744 143.757V143.762Z" fill="#777777"/>
<path d="M200.768 145.029C202.192 144.651 205.857 148.604 204.473 151.198C203.773 152.514 201.808 153.403 200.67 152.825C198.537 151.737 199.182 145.452 200.768 145.034V145.029Z" fill="#A4A3A3"/>
<path d="M201.236 144.621C201.616 143.218 206.921 142.062 208.502 144.539C209.305 145.797 209.108 147.915 208.029 148.599C206.01 149.877 200.813 146.185 201.236 144.621Z" fill="#777777"/>
<path d="M200.424 144.791C199.217 143.956 194.404 146.433 194.803 149.338C195.005 150.809 196.542 152.31 197.813 152.145C200.192 151.844 201.768 145.719 200.424 144.791Z" fill="#707070"/>
<path d="M200.128 144.252C200.256 142.805 195.675 139.934 193.325 141.727C192.133 142.635 191.586 144.694 192.365 145.7C193.823 147.584 199.985 145.865 200.128 144.252Z" fill="#979696"/>
<path d="M200.798 145.709C201.669 145.709 202.374 145.014 202.374 144.155C202.374 143.297 201.669 142.601 200.798 142.601C199.927 142.601 199.222 143.297 199.222 144.155C199.222 145.014 199.927 145.709 200.798 145.709Z" fill="#C4C4C4"/>
</g>
<g clip-path="url(#clip8_2195_3009)">
<path d="M207.157 111.006C206.234 110.371 206.781 106.311 208.999 105.836C210.126 105.594 211.617 106.289 211.836 107.232C212.239 108.997 208.186 111.715 207.157 111.006Z" fill="#979696"/>
<path d="M206.687 110.935C205.666 111.403 202.373 108.911 203.066 106.775C203.417 105.691 204.773 104.766 205.711 105.052C207.463 105.591 207.824 110.408 206.687 110.932V110.935Z" fill="#777777"/>
<path d="M206.705 111.905C207.794 111.615 210.597 114.639 209.538 116.622C209.003 117.629 207.5 118.308 206.63 117.866C204.999 117.034 205.492 112.228 206.705 111.909V111.905Z" fill="#A4A3A3"/>
<path d="M207.063 111.593C207.353 110.519 211.41 109.635 212.619 111.53C213.234 112.492 213.083 114.111 212.258 114.635C210.713 115.612 206.739 112.789 207.063 111.593Z" fill="#777777"/>
<path d="M206.442 111.723C205.519 111.084 201.838 112.978 202.143 115.199C202.298 116.325 203.473 117.473 204.445 117.346C206.265 117.116 207.47 112.432 206.442 111.723Z" fill="#707070"/>
<path d="M206.216 111.311C206.314 110.204 202.81 108.009 201.013 109.379C200.102 110.074 199.684 111.649 200.279 112.417C201.394 113.859 206.106 112.544 206.216 111.311Z" fill="#979696"/>
<path d="M206.728 112.425C207.394 112.425 207.933 111.893 207.933 111.236C207.933 110.58 207.394 110.048 206.728 110.048C206.062 110.048 205.522 110.58 205.522 111.236C205.522 111.893 206.062 112.425 206.728 112.425Z" fill="#C4C4C4"/>
</g>
<g clip-path="url(#clip9_2195_3009)">
<path d="M229.056 91.918C228.275 92.4554 228.737 95.8906 230.615 96.2929C231.568 96.4971 232.83 95.9094 233.015 95.1111C233.356 93.6183 229.926 91.3177 229.056 91.918Z" fill="#979696"/>
<path d="M228.658 91.9777C227.794 91.5817 225.008 93.6906 225.595 95.4977C225.891 96.4154 227.038 97.198 227.832 96.956C229.314 96.5003 229.62 92.424 228.658 91.9809V91.9777Z" fill="#777777"/>
<path d="M228.674 91.1574C229.595 91.4026 231.966 88.8443 231.071 87.166C230.618 86.3143 229.346 85.7391 228.61 86.1131C227.23 86.8171 227.647 90.884 228.674 91.1543V91.1574Z" fill="#A4A3A3"/>
<path d="M228.977 91.4214C229.222 92.3297 232.655 93.0777 233.678 91.4749C234.198 90.6609 234.07 89.2906 233.372 88.8474C232.065 88.0209 228.702 90.4094 228.977 91.4214Z" fill="#777777"/>
<path d="M228.451 91.3114C227.67 91.852 224.556 90.2491 224.814 88.3697C224.944 87.4174 225.939 86.4463 226.761 86.5531C228.301 86.748 229.321 90.7111 228.451 91.3114Z" fill="#707070"/>
<path d="M228.259 91.6603C228.342 92.5969 225.378 94.4543 223.858 93.2946C223.086 92.7069 222.732 91.3743 223.236 90.7237C224.179 89.5043 228.167 90.6169 228.259 91.6603Z" fill="#979696"/>
<path d="M228.693 90.7174C229.256 90.7174 229.713 91.1677 229.713 91.7231C229.713 92.2786 229.256 92.7289 228.693 92.7289C228.13 92.7289 227.673 92.2786 227.673 91.7231C227.673 91.1677 228.13 90.7174 228.693 90.7174Z" fill="#C4C4C4"/>
</g>
<g clip-path="url(#clip10_2195_3009)">
<path d="M332.607 91.544C331.755 90.9577 332.259 87.2103 334.307 86.7714C335.347 86.5486 336.724 87.1897 336.925 88.0606C337.298 89.6891 333.556 92.1989 332.607 91.544Z" fill="#979696"/>
<path d="M332.172 91.4789C331.23 91.9109 328.191 89.6103 328.83 87.6389C329.154 86.6377 330.406 85.784 331.271 86.048C332.888 86.5451 333.222 90.992 332.172 91.4754V91.4789Z" fill="#777777"/>
<path d="M332.19 92.3737C333.195 92.1063 335.782 94.8971 334.804 96.728C334.311 97.6571 332.923 98.2846 332.12 97.8766C330.614 97.1086 331.07 92.672 332.19 92.3771V92.3737Z" fill="#A4A3A3"/>
<path d="M332.52 92.0857C332.788 91.0949 336.533 90.2789 337.649 92.0274C338.216 92.9154 338.077 94.4103 337.315 94.8937C335.889 95.7954 332.221 93.1897 332.52 92.0857Z" fill="#777777"/>
<path d="M331.946 92.2057C331.094 91.616 327.697 93.3646 327.978 95.4149C328.121 96.4537 329.206 97.5131 330.103 97.3966C331.783 97.184 332.895 92.8606 331.946 92.2057Z" fill="#707070"/>
<path d="M331.737 91.8251C331.828 90.8034 328.594 88.7771 326.935 90.0423C326.094 90.6834 325.708 92.1371 326.257 92.8469C327.287 94.1771 331.637 92.9634 331.737 91.8251Z" fill="#979696"/>
<path d="M332.21 92.8537C332.825 92.8537 333.323 92.3625 333.323 91.7566C333.323 91.1506 332.825 90.6594 332.21 90.6594C331.596 90.6594 331.098 91.1506 331.098 91.7566C331.098 92.3625 331.596 92.8537 332.21 92.8537Z" fill="#C4C4C4"/>
</g>
<g clip-path="url(#clip11_2195_3009)">
<path d="M306.64 195.854C307.847 195.023 307.133 189.715 304.231 189.093C302.759 188.777 300.808 189.685 300.522 190.919C299.995 193.226 305.295 196.782 306.64 195.854Z" fill="#979696"/>
<path d="M307.256 195.762C308.591 196.374 312.897 193.115 311.99 190.322C311.532 188.903 309.759 187.694 308.532 188.068C306.241 188.772 305.769 195.072 307.256 195.757V195.762Z" fill="#777777"/>
<path d="M307.232 197.029C305.808 196.651 302.143 200.604 303.527 203.198C304.227 204.514 306.192 205.403 307.33 204.825C309.463 203.737 308.818 197.452 307.232 197.034V197.029Z" fill="#A4A3A3"/>
<path d="M306.764 196.621C306.384 195.218 301.079 194.062 299.498 196.539C298.695 197.797 298.892 199.915 299.971 200.599C301.99 201.877 307.187 198.185 306.764 196.621Z" fill="#777777"/>
<path d="M307.576 196.791C308.783 195.956 313.596 198.433 313.197 201.338C312.995 202.809 311.458 204.31 310.187 204.145C307.808 203.844 306.232 197.719 307.576 196.791Z" fill="#707070"/>
<path d="M307.872 196.252C307.744 194.805 312.325 191.934 314.675 193.727C315.867 194.635 316.414 196.694 315.635 197.7C314.177 199.584 308.015 197.865 307.872 196.252Z" fill="#979696"/>
<path d="M307.202 197.709C306.331 197.709 305.626 197.014 305.626 196.155C305.626 195.297 306.331 194.601 307.202 194.601C308.073 194.601 308.778 195.297 308.778 196.155C308.778 197.014 308.073 197.709 307.202 197.709Z" fill="#C4C4C4"/>
</g>
<g clip-path="url(#clip12_2195_3009)">
<path d="M345.742 172.93C346.807 172.197 346.176 167.513 343.616 166.964C342.317 166.686 340.595 167.487 340.343 168.576C339.878 170.611 344.555 173.749 345.742 172.93Z" fill="#979696"/>
<path d="M346.285 172.849C347.463 173.389 351.262 170.513 350.462 168.049C350.058 166.797 348.493 165.73 347.411 166.06C345.389 166.681 344.972 172.24 346.285 172.844V172.849Z" fill="#777777"/>
<path d="M346.263 173.967C345.007 173.633 341.773 177.121 342.995 179.41C343.612 180.571 345.346 181.356 346.35 180.846C348.232 179.886 347.663 174.34 346.263 173.971V173.967Z" fill="#A4A3A3"/>
<path d="M345.85 173.607C345.516 172.369 340.834 171.349 339.439 173.534C338.731 174.644 338.904 176.513 339.856 177.117C341.638 178.244 346.224 174.987 345.85 173.607Z" fill="#777777"/>
<path d="M346.567 173.757C347.632 173.02 351.879 175.206 351.527 177.769C351.348 179.067 349.992 180.391 348.871 180.246C346.772 179.98 345.381 174.576 346.567 173.757Z" fill="#707070"/>
<path d="M346.828 173.281C346.715 172.004 350.757 169.471 352.831 171.053C353.883 171.854 354.365 173.671 353.678 174.559C352.392 176.221 346.954 174.704 346.828 173.281Z" fill="#979696"/>
<path d="M346.237 174.567C345.469 174.567 344.846 173.953 344.846 173.196C344.846 172.438 345.469 171.824 346.237 171.824C347.005 171.824 347.628 172.438 347.628 173.196C347.628 173.953 347.005 174.567 346.237 174.567Z" fill="#C4C4C4"/>
</g>
<g clip-path="url(#clip13_2195_3009)">
<path d="M356.113 243.164C354.551 242.089 355.475 235.219 359.23 234.414C361.136 234.006 363.66 235.181 364.03 236.778C364.712 239.763 357.853 244.365 356.113 243.164Z" fill="#979696"/>
<path d="M355.315 243.045C353.588 243.837 348.016 239.619 349.189 236.005C349.782 234.169 352.077 232.604 353.664 233.088C356.629 233.999 357.241 242.152 355.315 243.038V243.045Z" fill="#777777"/>
<path d="M355.347 244.685C357.19 244.195 361.933 249.311 360.141 252.668C359.236 254.371 356.692 255.522 355.22 254.774C352.46 253.366 353.295 245.232 355.347 244.691V244.685Z" fill="#A4A3A3"/>
<path d="M355.953 244.157C356.444 242.341 363.31 240.845 365.356 244.05C366.395 245.678 366.14 248.419 364.744 249.305C362.13 250.958 355.405 246.181 355.953 244.157Z" fill="#777777"/>
<path d="M354.901 244.377C353.339 243.296 347.111 246.502 347.627 250.261C347.889 252.165 349.878 254.107 351.522 253.894C354.601 253.504 356.641 245.578 354.901 244.377Z" fill="#707070"/>
<path d="M354.519 243.679C354.684 241.806 348.756 238.091 345.715 240.411C344.172 241.586 343.464 244.251 344.472 245.553C346.359 247.991 354.334 245.766 354.519 243.679Z" fill="#979696"/>
<path d="M355.386 245.565C356.512 245.565 357.426 244.665 357.426 243.554C357.426 242.443 356.512 241.542 355.386 241.542C354.259 241.542 353.346 242.443 353.346 243.554C353.346 244.665 354.259 245.565 355.386 245.565Z" fill="#C4C4C4"/>
</g>
</g>
<g clip-path="url(#clip14_2195_3009)">
<path d="M541.793 91.0621C541.044 95.0563 540.059 100.914 539.298 108.052C538.779 112.913 537.872 121.367 537.912 132.284C537.961 145.137 539.282 152.603 537.086 157.01C536.908 157.367 536.223 158.671 536.754 159.469C537.447 160.514 539.585 159.749 544.272 159.437C548.623 159.145 549.186 159.644 549.972 158.951C551.949 157.213 549.858 152.781 548.497 146.648C547.136 140.527 548.441 141.439 547.294 127.702C546.468 117.802 545.763 116.996 545.338 109.696C544.916 102.482 545.216 96.5916 545.524 92.8162C544.28 92.2328 543.037 91.6455 541.793 91.0621Z" fill="#84673A"/>
<path d="M541.753 70.2042C542.51 65.3998 545.492 61.5515 549.474 60.4132C550.097 60.235 554.894 58.9468 557.887 62.07C559.617 63.8726 560.176 66.5624 559.682 68.8269C559.402 70.0948 558.839 71.0305 558.442 71.5855C559.176 71.2412 563.939 69.1064 568.784 71.4478C569.453 71.7719 573.256 73.611 573.888 76.8274C574.662 80.777 570.502 86.1201 562.995 88.2751C563.834 89.2392 565.973 91.9574 565.616 95.3075C564.997 101.108 557.466 103.551 556.101 103.997C548.984 106.306 542.603 102.931 541.068 102.064C540.311 103.381 537.443 107.979 531.828 109.51C531.071 109.716 524.407 111.454 521.899 108.133C519.376 104.782 522.896 98.7102 523.832 97.102C525.375 94.4406 527.283 92.6663 528.656 91.5847C527.984 91.1796 523.455 88.344 522.863 83.171C522.086 76.325 528.968 72.0595 529.758 71.5855C535.073 68.4056 540.639 69.8841 541.757 70.2082L541.753 70.2042Z" fill="#549354"/>
</g>
<g clip-path="url(#clip15_2195_3009)">
<path d="M157.865 278.474C155.948 277.155 157.083 268.723 161.691 267.736C164.03 267.234 167.129 268.677 167.582 270.636C168.42 274.301 160.001 279.947 157.865 278.474Z" fill="#979696"/>
<path d="M156.887 278.327C154.767 279.299 147.929 274.123 149.368 269.687C150.096 267.435 152.913 265.514 154.861 266.108C158.499 267.227 159.25 277.232 156.887 278.32V278.327Z" fill="#777777"/>
<path d="M156.926 280.341C159.188 279.739 165.008 286.019 162.81 290.138C161.699 292.229 158.577 293.64 156.77 292.722C153.382 290.994 154.407 281.012 156.926 280.349V280.341Z" fill="#A4A3A3"/>
<path d="M157.67 279.693C158.272 277.463 166.698 275.627 169.21 279.562C170.485 281.56 170.172 284.923 168.459 286.011C165.251 288.04 156.997 282.177 157.67 279.693Z" fill="#777777"/>
<path d="M156.379 279.963C154.462 278.636 146.818 282.57 147.452 287.183C147.773 289.521 150.214 291.905 152.232 291.642C156.011 291.164 158.515 281.436 156.379 279.963Z" fill="#707070"/>
<path d="M155.909 279.107C156.113 276.808 148.837 272.249 145.105 275.095C143.211 276.538 142.343 279.809 143.579 281.405C145.895 284.399 155.682 281.668 155.909 279.107Z" fill="#979696"/>
<path d="M156.973 281.421C158.356 281.421 159.477 280.316 159.477 278.952C159.477 277.589 158.356 276.484 156.973 276.484C155.591 276.484 154.47 277.589 154.47 278.952C154.47 280.316 155.591 281.421 156.973 281.421Z" fill="#C4C4C4"/>
</g>
<g clip-path="url(#clip16_2195_3009)">
<path d="M144.887 186.164C146.449 185.089 145.525 178.219 141.77 177.414C139.864 177.006 137.34 178.181 136.97 179.778C136.288 182.763 143.147 187.365 144.887 186.164Z" fill="#979696"/>
<path d="M145.685 186.045C147.412 186.837 152.984 182.619 151.811 179.005C151.218 177.169 148.923 175.604 147.336 176.088C144.371 176.999 143.759 185.152 145.685 186.038V186.045Z" fill="#777777"/>
<path d="M145.653 187.685C143.81 187.195 139.067 192.311 140.859 195.668C141.764 197.371 144.308 198.522 145.78 197.774C148.54 196.366 147.705 188.232 145.653 187.691V187.685Z" fill="#A4A3A3"/>
<path d="M145.047 187.157C144.556 185.341 137.69 183.845 135.644 187.05C134.605 188.678 134.86 191.419 136.256 192.305C138.87 193.958 145.595 189.181 145.047 187.157Z" fill="#777777"/>
<path d="M146.099 187.377C147.661 186.296 153.889 189.502 153.373 193.261C153.111 195.165 151.122 197.107 149.478 196.894C146.399 196.504 144.359 188.578 146.099 187.377Z" fill="#707070"/>
<path d="M146.481 186.679C146.316 184.806 152.244 181.091 155.285 183.411C156.828 184.586 157.536 187.251 156.528 188.553C154.641 190.991 146.666 188.766 146.481 186.679Z" fill="#979696"/>
<path d="M145.614 188.565C144.488 188.565 143.574 187.665 143.574 186.554C143.574 185.443 144.488 184.542 145.614 184.542C146.741 184.542 147.654 185.443 147.654 186.554C147.654 187.665 146.741 188.565 145.614 188.565Z" fill="#C4C4C4"/>
</g>
<g clip-path="url(#clip17_2195_3009)">
<path d="M139.529 81.7435C140.054 84.5394 140.743 88.6397 141.276 93.6361C141.639 97.0388 142.274 102.957 142.246 110.599C142.211 119.596 141.287 124.822 142.824 127.907C142.949 128.157 143.428 129.07 143.057 129.629C142.572 130.36 141.074 129.824 137.794 129.606C134.748 129.402 134.354 129.75 133.804 129.266C132.42 128.049 133.883 124.947 134.836 120.654C135.789 116.369 134.876 117.007 135.678 107.392C136.257 100.461 136.75 99.8971 137.048 94.7873C137.343 89.7371 137.133 85.6141 136.917 82.9713C137.788 82.563 138.658 82.1518 139.529 81.7435Z" fill="#84673A"/>
<path d="M139.557 67.1429C139.027 63.7798 139.287 61.2968 136.5 60.5C136.063 60.3752 131.595 59.3137 129.5 61.5C128.289 62.7618 126.637 64.5 127.007 66.1788C127.202 67.0663 127.597 67.7214 127.874 68.1098C127.361 67.8688 124.026 66.3744 120.635 68.0134C120.167 68.2403 117.505 69.5276 117.062 71.7791C116.521 74.5438 119.433 78.284 124.687 79.7926C124.1 80.4674 121.25 82.6549 121.5 85C121.934 89.0606 126.544 92.188 127.5 92.5C132.482 94.1163 138.962 90.0518 140.036 89.445C140.567 90.3666 142.574 93.585 146.504 94.6569C147.035 94.8015 150.347 93.8252 152.102 91.5C153.869 89.155 152.757 87.0971 152.102 85.9714C151.022 84.1084 149.686 82.8664 148.725 82.1093C149.195 81.8257 152.366 79.8408 152.78 76.2197C153.324 71.4275 148.506 68.4416 147.953 68.1098C144.233 65.8839 140.337 66.9189 139.554 67.1457L139.557 67.1429Z" fill="#5C885C"/>
</g>
<g clip-path="url(#clip18_2195_3009)">
<path d="M69.0553 275.781C65.535 286.549 69.9928 291.71 72.8099 311.452C75.3145 328.989 74.5286 344.044 74.2161 349.467C73.8347 356.153 73.0718 363.212 72.3365 378.566C72.1067 383.364 71.9597 387.325 71.8678 390H106.128C99.6619 363.957 97.9891 343.143 97.6812 328.814C97.2998 311.131 94.7676 299.347 89.7032 275.781C88.2281 268.911 86.3347 260.979 82.1941 260.294C77.5847 259.531 71.6012 267.983 69.0507 275.781H69.0553Z" fill="#957542"/>
<path d="M88.8529 272.004C90.7693 272.932 110.774 282.22 127.722 271.553C130.314 269.922 144.671 260.887 142.741 247.146C141.403 237.615 132.736 229.43 121.151 227.436C121.215 226.641 121.224 225.046 120.369 223.369C118.77 220.23 115.489 219.421 114.974 219.301C115.549 217.665 116.16 215.129 115.521 212.339C113.145 201.967 95.9439 198.791 93.0717 198.258C89.4779 197.597 83.5818 196.985 76.1737 198.493C71.3851 191.935 63.182 188.773 55.2867 190.441C47.1755 192.155 40.852 198.663 39.3309 206.866C35.8428 208.277 21.1829 214.66 16.022 229.706C14.8042 233.249 12.4237 240.202 15.5533 247.541C20.2408 258.52 33.2233 260.869 34.4825 261.075C33.0855 262.822 29.5285 267.776 29.7904 274.453C30.1994 284.922 39.6617 290.804 41.2886 291.82C52.6673 298.897 68.2325 295.501 77.897 287.753C84.6204 282.362 87.5937 275.584 88.8575 272.008L88.8529 272.004Z" fill="#5C885C"/>
</g>
<g clip-path="url(#clip19_2195_3009)">
<path d="M499.395 188.336C502.035 196.412 498.692 200.282 496.579 215.089C494.701 228.242 495.29 239.533 495.525 243.6C495.811 248.615 496.383 253.909 496.934 265.425C497.107 269.023 497.217 271.994 497.286 274H471.591C476.44 254.468 477.695 238.858 477.926 228.111C478.212 214.848 480.111 206.011 483.909 188.336C485.016 183.183 486.436 177.234 489.541 176.721C492.998 176.148 497.486 182.487 499.399 188.336H499.395Z" fill="#957542"/>
<path d="M484.547 185.503C483.11 186.199 468.106 193.165 455.395 185.165C453.451 183.941 442.683 177.165 444.131 166.86C445.134 159.711 451.634 153.573 460.323 152.077C460.275 151.48 460.268 150.284 460.909 149.026C462.109 146.672 464.57 146.066 464.956 145.976C464.525 144.749 464.067 142.847 464.546 140.754C466.328 132.975 479.229 130.594 481.383 130.194C484.078 129.697 488.5 129.239 494.056 130.369C497.648 125.451 503.8 123.08 509.721 124.331C515.805 125.616 520.547 130.497 521.688 136.649C524.304 137.707 535.299 142.495 539.17 153.779C540.083 156.437 541.869 161.652 539.521 167.156C536.006 175.39 526.269 177.151 525.325 177.307C526.372 178.616 529.04 182.332 528.844 187.34C528.537 195.191 521.44 199.603 520.22 200.365C511.686 205.673 500.012 203.126 492.764 197.315C487.721 193.272 485.491 188.188 484.543 185.506L484.547 185.503Z" fill="#5C885C"/>
</g>
<g clip-path="url(#clip20_2195_3009)">
<path d="M472.707 79.9046C470.078 82.1229 472.493 86.4439 472.707 94.849C472.932 103.693 470.552 110.7 472.903 111.763C473.689 112.116 475.387 111.983 476.023 111.936C476.883 111.867 478.16 111.769 478.801 111.37C480.69 110.186 478.484 105.438 477.819 97.9973C477.057 89.4362 476.67 85.1557 477.23 82.0709C477.34 81.4586 477.669 79.8122 476.837 79.119C475.919 78.3565 473.833 78.9573 472.707 79.9046Z" fill="#755B33"/>
<path d="M470.425 62.1528C472.73 57.8318 477.808 55.9486 482.002 57.5834C485.577 58.9756 487.94 62.7015 487.755 66.803C489.54 66.9705 491.059 67.993 491.591 69.4603C492.359 71.5919 490.701 73.7639 489.159 74.694C487.669 75.5952 486.115 75.445 485.543 75.3583C485.508 75.7049 485.277 77.7383 483.48 79.1189C481.383 80.7306 478.952 80.0779 478.686 80.0028C477.75 84.266 473.747 86.9984 469.836 86.4207C466.503 85.9239 463.765 83.1049 463.274 79.4886C462.286 79.0669 460.495 78.1427 459.068 76.2421C456.954 73.4231 456.209 69.2003 458.034 65.6188C459.617 62.5109 463.268 59.6226 466.959 60.31C468.559 60.6046 469.726 61.4942 470.425 62.1528Z" fill="#549354"/>
</g>
<g clip-path="url(#clip21_2195_3009)">
<path d="M453.86 275.781C457.38 286.549 452.923 291.71 450.106 311.452C447.601 328.989 448.387 344.044 448.699 349.467C449.081 356.153 449.844 363.212 450.579 378.566C450.809 383.364 450.956 387.325 451.048 390H416.788C423.254 363.957 424.926 343.143 425.234 328.814C425.616 311.131 428.148 299.347 433.212 275.781C434.687 268.911 436.581 260.979 440.721 260.294C445.331 259.531 451.314 267.983 453.865 275.781H453.86Z" fill="#957542"/>
<path d="M428.141 223.382C421.722 216.111 412.586 212.83 404.669 215.178C403.428 215.547 393.981 218.515 392.289 226.974C391.309 231.859 393.249 236.982 396.505 240.263C398.333 242.096 400.282 243.068 401.544 243.576C399.942 243.782 389.642 245.291 383.999 254.418C383.221 255.679 378.792 262.845 381.172 268.933C384.1 276.405 396.819 280.939 411.754 276.527C411.376 279.047 410.688 285.91 414.875 291.164C422.129 300.259 437.413 296.304 440.186 295.592C454.632 291.856 461.752 279.348 463.406 276.246C466.09 277.649 475.838 282.313 486.922 278.877C488.418 278.414 501.488 274.202 502.15 265.929C502.808 257.592 490.385 251.146 487.089 249.442C481.643 246.618 476.533 245.676 473.065 245.327C473.763 243.925 478.345 234.306 473.801 224.97C467.779 212.621 451.634 212.814 449.798 212.863C437.452 213.204 429.672 221.651 428.138 223.393L428.141 223.382Z" fill="#549354"/>
</g>
</g>
<g clip-path="url(#clip22_2195_3009)">
<path d="M300.229 54.0305C298.64 56.0622 299.825 57.8834 299.719 63.5971C299.633 68.2325 298.521 70.7179 299.891 71.6581C300.368 71.9868 301.222 71.9868 302.937 71.9934C304.784 72 305.711 72.0066 306.148 71.6581C307.538 70.5601 305.492 67.4106 304.963 62.2558C304.354 56.2989 305.996 53.0179 304.453 52.1829C303.341 51.578 301.302 52.6497 300.229 54.0305Z" fill="#554122"/>
<path d="M301.414 55.3784C296.939 58.8171 293.43 57.6697 292 55.5C290.974 53.9483 290.166 51.9002 291.609 49.6712C289.398 47.4949 289.702 44.4704 291.106 43.4579C292.172 42.682 294.112 42.9121 295.667 44.1285C295.979 42.5308 296.471 39.5917 298 39.263C299.953 38.8422 302.129 41.8272 302.262 41.9456C304.274 39.5326 307.194 38.4608 309.525 39.263C312.477 40.269 312.5 44.1285 310 46C312 45.5 314.927 51.9856 311.723 54.8721C309.187 57.1536 304.983 57.41 301.414 55.3784Z" fill="#549354"/>
</g>
<g clip-path="url(#clip23_2195_3009)">
<path d="M501.771 59.0305C503.36 61.0622 502.175 62.8834 502.281 68.5971C502.367 73.2325 503.479 75.7179 502.109 76.6581C501.632 76.9869 500.778 76.9869 499.063 76.9934C497.216 77 496.289 77.0066 495.852 76.6581C494.462 75.5601 496.508 72.4106 497.037 67.2558C497.646 61.2989 496.004 58.0179 497.547 57.1829C498.659 56.578 500.698 57.6497 501.771 59.0305Z" fill="#755B33"/>
<path d="M500.586 60.3784C505.061 63.8171 509.974 63.2188 511.404 61.049C512.43 59.4973 511.834 56.9002 510.391 54.6712C512.602 52.4949 512.298 49.4704 510.894 48.4579C509.828 47.682 507.888 47.9121 506.333 49.1285C506.021 47.5308 504.816 46.2684 503.287 45.9396C501.334 45.5188 499.871 46.8272 499.738 46.9456C497.726 44.5326 494.806 43.4608 492.475 44.263C489.523 45.269 488.794 48.8129 488.417 50.6408C488.086 52.2516 487.073 56.9856 490.277 59.8721C492.813 62.1536 497.017 62.41 500.586 60.3784Z" fill="#577957"/>
</g>
<g clip-path="url(#clip24_2195_3009)">
<path d="M161.229 42.0305C159.64 44.0622 160.825 45.8834 160.719 51.5971C160.633 56.2325 159.521 58.7179 160.891 59.6581C161.368 59.9868 162.222 59.9868 163.937 59.9934C165.784 60 166.711 60.0066 167.148 59.6581C168.538 58.5601 166.492 55.4106 165.963 50.2558C165.354 44.2989 166.996 41.0179 165.453 40.1829C164.341 39.578 162.302 40.6497 161.229 42.0305Z" fill="#755B33"/>
<path d="M162.414 43.3784C157.939 46.8171 153.026 46.2188 151.596 44.049C150.57 42.4973 151.166 39.9002 152.609 37.6712C150.398 35.4949 150.702 32.4704 152.106 31.4579C153.172 30.682 155.112 30.9121 156.667 32.1285C156.979 30.5308 158.184 29.2684 159.713 28.9396C161.666 28.5188 163.129 29.8272 163.262 29.9456C165.274 27.5326 168.194 26.4608 170.525 27.263C173.477 28.269 174.206 31.8129 174.583 33.6408C174.914 35.2516 175.927 39.9856 172.723 42.8721C170.187 45.1536 165.983 45.41 162.414 43.3784Z" fill="#577957"/>
</g>
<g clip-path="url(#clip25_2195_3009)">
<path d="M53.771 45.0305C55.36 47.0622 54.1749 48.8834 54.2808 54.5971C54.3669 59.2325 55.4791 61.7179 54.1087 62.6581C53.632 62.9868 52.7779 62.9868 51.0631 62.9934C49.216 63 48.2891 63.0066 47.8521 62.6581C46.4618 61.5601 48.5076 58.4106 49.0372 53.2558C49.6463 47.2989 48.0044 44.0179 49.547 43.1829C50.6593 42.578 52.6985 43.6497 53.771 45.0305Z" fill="#755B33"/>
<path d="M52.5858 46.3784C57.0614 49.8171 61.974 49.2188 63.404 47.049C64.4302 45.4973 63.8344 42.9002 62.3911 40.6712C64.6024 38.4949 64.2978 35.4704 62.8942 34.4579C61.8283 33.682 59.8884 33.9121 58.3326 35.1285C58.0214 33.5308 56.8164 32.2684 55.2871 31.9396C53.334 31.5188 51.8708 32.8272 51.7384 32.9456C49.7257 30.5326 46.806 29.4608 44.4755 30.263C41.5227 31.269 40.7944 34.8129 40.417 36.6408C40.086 38.2516 39.073 42.9856 42.2774 45.8721C44.8131 48.1536 49.0173 48.41 52.5858 46.3784Z" fill="#577957"/>
</g>
<g clip-path="url(#clip26_2195_3009)">
<path d="M353.229 52.0305C351.64 54.0622 352.825 55.8834 352.719 61.5971C352.633 66.2325 351.521 68.7179 352.891 69.6581C353.368 69.9868 354.222 69.9868 355.937 69.9934C357.784 70 358.711 70.0066 359.148 69.6581C360.538 68.5601 358.492 65.4106 357.963 60.2558C357.354 54.2989 358.996 51.0179 357.453 50.1829C356.341 49.578 354.302 50.6497 353.229 52.0305Z" fill="#755B33"/>
<path d="M354.414 53.3784C349.939 56.8171 345.026 56.2188 343.596 54.049C342.57 52.4973 343.166 49.9002 344.609 47.6712C342.398 45.4949 342.702 42.4704 344.106 41.4579C345.172 40.682 347.112 40.9121 348.667 42.1285C348.979 40.5308 350.184 39.2684 351.713 38.9396C353.666 38.5188 355.129 39.8272 355.262 39.9456C357.274 37.5326 360.194 36.4608 362.525 37.263C365.477 38.269 366.206 41.8129 366.583 43.6408C366.914 45.2516 367.927 49.9856 364.723 52.8721C362.187 55.1536 357.983 55.41 354.414 53.3784Z" fill="#577957"/>
</g>
<g clip-path="url(#clip27_2195_3009)">
<path d="M14.9846 50.7663C14.5991 51.2883 14.2551 52.0237 14.2551 55.2088C14.2551 59.6453 14.9135 59.9181 14.5576 62.3499C14.2017 64.7877 13.3358 65.8849 14.0001 66.6145C14.3856 67.0415 15.3998 67.0237 17.4046 66.9703C19.1187 66.9229 19.9787 66.8992 20.2812 66.6679C21.5742 65.6773 20.2219 62.9786 19.6762 58.2633C19.0178 52.599 20.1982 49.8232 18.7687 49.0996C17.6833 48.554 15.8684 49.5682 14.9846 50.7663Z" fill="#755B33"/>
<path d="M16.0463 51.9762C15.8328 52.332 14.1246 55.096 10.8447 55.4578C10.3939 55.5052 7.21478 55.8077 5.44135 53.4886C5.15072 53.109 3.78061 51.1992 4.6347 49.147C5.32272 47.4863 6.97753 46.9169 7.26222 46.8279C4.35001 45.2621 3.37729 42.2075 4.38559 40.3688C5.12106 39.0224 7.17919 37.854 8.92889 38.6547C10.0677 39.1767 10.815 40.4163 10.898 41.8338C11.1768 40.3925 12.2563 39.2538 13.6264 38.9572C15.3761 38.5776 16.6869 39.7579 16.8055 39.8647C18.2587 37.2312 21.3548 36.389 23.318 37.4388C25.5244 38.6251 26.4615 42.2965 24.3263 45.013C25.9929 47.1067 26.3607 49.7816 25.2871 51.5254C23.7925 53.9453 19.3737 54.7757 16.0523 51.9821L16.0463 51.9762Z" fill="#425342"/>
</g>
<g clip-path="url(#clip28_2195_3009)">
<path d="M112.907 38.7663C113.293 39.2883 113.637 40.0237 113.637 43.2088C113.637 47.6453 112.979 47.9181 113.335 50.3499C113.69 52.7877 114.556 53.8849 113.892 54.6145C113.507 55.0415 112.492 55.0237 110.488 54.9703C108.773 54.9229 107.913 54.8992 107.611 54.6679C106.318 53.6773 107.67 50.9786 108.216 46.2633C108.874 40.599 107.694 37.8232 109.123 37.0996C110.209 36.554 112.024 37.5682 112.907 38.7663Z" fill="#755B33"/>
<path d="M111.846 39.9762C112.059 40.332 113.767 43.096 117.047 43.4578C117.498 43.5052 120.677 43.8077 122.451 41.4886C122.741 41.109 124.111 39.1992 123.257 37.147C122.569 35.4863 120.915 34.9169 120.63 34.8279C123.542 33.2621 124.515 30.2075 123.506 28.3688C122.771 27.0224 120.713 25.854 118.963 26.6547C117.824 27.1767 117.077 28.4163 116.994 29.8338C116.715 28.3925 115.636 27.2538 114.266 26.9572C112.516 26.5776 111.205 27.7579 111.087 27.8647C109.633 25.2312 106.537 24.389 104.574 25.4388C102.368 26.6251 101.431 30.2965 103.566 33.013C101.899 35.1067 101.531 37.7816 102.605 39.5254C104.1 41.9453 108.518 42.7757 111.84 39.9821L111.846 39.9762Z" fill="#425342"/>
</g>
<g clip-path="url(#clip29_2195_3009)">
<path d="M89.7069 47.9046C87.0785 50.1229 89.4932 54.4439 89.7069 62.849C89.9322 71.6931 87.5522 78.7002 89.9033 79.7632C90.6889 80.1155 92.3873 79.9827 93.0227 79.9365C93.8834 79.8671 95.1601 79.7689 95.8013 79.3703C97.6903 78.1861 95.4836 73.4377 94.8193 65.9973C94.0567 57.4362 93.6697 53.1557 94.23 50.0709C94.3398 49.4586 94.6691 47.8122 93.8372 47.119C92.9187 46.3565 90.8333 46.9573 89.7069 47.9046Z" fill="#755B33"/>
<path d="M87.4251 30.1528C89.73 25.8318 94.8077 23.9486 99.0016 25.5834C102.577 26.9756 104.94 30.7015 104.755 34.803C106.54 34.9705 108.059 35.993 108.591 37.4603C109.359 39.5919 107.701 41.7639 106.159 42.694C104.669 43.5951 103.115 43.445 102.543 43.3583C102.508 43.7049 102.277 45.7383 100.48 47.1189C98.3835 48.7306 95.9515 48.0779 95.6858 48.0028C94.75 52.266 90.7467 54.9984 86.8359 54.4207C83.5027 53.9239 80.7646 51.1049 80.2735 47.4886C79.2857 47.0669 77.4949 46.1427 76.0681 44.2421C73.9538 41.4231 73.2086 37.2003 75.0341 33.6188C76.6169 30.5109 80.2678 27.6226 83.9591 28.31C85.5592 28.6046 86.7261 29.4942 87.4251 30.1528Z" fill="#549354"/>
</g>
<path d="M260.455 45.8839C260.648 46.1449 260.82 46.5126 260.82 48.1052C260.82 50.3236 260.491 50.46 260.668 51.676C260.846 52.8949 261.279 53.4435 260.947 53.8083C260.754 54.0218 260.247 54.0129 259.245 53.9863C258.388 53.9625 257.958 53.9507 257.807 53.835C257.16 53.3397 257.836 51.9903 258.109 49.6326C258.438 46.8003 257.848 45.4123 258.563 45.0505C259.106 44.7777 260.013 45.2848 260.455 45.8839Z" fill="#554122"/>
<path d="M259.924 46.4885C260.031 46.6665 260.885 48.0485 262.525 48.2294C262.751 48.2532 264.34 48.4044 265.227 47.2448C265.372 47.055 266.057 46.1 265.63 45.0739C265.286 44.2435 264.459 43.9588 264.317 43.9143C265.773 43.1313 266.259 41.604 265.755 40.6846C265.387 40.0114 264.358 39.4271 263.483 39.8275C262.914 40.0885 262.54 40.7083 262.499 41.4171C262.359 40.6965 261.819 40.1271 261.134 39.9788C260.259 39.789 259.604 40.3791 259.545 40.4325C258.818 39.1157 257.27 38.6946 256.288 39.2195C255.185 39.8127 254.716 41.6485 255.784 43.0068C254.951 44.0537 254.767 45.3912 255.304 46.2632C256.051 47.4732 258.261 47.8884 259.921 46.4915L259.924 46.4885Z" fill="#304130"/>
<path d="M138.455 39.8839C138.648 40.1449 138.82 40.5126 138.82 42.1052C138.82 44.3236 138.491 44.46 138.668 45.676C138.846 46.8949 139.279 47.4435 138.947 47.8083C138.754 48.0218 138.247 48.0129 137.245 47.9863C136.388 47.9625 135.958 47.9507 135.807 47.835C135.16 47.3397 135.836 45.9903 136.109 43.6326C136.438 40.8003 135.848 39.4123 136.563 39.0505C137.106 38.7777 138.013 39.2848 138.455 39.8839Z" fill="#554122"/>
<path d="M137.924 40.4885C138.031 40.6665 138.885 42.0485 140.525 42.2294C140.751 42.2532 142.34 42.4044 143.227 41.2448C143.372 41.055 144.057 40.1 143.63 39.0739C143.286 38.2435 142.459 37.9588 142.317 37.9143C143.773 37.1313 144.259 35.604 143.755 34.6846C143.387 34.0114 142.358 33.4271 141.483 33.8275C140.914 34.0885 140.54 34.7083 140.499 35.4171C140.359 34.6965 139.819 34.1271 139.134 33.9788C138.259 33.789 137.604 34.3791 137.545 34.4325C136.818 33.1157 135.27 32.6946 134.288 33.2195C133.185 33.8127 132.716 35.6485 133.784 37.0068C132.951 38.0537 132.767 39.3912 133.304 40.2632C134.051 41.4732 136.261 41.8884 137.921 40.4915L137.924 40.4885Z" fill="#304130"/>
<g clip-path="url(#clip30_2195_3009)">
<path d="M41.7931 108.062C41.0437 112.056 40.0594 117.914 39.2978 125.052C38.7793 129.913 37.8719 138.367 37.9124 149.284C37.961 162.137 39.2816 169.603 37.086 174.01C36.9078 174.367 36.2232 175.671 36.7539 176.469C37.4466 177.514 39.5854 176.749 44.2723 176.437C48.6229 176.145 49.186 176.644 49.9719 175.951C51.9487 174.213 49.8584 169.781 48.4974 163.648C47.1363 157.527 48.4406 158.439 47.2942 144.702C46.4679 134.802 45.763 133.996 45.3377 126.696C44.9164 119.482 45.2161 113.592 45.524 109.816C44.2804 109.233 43.0368 108.645 41.7931 108.062Z" fill="#84673A"/>
<path d="M41.7527 87.2042C42.5102 82.3998 45.4916 78.5515 49.4737 77.4132C50.0975 77.235 54.8937 75.9468 57.8873 79.07C59.6171 80.8726 60.1761 83.5624 59.6819 85.8269C59.4024 87.0948 58.8393 88.0305 58.4423 88.5855C59.1755 88.2412 63.9393 86.1064 68.7842 88.4478C69.4526 88.7719 73.2564 90.611 73.8883 93.8274C74.662 97.777 70.5018 103.12 62.9955 105.275C63.834 106.239 65.9729 108.957 65.6164 112.307C64.9966 118.108 57.466 120.551 56.1009 120.997C48.9835 123.306 42.6034 119.931 41.0681 119.064C40.3106 120.381 37.4425 124.979 31.828 126.51C31.0705 126.716 24.4068 128.454 21.8993 125.133C19.3756 121.782 22.8958 115.71 23.8316 114.102C25.375 111.441 27.2829 109.666 28.6562 108.585C27.9837 108.18 23.4549 105.344 22.8634 100.171C22.0857 93.325 28.9681 89.0595 29.758 88.5855C35.0728 85.4056 40.6387 86.8841 41.7567 87.2082L41.7527 87.2042Z" fill="#509E5A"/>
</g>
<g clip-path="url(#clip31_2195_3009)">
<path d="M422.907 69.7663C423.293 70.2883 423.637 71.0237 423.637 74.2088C423.637 78.6453 422.979 78.9181 423.335 81.3499C423.69 83.7877 424.556 84.8849 423.892 85.6145C423.507 86.0415 422.492 86.0237 420.488 85.9703C418.773 85.9229 417.913 85.8992 417.611 85.6679C416.318 84.6773 417.67 81.9786 418.216 77.2633C418.874 71.599 417.694 68.8232 419.123 68.0996C420.209 67.554 422.024 68.5682 422.907 69.7663Z" fill="#755B33"/>
<path d="M421.846 70.9762C422.059 71.332 423.767 74.096 427.047 74.4578C427.498 74.5052 430.677 74.8077 432.451 72.4886C432.741 72.109 434.111 70.1992 433.257 68.147C432.569 66.4863 430.915 65.9169 430.63 65.8279C433.542 64.2621 434.515 61.2075 433.506 59.3688C432.771 58.0224 430.713 56.854 428.963 57.6547C427.824 58.1767 427.077 59.4163 426.994 60.8338C426.715 59.3925 425.636 58.2538 424.266 57.9572C422.516 57.5776 421.205 58.7579 421.087 58.8647C419.633 56.2312 416.537 55.389 414.574 56.4388C412.368 57.6251 411.431 61.2965 413.566 64.013C411.899 66.1067 411.531 68.7816 412.605 70.5254C414.1 72.9453 418.518 73.7757 421.84 70.9821L421.846 70.9762Z" fill="#425342"/>
</g>
<path d="M538.493 57.8839C538.3 58.1449 538.128 58.5126 538.128 60.1052C538.128 62.3236 538.457 62.46 538.279 63.6759C538.101 64.8949 537.668 65.4435 538.001 65.8083C538.193 66.0218 538.7 66.0129 539.703 65.9862C540.56 65.9625 540.99 65.9507 541.141 65.835C541.788 65.3397 541.112 63.9903 540.839 61.6326C540.51 58.8003 541.1 57.4123 540.385 57.0505C539.842 56.7776 538.935 57.2848 538.493 57.8839Z" fill="#554122"/>
<path d="M539.023 58.4885C538.917 58.6665 538.063 60.0485 536.422 60.2294C536.197 60.2532 534.607 60.4044 533.721 59.2448C533.575 59.055 532.89 58.1 533.317 57.0739C533.661 56.2435 534.489 55.9588 534.631 55.9143C533.175 55.1313 532.689 53.604 533.193 52.6846C533.561 52.0114 534.59 51.4271 535.465 51.8275C536.034 52.0885 536.408 52.7083 536.449 53.4171C536.589 52.6965 537.128 52.1271 537.813 51.9788C538.688 51.789 539.344 52.3791 539.403 52.4325C540.13 51.1157 541.678 50.6946 542.659 51.2195C543.763 51.8127 544.231 53.6485 543.164 55.0068C543.997 56.0537 544.181 57.3912 543.644 58.2632C542.897 59.4732 540.687 59.8884 539.026 58.4915L539.023 58.4885Z" fill="#304130"/>
<defs>
<linearGradient id="paint0_linear_2195_3009" x1="282" y1="0" x2="282" y2="274" gradientUnits="userSpaceOnUse">
<stop stop-color="#CFEAFF"/>
<stop offset="1" stop-color="#6FBEFB"/>
</linearGradient>
<clipPath id="clip0_2195_3009">
<rect width="563" height="343" fill="white" transform="translate(1 47)"/>
</clipPath>
<clipPath id="clip1_2195_3009">
<rect width="210.551" height="350" fill="white" transform="translate(168 47)"/>
</clipPath>
<clipPath id="clip2_2195_3009">
<rect width="41.1055" height="65" fill="white" transform="matrix(-1 0 0 1 379.105 80)"/>
</clipPath>
<clipPath id="clip3_2195_3009">
<rect width="27" height="27" fill="white" transform="matrix(-1 0 0 -1 379 339)"/>
</clipPath>
<clipPath id="clip4_2195_3009">
<rect width="7" height="7" fill="white" transform="translate(186 53)"/>
</clipPath>
<clipPath id="clip5_2195_3009">
<rect width="9" height="9" fill="white" transform="translate(188 73)"/>
</clipPath>
<clipPath id="clip6_2195_3009">
<rect width="7" height="7" fill="white" transform="translate(255 59)"/>
</clipPath>
<clipPath id="clip7_2195_3009">
<rect width="17" height="17" fill="white" transform="translate(192 136)"/>
</clipPath>
<clipPath id="clip8_2195_3009">
<rect width="13" height="13" fill="white" transform="translate(200 105)"/>
</clipPath>
<clipPath id="clip9_2195_3009">
<rect width="11" height="11" fill="white" transform="matrix(1 0 0 -1 223 97)"/>
</clipPath>
<clipPath id="clip10_2195_3009">
<rect width="12" height="12" fill="white" transform="translate(326 86)"/>
</clipPath>
<clipPath id="clip11_2195_3009">
<rect width="17" height="17" fill="white" transform="matrix(-1 0 0 1 316 188)"/>
</clipPath>
<clipPath id="clip12_2195_3009">
<rect width="15" height="15" fill="white" transform="matrix(-1 0 0 1 354 166)"/>
</clipPath>
<clipPath id="clip13_2195_3009">
<rect width="22" height="22" fill="white" transform="translate(344 233)"/>
</clipPath>
<clipPath id="clip14_2195_3009">
<rect width="52.9774" height="100" fill="white" transform="translate(521 60)"/>
</clipPath>
<clipPath id="clip15_2195_3009">
<rect width="27" height="27" fill="white" transform="translate(143 266)"/>
</clipPath>
<clipPath id="clip16_2195_3009">
<rect width="22" height="22" fill="white" transform="matrix(-1 0 0 1 157 176)"/>
</clipPath>
<clipPath id="clip17_2195_3009">
<rect width="37.0842" height="70" fill="white" transform="matrix(-1 0 0 1 154.084 60)"/>
</clipPath>
<clipPath id="clip18_2195_3009">
<rect width="128.915" height="200" fill="white" transform="translate(14 190)"/>
</clipPath>
<clipPath id="clip19_2195_3009">
<rect width="96.6866" height="150" fill="white" transform="matrix(-1 0 0 1 540.687 124)"/>
</clipPath>
<clipPath id="clip20_2195_3009">
<rect width="34.7815" height="55" fill="white" transform="translate(457 57)"/>
</clipPath>
<clipPath id="clip21_2195_3009">
<rect width="128.915" height="200" fill="white" transform="matrix(-1 0 0 1 508.916 190)"/>
</clipPath>
<clipPath id="clip22_2195_3009">
<rect width="24" height="33" fill="white" transform="translate(290 39)"/>
</clipPath>
<clipPath id="clip23_2195_3009">
<rect width="24" height="33" fill="white" transform="matrix(-1 0 0 1 512 44)"/>
</clipPath>
<clipPath id="clip24_2195_3009">
<rect width="24" height="33" fill="white" transform="translate(151 27)"/>
</clipPath>
<clipPath id="clip25_2195_3009">
<rect width="24" height="33" fill="white" transform="matrix(-1 0 0 1 64 30)"/>
</clipPath>
<clipPath id="clip26_2195_3009">
<rect width="24" height="33" fill="white" transform="translate(343 37)"/>
</clipPath>
<clipPath id="clip27_2195_3009">
<rect width="21.8921" height="30" fill="white" transform="translate(4 37)"/>
</clipPath>
<clipPath id="clip28_2195_3009">
<rect width="21.8921" height="30" fill="white" transform="matrix(-1 0 0 1 123.892 25)"/>
</clipPath>
<clipPath id="clip29_2195_3009">
<rect width="34.7815" height="55" fill="white" transform="translate(74 25)"/>
</clipPath>
<clipPath id="clip30_2195_3009">
<rect width="52.9774" height="100" fill="white" transform="translate(21 77)"/>
</clipPath>
<clipPath id="clip31_2195_3009">
<rect width="21.8921" height="30" fill="white" transform="matrix(-1 0 0 1 433.892 56)"/>
</clipPath>
</defs>
</svg>
