<svg width="564" height="390" viewBox="0 0 564 390" fill="none" xmlns="http://www.w3.org/2000/svg">
<rect width="564" height="390" fill="#5C3D99"/>
<g clip-path="url(#clip0_2194_3013)">
<path d="M244.28 390C250.6 362.89 256.27 333.1 260.55 300.87C266.33 257.37 268.54 217.27 268.69 181.53C286.41 181.89 304.13 182.25 321.85 182.61C318.7 214.53 317.55 253.97 322.39 298.7C326.16 333.53 332.78 364.18 339.99 389.94C308.09 389.96 276.18 389.98 244.28 390Z" fill="#FFDF00"/>
<path d="M347.66 140.17C349.24 157.66 350.22 168.47 344.63 179.21C332.82 201.9 303.2 202.08 293.41 202.14C282.05 202.21 257.8 202.36 245.36 182.93C237.64 170.86 238.31 157.24 239.16 140.18C240.02 122.95 241.4 95.18 257.83 83.18C264.88 78.02 274.39 78.09 293.4 78.22C311.46 78.35 320.49 78.41 327.26 83.18C343.52 94.62 345.89 120.8 347.64 140.18L347.66 140.17Z" fill="#FFDF00"/>
<path d="M268.43 199.8C271.98 202.22 279.6 206.68 290.2 207.47C305.36 208.61 316.33 201.47 319.58 199.18C312.78 200.68 304.21 201.98 294.27 202.12C284.13 202.26 275.36 201.15 268.43 199.79V199.8Z" fill="#EACD07"/>
<path d="M258.5 83.43C258.88 82.15 261.81 71.56 255.86 61.89C250.33 52.88 239.41 48.44 229.3 51.63C228.86 55.18 228.45 62.45 231.63 70.71C237.29 85.45 249.77 91.36 251.94 92.34C252.54 91.03 253.33 89.54 254.41 88C255.81 86 257.27 84.51 258.51 83.42L258.5 83.43Z" fill="#FFDF00"/>
<path d="M324.64 81.83C324.26 80.55 321.33 69.96 327.28 60.29C332.82 51.28 343.74 46.84 353.85 50.03C354.29 53.58 354.7 60.85 351.52 69.11C345.86 83.85 333.38 89.76 331.21 90.74C330.61 89.43 329.82 87.94 328.74 86.4C327.34 84.4 325.88 82.91 324.64 81.82V81.83Z" fill="#FFDF00"/>
<path d="M264.34 137.81C271.68 137.81 277.63 131.86 277.63 124.52C277.63 117.18 271.68 111.23 264.34 111.23C257 111.23 251.05 117.18 251.05 124.52C251.05 131.86 257 137.81 264.34 137.81Z" fill="#313639"/>
<path d="M257.47 120.93C258.569 120.93 259.46 120.039 259.46 118.94C259.46 117.841 258.569 116.95 257.47 116.95C256.371 116.95 255.48 117.841 255.48 118.94C255.48 120.039 256.371 120.93 257.47 120.93Z" fill="white"/>
<path d="M322.48 137.81C329.82 137.81 335.77 131.86 335.77 124.52C335.77 117.18 329.82 111.23 322.48 111.23C315.14 111.23 309.19 117.18 309.19 124.52C309.19 131.86 315.14 137.81 322.48 137.81Z" fill="#313639"/>
<path d="M316.15 121.25C317.249 121.25 318.14 120.359 318.14 119.26C318.14 118.161 317.249 117.27 316.15 117.27C315.051 117.27 314.16 118.161 314.16 119.26C314.16 120.359 315.051 121.25 316.15 121.25Z" fill="white"/>
<path d="M287.14 163.89C287.14 168.2 284.09 170.72 283.7 171.03C283.31 170.72 280.26 168.2 280.26 163.89C280.26 159.58 283.31 157.06 283.7 156.75C284.09 157.06 287.14 159.58 287.14 163.89Z" fill="#EACD07"/>
<path d="M307.75 163.8C307.75 168.11 304.7 170.63 304.31 170.94C303.92 170.63 300.87 168.11 300.87 163.8C300.87 159.49 303.92 156.97 304.31 156.66C304.7 156.97 307.75 159.49 307.75 163.8Z" fill="#EACD07"/>
<path d="M303.16 348.36C300.84 349.84 300.66 351.74 298.45 356.54C294.16 365.88 291.38 366.23 291.7 370.05C292.15 375.42 297.98 378.87 299.68 379.87C301.03 380.67 307.58 384.54 314.21 381.92C321.68 378.96 324.64 369.58 323.62 362.48C322.73 356.25 318.48 349.68 312.16 347.75C311.27 347.48 306.74 346.09 303.16 348.36Z" fill="#D49740"/>
<path d="M278.53 226.31C277.19 227.32 273.92 229.8 273.04 234.06C272.59 236.26 272.97 237.96 273.52 240.38C274.12 243.06 274.66 245.45 276.62 246.58C277.39 247.02 278.45 247.08 280.56 247.18C282.7 247.28 284.37 247.36 286.4 246.82C287.13 246.63 289.68 246 291.53 244.2C294.95 240.85 294.69 235.69 294.39 229.77C294.04 222.94 293.96 221.92 293.2 221.42C291.94 220.61 289.64 221.47 285.09 223.21C281.77 224.48 280.11 225.12 278.53 226.31Z" fill="#D49740"/>
<path d="M302.1 255.3C295.53 262.46 294.35 262.19 293.91 264.55C293.19 268.38 295.56 273.23 299.06 274.59C301.29 275.46 303.9 274.59 309.1 272.87C311.15 272.19 312.17 271.85 312.8 271.29C316.27 268.14 314.71 261.02 312.67 256.89C311.84 255.2 309.87 251.23 307.12 251.21C305.62 251.21 304.79 252.37 302.1 255.3Z" fill="#D49740"/>
<path d="M271.7 270.73C270.47 272.39 270.42 273.61 269.61 278.04C267.81 287.88 266.87 288.33 267.67 290.42C269.17 294.32 274.27 297.51 277.81 296.39C279.87 295.74 280.39 293.95 284.22 282.67C287.8 272.13 288.65 269.83 287.2 268.05C285.06 265.41 279.83 266.38 278.85 266.56C278.05 266.71 274.14 267.43 271.69 270.74L271.7 270.73Z" fill="#D49740"/>
<path d="M293 297.79C292.68 298.04 292.32 298.41 291.03 301.01C288.95 305.23 287.91 307.33 287.63 309.05C286.78 314.41 291.14 322.42 296.75 322.64C301.73 322.83 305.33 316.79 306.58 313.52C307.09 312.19 309.67 305.48 305.69 300.65C302.41 296.67 295.92 295.46 293 297.79Z" fill="#D49740"/>
<path d="M275.45 328.85C277.7 330.75 277.34 332.29 280.46 341.73C282.31 347.34 282.98 348.43 282.25 349.78C280.68 352.7 274.5 353.45 270.44 351.39C262.03 347.13 261.22 330.11 266.32 326.88C268.84 325.28 273.1 326.88 275.45 328.85Z" fill="#D49740"/>
<path d="M253.17 377.8C255.02 373.35 261.16 367.67 267.36 370.1C273.62 372.56 275.39 381.49 273 384.12C270.76 386.6 265.98 382.26 257.27 384.46C255.96 384.79 254.23 385.35 253.17 384.46C251.66 383.2 252.35 379.75 253.17 377.79V377.8Z" fill="#D49740"/>
<path d="M266.62 86.0101C264.64 71.3201 261.37 65.5801 258.54 63.2001C257.89 62.6601 255.53 60.8401 255.49 58.3201C255.46 56.7101 256.31 55.0601 258.08 53.5801C260.95 51.1701 264.42 50.5001 268.19 50.6001C272.52 50.7201 275.69 53.0501 276.12 56.0101C276.34 57.4801 275.55 58.0001 274.67 60.5601C274.46 61.1701 272.86 66.0601 274.22 71.2601C275.25 75.2201 277.63 77.9501 279.3 79.4901C277.27 79.9201 274.5 80.7401 271.54 82.4201C269.47 83.5901 267.84 84.8701 266.61 85.9901L266.62 86.0101Z" fill="#FFDF00"/>
<path d="M261.24 66.24C260.22 64.85 259.25 63.86 258.54 63.21C257.67 62.41 257.23 62.14 256.68 61.37C256.5 61.12 255.58 59.82 255.5 58.34C255.38 56.12 257.15 54.39 258.09 53.6C260.96 51.19 264.43 50.52 268.2 50.62C272.53 50.74 275.7 53.07 276.13 56.03C276.29 57.15 275.55 57.61 274.68 60.58C274.18 62.28 273.94 63.7 273.82 64.6C272.56 65.27 270.62 66.1 268.14 66.49C265.19 66.95 262.74 66.59 261.24 66.24Z" fill="#D49740"/>
<path d="M318.92 86.0101C320.9 71.3201 324.17 65.5801 327 63.2001C327.65 62.6601 330.01 60.8401 330.05 58.3201C330.08 56.7101 329.23 55.0601 327.46 53.5801C324.59 51.1701 321.12 50.5001 317.35 50.6001C313.02 50.7201 309.85 53.0501 309.42 56.0101C309.2 57.4801 309.99 58.0001 310.87 60.5601C311.08 61.1701 312.68 66.0601 311.32 71.2601C310.29 75.2201 307.91 77.9501 306.24 79.4901C308.27 79.9201 311.04 80.7401 314 82.4201C316.07 83.5901 317.7 84.8701 318.93 85.9901L318.92 86.0101Z" fill="#FFDF00"/>
<path d="M324.3 66.24C325.32 64.85 326.29 63.86 327 63.21C327.87 62.41 328.31 62.14 328.86 61.37C329.04 61.12 329.96 59.82 330.04 58.34C330.16 56.12 328.39 54.39 327.45 53.6C324.58 51.19 321.11 50.52 317.34 50.62C313.01 50.74 309.84 53.07 309.41 56.03C309.25 57.15 309.99 57.61 310.86 60.58C311.36 62.28 311.6 63.7 311.72 64.6C312.98 65.27 314.92 66.1 317.4 66.49C320.35 66.95 322.8 66.59 324.3 66.24Z" fill="#D49740"/>
<path d="M258.63 108.91C258.68 109.6 258.95 114.48 255.24 117.87C253.23 119.71 250.98 120.26 249.89 120.44C251.38 121.47 253.56 123.26 255.49 126.04C257.64 129.13 258.54 132.11 258.95 133.95C258.84 133.62 257.24 128.34 260.6 124.56C262.16 122.81 264.08 122.17 265.05 121.92C263.94 121.02 262.51 119.63 261.26 117.64C259.06 114.12 258.69 110.67 258.62 108.91H258.63Z" fill="#A682ED"/>
<path d="M316.55 108.78C316.6 109.47 316.87 114.35 313.16 117.74C311.15 119.58 308.9 120.13 307.81 120.31C309.3 121.34 311.48 123.13 313.41 125.91C315.56 129 316.46 131.98 316.87 133.82C316.76 133.49 315.16 128.21 318.52 124.43C320.08 122.68 322 122.04 322.97 121.79C321.86 120.89 320.43 119.5 319.18 117.51C316.98 113.99 316.61 110.54 316.54 108.78H316.55Z" fill="#A682ED"/>
</g>
<defs>
<clipPath id="clip0_2194_3013">
<rect width="125.14" height="341" fill="white" transform="translate(229 49)"/>
</clipPath>
</defs>
</svg>
