<svg width="116" height="185" viewBox="0 0 116 185" fill="none" xmlns="http://www.w3.org/2000/svg">
<path d="M39.7656 184.043H88.4786C88.3387 175.004 87.3021 161.585 82.9224 146.461C77.7562 128.629 70.2009 116.223 65.0962 109.064C60.7992 114.752 55.9361 122.341 51.601 132.067C42.4515 152.592 40.2829 172.258 39.7656 184.043Z" fill="#4F7A54"/>
<path d="M65.9649 120.024C88.7132 120.024 107.154 101.244 107.154 78.078C107.154 54.9117 88.7132 36.1317 65.9649 36.1317C43.2165 36.1317 24.7754 54.9117 24.7754 78.078C24.7754 101.244 43.2165 120.024 65.9649 120.024Z" fill="#724000"/>
<path d="M25.7818 68.4091C24.3297 65.4137 21.453 64.0358 19.3861 64.7396C16.7277 65.6469 16.4924 69.6281 16.4776 69.963C16.3016 73.8424 19.5387 76.9883 22.2691 78.3175C23.2973 78.8178 24.2343 79.0531 24.9084 79.1739C25.1988 75.585 25.4892 71.996 25.7818 68.407V68.4091Z" fill="#724000"/>
<path d="M105.662 69.0939C106.979 66.0349 109.79 64.5319 111.886 65.1424C114.583 65.9289 114.996 69.8973 115.026 70.2301C115.375 74.0989 112.283 77.3848 109.614 78.8369C108.611 79.3817 107.682 79.6594 107.015 79.812C106.563 76.24 106.112 72.668 105.662 69.096V69.0939Z" fill="#724000"/>
<path d="M46.5687 82.7417C50.7531 82.7417 54.1452 79.3496 54.1452 75.1652C54.1452 70.9809 50.7531 67.5887 46.5687 67.5887C42.3843 67.5887 38.9922 70.9809 38.9922 75.1652C38.9922 79.3496 42.3843 82.7417 46.5687 82.7417Z" fill="#313639"/>
<path d="M89.1809 76.8389C89.8514 72.7085 87.0466 68.8167 82.9163 68.1463C78.7859 67.4759 74.8942 70.2806 74.2237 74.411C73.5533 78.5413 76.358 82.4331 80.4884 83.1035C84.6187 83.774 88.5105 80.9692 89.1809 76.8389Z" fill="#313639"/>
<path d="M42.8159 73.2467C43.3743 73.2467 43.8271 72.794 43.8271 72.2356C43.8271 71.6771 43.3743 71.2244 42.8159 71.2244C42.2574 71.2244 41.8047 71.6771 41.8047 72.2356C41.8047 72.794 42.2574 73.2467 42.8159 73.2467Z" fill="white"/>
<path d="M78.3061 73.0772C78.8646 73.0772 79.3173 72.6244 79.3173 72.066C79.3173 71.5075 78.8646 71.0548 78.3061 71.0548C77.7476 71.0548 77.2949 71.5075 77.2949 72.066C77.2949 72.6244 77.7476 73.0772 78.3061 73.0772Z" fill="white"/>
<path opacity="0.2" d="M22.7911 67.6778C21.7757 67.1796 20.2578 67.4361 19.4714 68.3625C18.6955 69.2783 18.9287 70.4973 19.147 71.6462C19.4523 73.2446 20.4698 75.9708 21.8181 75.9411C22.9861 75.9157 23.7578 73.8361 23.8744 73.5245C24.5782 71.6335 24.5739 68.5512 22.7911 67.6799V67.6778Z" fill="#432600"/>
<path opacity="0.2" d="M108.956 68C109.971 67.5018 111.489 67.7583 112.276 68.6847C113.051 69.6005 112.818 70.8195 112.6 71.9685C112.295 73.5668 111.277 76.293 109.929 76.2634C108.761 76.2379 107.989 74.1583 107.872 73.8467C107.169 71.9557 107.173 68.8734 108.956 68.0021V68Z" fill="#432600"/>
<path d="M25.9102 68.2608C32.7468 52.2408 48.5633 41.7982 65.9782 41.8067C83.408 41.8151 99.2245 52.2916 106.036 68.3371C101.9 49.593 85.1484 36.1317 65.9655 36.1317C46.8123 36.1317 30.0757 49.5527 25.9102 68.2608Z" fill="#432B12"/>
<path d="M26.8891 61.9032C27.4466 61.6234 26.8191 59.6328 27.0523 59.5756C27.3173 59.512 28.3369 61.0171 27.9193 62.1195C27.2918 63.773 23.7855 63.5801 23.8067 64.0146C23.8237 64.375 26.8785 64.5764 26.9993 64.0698C27.0756 63.756 25.9521 63.4783 25.278 62.2127C25.0214 61.7315 24.8264 61.0998 25.0066 60.9684C25.3097 60.7479 26.3761 62.164 26.8891 61.9054V61.9032Z" stroke="#432600" stroke-width="0.635967" stroke-miterlimit="10"/>
<path d="M45.481 40.2507C46.1042 40.2507 46.4413 38.1922 46.6723 38.2452C46.9373 38.3067 47.1705 40.1107 46.3014 40.9057C44.9976 42.1013 41.9535 40.3503 41.7754 40.7467C41.6291 41.0774 44.2663 42.6292 44.6033 42.2306C44.8132 41.9847 43.9334 41.2322 43.9016 39.797C43.8889 39.2522 43.9992 38.5993 44.2196 38.5632C44.5906 38.5017 44.9043 40.2464 45.4788 40.2485L45.481 40.2507Z" stroke="#432600" stroke-width="0.635967" stroke-miterlimit="10"/>
<path d="M82.1554 38.224C81.5322 38.224 81.1951 36.1656 80.9641 36.2186C80.6991 36.2801 80.4659 38.0841 81.3351 38.8791C82.6388 40.0747 85.6829 38.3237 85.861 38.7201C86.0073 39.0508 83.3701 40.6026 83.0331 40.204C82.8232 39.9581 83.703 39.2055 83.7348 37.7704C83.7475 37.2256 83.6373 36.5726 83.4168 36.5366C83.0458 36.4751 82.7321 38.2198 82.1576 38.2219L82.1554 38.224Z" stroke="#432600" stroke-width="0.635967" stroke-miterlimit="10"/>
<path d="M105.057 61.5513C104.5 61.2715 105.127 59.2809 104.894 59.2237C104.629 59.1601 103.609 60.6652 104.027 61.7675C104.654 63.421 108.161 63.2281 108.14 63.6627C108.123 64.0231 105.068 64.2245 104.947 63.7178C104.871 63.4041 105.994 63.1264 106.668 61.8608C106.925 61.3796 107.12 60.7479 106.94 60.6164C106.637 60.396 105.57 61.812 105.057 61.5534V61.5513Z" stroke="#432600" stroke-width="0.635967" stroke-miterlimit="10"/>
<path d="M27.8136 58.204C27.9238 58.6386 29.501 58.4033 29.6176 58.9248C29.6918 59.2576 29.1343 59.7176 28.6064 59.8639C27.856 60.0738 26.9402 59.7134 26.8744 59.2873C26.8236 58.9439 27.362 58.823 27.8136 58.204ZM27.8136 58.204C27.6419 57.5341 31.0273 55.5436 31.8541 56.3279C32.3628 56.8091 31.9389 58.3651 31.3495 58.4923C30.4041 58.6958 29.0579 55.2362 28.4622 55.4609C28.0785 55.605 28.6721 57.0254 27.8136 58.204Z" stroke="#432600" stroke-width="0.635967" stroke-miterlimit="10"/>
<path d="M47.8585 38.9702C47.9687 39.4048 49.5459 39.1695 49.6625 39.691C49.7367 40.0238 49.1792 40.4839 48.6513 40.6301C47.9009 40.84 46.9851 40.4796 46.9194 40.0535C46.8685 39.7101 47.407 39.5893 47.8585 38.9702ZM47.8585 38.9702C47.6868 38.3004 51.0722 36.3098 51.899 37.0941C52.4078 37.5754 51.9838 39.1314 51.3945 39.2586C50.449 39.4621 49.1029 36.0024 48.5072 36.2271C48.1235 36.3713 48.717 37.7916 47.8585 38.9702Z" stroke="#432600" stroke-width="0.635967" stroke-miterlimit="10"/>
<path d="M76.128 38.5505C76.2383 38.9851 77.8155 38.7498 77.9321 39.2713C78.0062 39.6041 77.4487 40.0641 76.9209 40.2104C76.1704 40.4203 75.2546 40.0599 75.1889 39.6338C75.138 39.2903 75.6765 39.1695 76.128 38.5505ZM76.128 38.5505C75.9563 37.8806 79.3418 35.89 80.1685 36.6744C80.6773 37.1556 80.2533 38.7116 79.664 38.8388C78.7185 39.0423 77.3724 35.5827 76.7767 35.8074C76.393 35.9515 76.9866 37.3719 76.128 38.5505Z" stroke="#432600" stroke-width="0.635967" stroke-miterlimit="10"/>
<path d="M36.7135 46.9071C37.3134 46.7375 37.0718 44.6643 37.3113 44.6516C37.5827 44.6388 38.3013 46.3093 37.6844 47.312C36.758 48.8171 33.3492 47.9692 33.2878 48.3995C33.2369 48.7578 36.1984 49.5273 36.4146 49.0525C36.5482 48.7578 35.4967 48.2744 35.0727 46.905C34.9116 46.3856 34.8395 45.7263 35.0409 45.6309C35.3801 45.4698 36.1602 47.0619 36.7135 46.905V46.9071Z" stroke="#432600" stroke-width="0.635967" stroke-miterlimit="10"/>
<path d="M39.8669 46.4026C40.3354 46.1164 40.7445 45.5228 40.5813 45.2239C40.3248 44.7554 38.8748 45.4126 38.6479 45.0247C38.2982 44.4268 41.0095 41.5862 42.0207 42.1141C42.6418 42.4384 42.6609 44.0495 42.1288 44.3336C41.2766 44.7894 39.0338 41.83 38.5229 42.2094C38.1943 42.4532 39.1546 43.6573 38.6501 45.0247C38.3851 45.7433 37.8996 46.0062 38.0438 46.322C38.224 46.7142 39.2034 46.8096 39.8669 46.4026Z" stroke="#432600" stroke-width="0.635967" stroke-miterlimit="10"/>
<path d="M33.5573 50.5957C34.1572 50.4261 33.9155 48.3529 34.1551 48.3402C34.4264 48.3274 35.1451 49.9979 34.5282 51.0006C33.6018 52.5057 30.193 51.6578 30.1315 52.0881C30.0806 52.4464 33.0421 53.2159 33.2583 52.741C33.3919 52.4464 32.3404 51.9631 31.9165 50.5936C31.7554 50.0742 31.6833 49.4149 31.8847 49.3195C32.2238 49.1584 33.004 50.7505 33.5573 50.5936V50.5957Z" stroke="#432600" stroke-width="0.635967" stroke-miterlimit="10"/>
<path d="M32.6041 53.1544C33.2041 52.9848 32.9624 50.9116 33.202 50.8989C33.4733 50.8862 34.1919 52.5566 33.5751 53.5593C32.6487 55.0645 29.2399 54.2165 29.1784 54.6468C29.1275 55.0051 32.089 55.7746 32.3052 55.2998C32.4388 55.0051 31.3873 54.5218 30.9633 53.1523C30.8022 52.6329 30.7301 51.9737 30.9315 51.8783C31.2707 51.7172 32.0508 53.3092 32.6041 53.1523V53.1544Z" stroke="#432600" stroke-width="0.635967" stroke-miterlimit="10"/>
<path d="M44.5474 44.7237C45.1706 44.7237 45.5077 42.6652 45.7388 42.7182C46.0038 42.7797 46.2369 44.5837 45.3678 45.3787C44.0641 46.5743 41.0199 44.8233 40.8418 45.2197C40.6955 45.5504 43.3327 47.1022 43.6698 46.7036C43.8796 46.4577 42.9999 45.7052 42.9681 44.27C42.9553 43.7252 43.0656 43.0723 43.286 43.0362C43.657 42.9747 43.9708 44.7194 44.5453 44.7215L44.5474 44.7237Z" stroke="#432600" stroke-width="0.635967" stroke-miterlimit="10"/>
<path d="M46.9229 43.4432C47.0332 43.8778 48.6104 43.6425 48.727 44.164C48.8012 44.4968 48.2436 44.9568 47.7158 45.1031C46.9653 45.313 46.0495 44.9526 45.9838 44.5265C45.9329 44.1831 46.4714 44.0622 46.9229 43.4432ZM46.9229 43.4432C46.7512 42.7733 50.1367 40.7827 50.9634 41.5671C51.4722 42.0483 51.0482 43.6043 50.4589 43.7315C49.5134 43.935 48.1673 40.4754 47.5716 40.7001C47.1879 40.8442 47.7815 42.2646 46.9229 43.4432Z" stroke="#432600" stroke-width="0.635967" stroke-miterlimit="10"/>
<path d="M35.7799 51.3801C36.3798 51.2105 36.1382 49.1372 36.3777 49.1245C36.6491 49.1118 37.3677 50.7823 36.7508 51.785C35.8244 53.2901 32.4156 52.4422 32.3542 52.8725C32.3033 53.2308 35.2648 54.0003 35.481 53.5254C35.6146 53.2308 34.5631 52.7474 34.1391 51.378C33.978 50.8586 33.9059 50.1993 34.1073 50.1039C34.4465 49.9428 35.2266 51.5348 35.7799 51.378V51.3801Z" stroke="#432600" stroke-width="0.635967" stroke-miterlimit="10"/>
<path d="M38.9313 50.8777C39.3998 50.5915 39.809 49.9979 39.6457 49.699C39.3892 49.2305 37.9392 49.8877 37.7124 49.4997C37.3626 48.9019 40.074 46.0613 41.0852 46.5891C41.7063 46.9135 41.7254 48.5246 41.1933 48.8086C40.3411 49.2644 38.0982 46.3051 37.5873 46.6845C37.2588 46.9283 38.2191 48.1324 37.7145 49.4997C37.4495 50.2184 36.9641 50.4812 37.1082 50.7971C37.2884 51.1893 38.2678 51.2847 38.9313 50.8777Z" stroke="#432600" stroke-width="0.635967" stroke-miterlimit="10"/>
<path d="M33.4596 55.3104C34.0595 55.1408 33.8179 53.0675 34.0574 53.0548C34.3287 53.0421 35.0474 54.7125 34.4305 55.7153C33.5041 57.2204 30.0953 56.3724 30.0339 56.8028C29.983 57.161 32.9445 57.9305 33.1607 57.4557C33.2942 57.161 32.2428 56.6777 31.8188 55.3082C31.6577 54.7889 31.5856 54.1296 31.787 54.0342C32.1262 53.8731 32.9063 55.4651 33.4596 55.3082V55.3104Z" stroke="#432600" stroke-width="0.635967" stroke-miterlimit="10"/>
<path d="M30.2838 60.5868C30.8838 60.4172 30.6421 58.3439 30.8816 58.3312C31.153 58.3185 31.8716 59.989 31.2547 60.9917C30.3283 62.4968 26.9195 61.6488 26.8581 62.0792C26.8072 62.4374 29.7687 63.2069 29.9849 62.7321C30.1185 62.4374 29.067 61.9541 28.643 60.5846C28.4819 60.0653 28.4098 59.406 28.6112 59.3106C28.9504 59.1495 29.7305 60.7415 30.2838 60.5846V60.5868Z" stroke="#432600" stroke-width="0.635967" stroke-miterlimit="10"/>
<path d="M55.5748 40.1362C52.1555 42.2752 50.9577 42.4638 50.5952 42.0844C49.9783 41.4378 51.3796 38.7349 52.2551 38.8367C53.1879 38.9448 52.9419 42.1649 54.2753 42.5168C55.3162 42.7924 56.974 41.2279 56.7281 40.4245C56.514 39.7165 54.7311 39.2713 48.7891 39.92" stroke="#432600" stroke-width="0.635967" stroke-miterlimit="10"/>
<path d="M68.567 38.277C65.1476 40.416 63.9499 40.6047 63.5874 40.2252C62.9705 39.5786 64.3718 36.8758 65.2473 36.9775C66.18 37.0856 65.9341 40.3058 67.2675 40.6577C68.3084 40.9332 69.9662 39.3688 69.7203 38.5653C69.5061 37.8573 67.7233 37.4121 61.7812 38.0608" stroke="#432600" stroke-width="0.635967" stroke-miterlimit="10"/>
<path d="M89.7906 44.7639C85.9345 45.9468 84.7283 45.8217 84.4761 45.3596C84.0478 44.5774 86.0978 42.326 86.9182 42.6504C87.7916 42.9959 86.7231 46.0443 87.9188 46.7269C88.8536 47.2611 90.8569 46.1779 90.8294 45.3384C90.8039 44.6007 89.197 43.7082 83.291 42.8009" stroke="#432600" stroke-width="0.635967" stroke-miterlimit="10"/>
<path d="M83.1226 42.0653C79.2666 43.2482 78.0603 43.1231 77.8081 42.661C77.3798 41.8787 79.4298 39.6274 80.2502 39.9517C81.1236 40.2973 80.0551 43.3457 81.2508 44.0283C82.1856 44.5625 84.189 43.4792 84.1614 42.6398C84.136 41.902 82.5291 41.0096 76.623 40.1022" stroke="#432600" stroke-width="0.635967" stroke-miterlimit="10"/>
<path d="M67.2651 36.4942C64.5325 39.4621 63.4302 39.9623 62.9787 39.691C62.2134 39.231 62.8472 36.2547 63.7206 36.119C64.6491 35.977 65.2639 39.1462 66.644 39.1335C67.7209 39.1229 68.9037 37.1768 68.4564 36.4666C68.0621 35.8413 66.2242 35.8837 60.668 38.0799" stroke="#432600" stroke-width="0.635967" stroke-miterlimit="10"/>
<path d="M60.1479 37.5308C57.4153 40.4987 56.313 40.999 55.8615 40.7276C55.0962 40.2676 55.73 37.2913 56.6034 37.1556C57.5319 37.0136 58.1467 40.1828 59.5267 40.1701C60.6036 40.1595 61.7866 38.2134 61.3393 37.5033C60.945 36.8779 59.107 36.9203 53.5508 39.1165" stroke="#432600" stroke-width="0.635967" stroke-miterlimit="10"/>
<path d="M43.4434 45.597C45.0143 43.5407 46.5152 42.254 47.556 41.4844C48.1687 41.0308 48.794 40.628 49.5763 40.6916C50.8122 40.7891 51.9463 42.0038 51.7407 42.5677C51.552 43.0892 50.2292 43.0426 49.0696 43.0002C47.963 42.9599 45.1584 42.7161 45.1012 42.061C44.991 40.8294 54.7615 39.7143 54.7 37.9485C54.6788 37.3231 53.4324 36.7634 53.2564 36.9373C52.9851 37.2065 55.194 39.3031 54.7721 39.8966C54.2846 40.5814 50.3013 39.2395 50.3691 38.2368C50.4518 37.0051 56.6991 35.4088 58.236 37.5881C58.8678 38.4827 58.6939 40.0047 58.3081 40.1129C57.5852 40.3185 55.2088 35.8392 56.1437 34.917C56.6419 34.4252 57.7485 35.271 61.1954 35.8561C62.8934 36.1444 64.1484 36.3564 64.2989 36.0003C64.5194 35.483 62.5097 33.5391 61.1233 33.98C59.5376 34.4824 59.0267 38.0227 60.1842 38.9596C61.5558 40.0683 65.5603 37.7683 65.3801 36.9394C65.1829 36.0342 59.7157 35.6696 55.1325 37.8785C53.1271 38.8452 53.2924 39.337 50.9478 40.6216C45.7838 43.4453 41.7645 42.8115 41.7115 43.7252C41.6649 44.5116 44.5691 46.1016 46.8353 45.0246C48.705 44.1343 49.7353 41.6222 48.9276 39.108" stroke="#432600" stroke-width="0.635967" stroke-miterlimit="10"/>
<path d="M29.1748 61.6552C30.0058 59.2046 31.017 57.5066 31.7568 56.4424C32.1914 55.817 32.6556 55.2361 33.4167 55.0432C34.6187 54.7401 36.0814 55.5287 36.0687 56.1286C36.0559 56.6819 34.7883 57.0614 33.6774 57.3921C32.6175 57.7079 29.8807 58.3715 29.6157 57.7715C29.1176 56.6395 38.019 52.4612 37.3957 50.8056C37.1753 50.2205 35.8164 50.0869 35.7062 50.3095C35.5345 50.6529 38.2988 51.9334 38.0889 52.6287C37.8451 53.4321 33.6435 53.4364 33.387 52.4633C33.0712 51.2698 38.4811 47.7593 40.6328 49.3344C41.5168 49.9809 41.839 51.4776 41.5083 51.7044C40.8893 52.1284 37.2049 48.6454 37.7964 47.4731C38.1122 46.8477 39.4287 47.295 42.882 46.7481C44.5843 46.4768 45.8393 46.2775 45.8689 45.8938C45.9113 45.3341 43.3865 44.1343 42.2142 44.995C40.8723 45.9786 41.5189 49.4955 42.918 50.0127C44.5716 50.6254 47.6306 47.1636 47.196 46.4365C46.719 45.6415 41.4235 47.0449 37.7858 50.6021C36.1938 52.1581 36.5096 52.5736 34.6971 54.5387C30.7053 58.8654 26.6945 59.548 26.9362 60.432C27.1439 61.1909 30.4022 61.7718 32.2062 60.025C33.6944 58.5835 33.8661 55.8721 32.2974 53.748" stroke="#432600" stroke-width="0.635967" stroke-miterlimit="10"/>
<path d="M88.9913 45.1519C87.4205 43.0956 85.9196 41.8088 84.8788 41.0393C84.2661 40.5856 83.6408 40.1828 82.8585 40.2464C81.6226 40.3439 80.4885 41.5586 80.6941 42.1225C80.8828 42.644 82.2056 42.5974 83.3652 42.555C84.4718 42.5147 87.2764 42.2709 87.3336 41.6159C87.4438 40.3842 77.6733 39.2692 77.7347 37.5033C77.7559 36.8779 79.0024 36.3183 79.1784 36.4921C79.4497 36.7613 77.2408 38.8579 77.6627 39.4515C78.1502 40.1362 82.1335 38.7943 82.0657 37.7916C81.983 36.5599 75.7357 34.9637 74.1988 37.1429C73.567 38.0375 73.7409 39.5596 74.1267 39.6677C74.8496 39.8733 77.226 35.394 76.2911 34.4718C75.7929 33.98 74.6863 34.8259 71.2394 35.411C69.5413 35.6993 68.2864 35.9113 68.1359 35.5551C67.9154 35.0379 69.925 33.0939 71.3115 33.5349C72.8971 34.0373 73.408 37.5775 72.2506 38.5145C70.879 39.6232 66.8745 37.3231 67.0547 36.4942C67.2519 35.589 72.7191 35.2244 77.3023 37.4333C79.3077 38.4 79.1423 38.8918 81.4869 40.1765C86.651 43.0002 90.6703 42.3663 90.7233 43.28C90.7699 44.0665 87.8657 45.6564 85.5995 44.5795C83.7298 43.6891 82.6995 41.1771 83.5072 38.6629" stroke="#432600" stroke-width="0.635967" stroke-miterlimit="10"/>
<path d="M103.258 61.21C102.427 58.7594 101.416 57.0614 100.676 55.9972C100.242 55.3718 99.7775 54.791 99.0164 54.5981C97.8144 54.2949 96.3517 55.0835 96.3644 55.6835C96.3771 56.2368 97.6449 56.6162 98.7557 56.9469C99.8156 57.2628 102.552 57.9263 102.817 57.3264C103.316 56.1944 94.4141 52.0161 95.0374 50.3604C95.2578 49.7753 96.6167 49.6418 96.7269 49.8644C96.8986 50.2078 94.1343 51.4882 94.3442 52.1835C94.588 52.987 98.7896 52.9912 99.0461 52.0182C99.362 50.8247 93.952 47.3141 91.8003 48.8892C90.9163 49.5358 90.5941 51.0324 90.9248 51.2593C91.5438 51.6832 95.2282 48.2003 94.6367 47.028C94.3208 46.4026 93.0044 46.8499 89.5511 46.3029C87.8488 46.0316 86.5939 45.8323 86.5642 45.4486C86.5218 44.889 89.0466 43.6891 90.2189 44.5498C91.5608 45.5334 90.9142 49.0503 89.5151 49.5676C87.8616 50.1802 84.8025 46.7184 85.2371 45.9913C85.7141 45.1964 91.0096 46.5997 94.6473 50.1569C96.2394 51.7129 95.9235 52.1284 97.736 54.0935C101.728 58.4202 105.739 59.1028 105.497 59.9868C105.289 60.7458 102.031 61.3266 100.227 59.5798C98.7387 58.1383 98.567 55.427 100.136 53.3028" stroke="#432600" stroke-width="0.635967" stroke-miterlimit="10"/>
<path d="M78.9311 44.9356C76.8027 43.4623 74.9775 42.7012 73.7501 42.29C73.0293 42.0483 72.3086 41.8575 71.5836 42.1564C70.4388 42.6292 69.7329 44.1343 70.1018 44.6091C70.4409 45.048 71.6853 44.5943 72.7749 44.1979C73.8158 43.8205 76.4085 42.7224 76.2622 42.0822C75.9887 40.8781 66.3496 42.8242 65.8641 41.1262C65.6924 40.5262 66.7036 39.6083 66.9262 39.7207C67.2675 39.8945 65.8111 42.5698 66.3962 43.0023C67.0703 43.5026 70.4473 41.0011 70.0721 40.0662C69.6142 38.9194 63.1782 39.3264 62.3875 41.8702C62.0631 42.9175 62.6949 44.3102 63.0976 44.2954C63.8481 44.2678 64.73 39.2734 63.5577 38.6862C62.9323 38.3724 62.1416 39.5172 59.0402 41.1346C57.5139 41.9317 56.3861 42.5189 56.1317 42.2285C55.7628 41.8045 57.075 39.337 58.5293 39.3285C60.1934 39.3179 61.7706 42.5295 60.9565 43.776C59.992 45.2536 55.4745 44.2975 55.3918 43.4538C55.3007 42.5316 60.3884 40.5008 65.4295 41.1898C67.6342 41.4908 67.6278 42.0123 70.2565 42.5104C76.0396 43.6064 79.6667 41.7642 79.9995 42.6164C80.2857 43.3499 78.0132 45.7581 75.5244 45.4295C73.4703 45.1582 71.7171 43.0849 71.7108 40.4436" stroke="#432600" stroke-width="0.635967" stroke-miterlimit="10"/>
<path d="M75.7828 39.3285C71.9267 40.5114 70.7205 40.3863 70.4682 39.9242C70.04 39.1419 72.0899 36.8906 72.9103 37.215C73.7837 37.5605 72.7153 40.6089 73.9109 41.2915C74.8458 41.8257 76.8491 40.7424 76.8216 39.903C76.7961 39.1653 75.1892 38.2728 69.2832 37.3655" stroke="#432600" stroke-width="0.635967" stroke-miterlimit="10"/>
<path d="M101.354 59.0095C100.523 56.559 99.5118 54.8609 98.772 53.7967C98.3374 53.1714 97.8732 52.5905 97.1121 52.3976C95.9101 52.0945 94.4474 52.8831 94.4601 53.483C94.4729 54.0363 95.7406 54.4158 96.8514 54.7465C97.9113 55.0623 100.648 55.7258 100.913 55.1259C101.411 53.9939 92.5098 49.8156 93.1331 48.16C93.3535 47.5749 94.7124 47.4413 94.8226 47.6639C94.9943 48.0073 92.23 49.2877 92.4399 49.9831C92.6837 50.7865 96.8853 50.7907 97.1418 49.8177C97.4577 48.6242 92.0477 45.1137 89.896 46.6887C89.012 47.3353 88.6898 48.832 89.0205 49.0588C89.6395 49.4828 93.3239 45.9998 92.7324 44.8275C92.4166 44.2021 91.1001 44.6494 87.6468 44.1025C85.9445 43.8311 84.6896 43.6319 84.6599 43.2482C84.6175 42.6885 87.1423 41.4887 88.3146 42.3493C89.6565 43.333 89.0099 46.8499 87.6108 47.3671C85.9572 47.9798 82.8982 44.518 83.3328 43.7909C83.8098 42.9959 89.1053 44.3993 92.743 47.9564C94.3351 49.5124 94.0192 49.9279 95.8317 51.8931C99.8235 56.2198 103.834 56.9024 103.593 57.7864C103.385 58.5453 100.127 59.1261 98.3226 57.3794C96.8344 55.9378 96.6627 53.2265 98.2314 51.1024" stroke="#432600" stroke-width="0.635967" stroke-miterlimit="10"/>
<path d="M54.7585 45.5398C54.7628 45.2345 50.8325 45.2303 50.6163 44.058C50.4912 43.3817 51.6932 42.8093 51.5109 42.3642C51.2226 41.6625 48.0067 42.5062 47.9749 42.3642C47.9452 42.237 50.3301 41.0435 53.0987 41.5713C54.6822 41.8724 56.3654 42.733 56.2743 43.2312C56.2064 43.6064 55.1656 43.5704 53.459 43.8799C50.824 44.359 47.9834 45.4105 48.047 45.8281C48.1423 46.4513 54.7522 45.9362 54.7585 45.5398Z" stroke="#432600" stroke-width="0.635967" stroke-miterlimit="10"/>
<path d="M27.9594 64.1418C27.8915 61.8629 27.7919 52.0754 33.5156 48.9867C35.8115 47.7487 38.686 47.7 38.7835 48.0476C38.9828 48.7641 27.6266 51.8677 27.8449 52.7453C27.9721 53.2583 32.1652 53.5254 34.9592 51.2232C38.5079 48.2999 38.2451 42.5105 38.1348 42.4914C37.9695 42.4617 36.8672 55.0242 34.6709 55.0475C33.1955 55.0645 30.9548 49.4213 32.8542 46.8562C33.8739 45.4783 35.2009 46.1885 41.3762 44.0304C42.4764 43.6467 44.1744 43.015 46.1459 41.8406C47.5811 40.9863 48.3739 40.3121 48.3824 40.3249C48.4015 40.3503 44.8634 42.7733 40.878 45.1603C37.8211 46.9898 36.8884 47.0619 36.3308 46.676C35.4447 46.0592 35.4638 44.0961 36.246 42.8857C37.4523 41.0181 40.3332 41.1558 41.232 41.1982C41.4377 41.2088 42.2474 41.2661 43.4749 41.6243C47.3479 42.7542 48.2467 45.1179 50.5468 44.9441C52.1304 44.8233 53.2221 43.5874 53.1458 43.4284C52.9847 43.0998 47.598 46.9262 43.3307 45.1603C41.9146 44.5731 41.0116 43.5322 40.5155 42.8518" stroke="#432600" stroke-width="0.635967" stroke-miterlimit="10"/>
<path d="M103.943 62.5498C103.581 60.2985 101.838 50.6678 95.6332 48.7112C93.1466 47.9268 90.3123 48.4207 90.2826 48.7811C90.2211 49.5231 101.959 50.4325 101.91 51.3356C101.883 51.8634 97.8146 52.9149 94.6368 51.1787C90.6006 48.974 89.7696 43.2397 89.8756 43.1994C90.0324 43.138 93.4794 55.2701 95.6395 54.88C97.0917 54.6172 98.2301 48.6539 95.8833 46.4937C94.622 45.332 93.4518 46.2796 86.9819 45.3214C85.8308 45.1519 84.0416 44.8508 81.8857 44.0686C80.3148 43.4983 79.4097 42.9874 79.4033 43.0002C79.3906 43.0298 83.3209 44.7427 87.6836 46.3369C91.0288 47.56 91.9615 47.4541 92.4343 46.9707C93.1889 46.1991 92.7989 44.2742 91.8047 43.2334C90.2699 41.6265 87.4653 42.3027 86.5897 42.5126C86.3905 42.5613 85.604 42.7712 84.4677 43.3521C80.8766 45.19 80.4378 47.6809 78.1462 47.9438C76.569 48.1239 75.2632 47.1149 75.3098 46.9432C75.4073 46.5891 81.4172 49.3344 85.2754 46.7969C86.5558 45.9553 87.2469 44.7618 87.6052 43.9986" stroke="#432600" stroke-width="0.635967" stroke-miterlimit="10"/>
<path d="M61.3569 40.4881C61.5965 41.0562 61.8805 41.6095 62.0777 41.5713C62.3045 41.5268 62.2239 40.7467 62.4381 39.7673C62.4699 39.621 63.0126 37.234 63.9538 37.0962C65.1091 36.9267 66.6376 40.187 66.2623 40.4881C66.0843 40.6322 65.5776 40.009 64.2421 39.1886C61.8784 37.7407 60.0129 37.5775 60.0574 37.3125C60.1019 37.039 62.084 37.2976 65.3253 37.2404C68.13 37.1895 69.775 36.9415 69.8005 37.0962C69.8471 37.3951 63.7651 38.4106 63.8096 38.7561C63.8372 38.9702 66.2242 38.8918 71.8928 38.3957" stroke="#432600" stroke-width="0.635967" stroke-miterlimit="10"/>
<path d="M56.1011 39.9136C53.6971 39.3773 52.2429 37.6813 52.4209 36.4497C52.669 34.7368 56.1456 33.3949 57.6168 34.7177C58.6386 35.6378 58.734 37.887 57.2564 39.6974" stroke="#432600" stroke-width="0.635967" stroke-miterlimit="10"/>
<path d="M68.3189 38.8452C66.4449 37.2468 65.9531 35.0675 66.6865 34.0627C67.7062 32.6636 71.4075 33.1045 72.0901 34.9615C72.5629 36.2526 71.5962 38.2855 69.4424 39.195" stroke="#432600" stroke-width="0.635967" stroke-miterlimit="10"/>
<path d="M56.2305 39.2564C58.6345 39.7927 60.0887 41.4887 59.9107 42.7203C59.6626 44.4332 56.186 45.7751 54.7148 44.4523C53.693 43.5322 53.5976 41.283 55.0752 39.4726" stroke="#432600" stroke-width="0.635967" stroke-miterlimit="10"/>
<path d="M103.692 66.7747C103.134 66.4949 103.762 64.5043 103.529 64.4471C103.264 64.3835 102.244 65.8886 102.662 66.9909C103.289 68.6445 106.795 68.4516 106.774 68.8861C106.757 69.2465 103.703 69.4479 103.582 68.9413C103.505 68.6275 104.629 68.3498 105.303 67.0842C105.56 66.603 105.755 65.9713 105.574 65.8398C105.271 65.6194 104.205 67.0355 103.692 66.7768V66.7747Z" stroke="#432600" stroke-width="0.635967" stroke-miterlimit="10"/>
<path d="M85.0988 45.1222C84.4756 45.1222 84.1385 43.0637 83.9074 43.1167C83.6424 43.1782 83.4093 44.9822 84.2784 45.7772C85.5821 46.9728 88.6263 45.2218 88.8044 45.6182C88.9506 45.9489 86.3135 47.5007 85.9764 47.1021C85.7666 46.8562 86.6463 46.1037 86.6781 44.6685C86.6909 44.1237 86.5806 43.4708 86.3602 43.4347C85.9892 43.3732 85.6754 45.1179 85.1009 45.12L85.0988 45.1222Z" stroke="#432600" stroke-width="0.635967" stroke-miterlimit="10"/>
<path d="M48.4282 43.0955C49.0515 43.0955 49.3885 41.0371 49.6196 41.0901C49.8846 41.1516 50.1178 42.9556 49.2486 43.7506C47.9449 44.9462 44.9007 43.1952 44.7227 43.5916C44.5764 43.9223 47.2135 45.4741 47.5506 45.0755C47.7605 44.8296 46.8807 44.077 46.8489 42.6419C46.8362 42.0971 46.9464 41.4441 47.1669 41.4081C47.5379 41.3466 47.8516 43.0913 48.4261 43.0934L48.4282 43.0955Z" stroke="#432600" stroke-width="0.635967" stroke-miterlimit="10"/>
<path d="M25.5238 66.4207C26.0813 66.1409 25.4539 64.1503 25.687 64.093C25.952 64.0294 26.9717 65.5346 26.5541 66.6369C25.9266 68.2904 22.4203 68.0975 22.4415 68.5321C22.4585 68.8925 25.5132 69.0939 25.634 68.5872C25.7104 68.2735 24.5868 67.9958 23.9127 66.7302C23.6562 66.249 23.4612 65.6172 23.6413 65.4858C23.9445 65.2653 25.0108 66.6814 25.5238 66.4228V66.4207Z" stroke="#432600" stroke-width="0.635967" stroke-miterlimit="10"/>
<path d="M102.768 63.0734C102.657 63.508 101.08 63.2727 100.964 63.7942C100.889 64.127 101.447 64.587 101.975 64.7333C102.725 64.9431 103.641 64.5828 103.707 64.1567C103.758 63.8133 103.219 63.6924 102.768 63.0734ZM102.768 63.0734C102.939 62.4035 99.5539 60.4129 98.7271 61.1973C98.2184 61.6785 98.6423 63.2345 99.2317 63.3617C100.177 63.5652 101.523 60.1056 102.119 60.3303C102.503 60.4744 101.909 61.8947 102.768 63.0734Z" stroke="#432600" stroke-width="0.635967" stroke-miterlimit="10"/>
<path d="M82.7247 43.8417C82.6145 44.2763 81.0372 44.041 80.9207 44.5625C80.8465 44.8953 81.404 45.3553 81.9318 45.5016C82.6823 45.7115 83.5981 45.3511 83.6638 44.925C83.7147 44.5816 83.1762 44.4607 82.7247 43.8417ZM82.7247 43.8417C82.8964 43.1719 79.5109 41.1813 78.6842 41.9656C78.1754 42.4469 78.5994 44.0028 79.1887 44.13C80.1342 44.3336 81.4803 40.8739 82.076 41.0986C82.4597 41.2428 81.8661 42.6631 82.7247 43.8417Z" stroke="#432600" stroke-width="0.635967" stroke-miterlimit="10"/>
<path d="M54.4552 43.4199C54.3449 43.8545 52.7677 43.6192 52.6511 44.1407C52.5769 44.4735 53.1344 44.9335 53.6623 45.0798C54.4127 45.2896 55.3285 44.9293 55.3943 44.5032C55.4451 44.1597 54.9067 44.0389 54.4552 43.4199ZM54.4552 43.4199C54.6269 42.75 51.2414 40.7594 50.4146 41.5438C49.9059 42.025 50.3298 43.581 50.9192 43.7082C51.8646 43.9117 53.2108 40.452 53.8065 40.6768C54.1902 40.8209 53.5966 42.2412 54.4552 43.4199Z" stroke="#432600" stroke-width="0.635967" stroke-miterlimit="10"/>
<path d="M93.8665 51.7765C93.2666 51.6069 93.5083 49.5337 93.2687 49.5209C92.9974 49.5082 92.2787 51.1787 92.8956 52.1814C93.822 53.6865 97.2308 52.8386 97.2923 53.2689C97.3431 53.6272 94.3817 54.3967 94.1654 53.9218C94.0319 53.6272 95.0833 53.1438 95.5073 51.7744C95.6684 51.255 95.7405 50.5957 95.5391 50.5003C95.1999 50.3392 94.4198 51.9313 93.8665 51.7744V51.7765Z" stroke="#432600" stroke-width="0.635967" stroke-miterlimit="10"/>
<path d="M90.7178 51.2741C90.2493 50.9879 89.8402 50.3943 90.0034 50.0954C90.2599 49.6269 91.7099 50.2841 91.9367 49.8962C92.2865 49.2983 89.5752 46.4577 88.564 46.9855C87.9429 47.3099 87.9238 48.921 88.4559 49.2051C89.3081 49.6608 91.5509 46.7015 92.0618 47.0809C92.3904 47.3247 91.4301 48.5288 91.9346 49.8962C92.1996 50.6148 92.6851 50.8777 92.5409 51.1935C92.3607 51.5857 91.3813 51.6811 90.7178 51.2741Z" stroke="#432600" stroke-width="0.635967" stroke-miterlimit="10"/>
<path d="M97.0228 55.4672C96.4228 55.2977 96.6645 53.2244 96.425 53.2117C96.1536 53.199 95.435 54.8694 96.0519 55.8721C96.9783 57.3773 100.387 56.5293 100.449 56.9597C100.499 57.3179 97.5379 58.0874 97.3217 57.6126C97.1881 57.3179 98.2396 56.8346 98.6636 55.4651C98.8247 54.9458 98.8968 54.2865 98.6954 54.1911C98.3562 54.03 97.5761 55.622 97.0228 55.4651V55.4672Z" stroke="#432600" stroke-width="0.635967" stroke-miterlimit="10"/>
<path d="M97.9798 58.0238C97.3799 57.8542 97.6216 55.781 97.382 55.7683C97.1107 55.7555 96.392 57.426 97.0089 58.4287C97.9353 59.9338 101.344 59.0859 101.406 59.5162C101.456 59.8745 98.4949 60.644 98.2787 60.1692C98.1452 59.8745 99.1966 59.3912 99.6206 58.0217C99.7817 57.5023 99.8538 56.843 99.6524 56.7476C99.3132 56.5865 98.5331 58.1786 97.9798 58.0217V58.0238Z" stroke="#432600" stroke-width="0.635967" stroke-miterlimit="10"/>
<path d="M86.0324 49.5951C85.4092 49.5951 85.0721 47.5367 84.841 47.5897C84.576 47.6512 84.3428 49.4552 85.212 50.2502C86.5157 51.4458 89.5599 49.6948 89.738 50.0912C89.8842 50.4219 87.2471 51.9737 86.91 51.5751C86.7002 51.3292 87.5799 50.5766 87.6117 49.1415C87.6244 48.5967 87.5142 47.9437 87.2937 47.9077C86.9227 47.8462 86.609 49.5909 86.0345 49.593L86.0324 49.5951Z" stroke="#432600" stroke-width="0.635967" stroke-miterlimit="10"/>
<path d="M83.6602 48.3147C83.55 48.7493 81.9728 48.514 81.8562 49.0355C81.782 49.3683 82.3395 49.8283 82.8674 49.9746C83.6178 50.1844 84.5336 49.8241 84.5993 49.398C84.6502 49.0545 84.1117 48.9337 83.6602 48.3147ZM83.6602 48.3147C83.8319 47.6448 80.4465 45.6542 79.6197 46.4386C79.1109 46.9198 79.5349 48.4758 80.1242 48.603C81.0697 48.8065 82.4158 45.3469 83.0115 45.5716C83.3952 45.7157 82.8016 47.136 83.6602 48.3147Z" stroke="#432600" stroke-width="0.635967" stroke-miterlimit="10"/>
<path d="M94.8021 56.2516C94.2021 56.082 94.4438 54.0087 94.2043 53.996C93.9329 53.9833 93.2143 55.6538 93.8312 56.6565C94.7576 58.1616 98.1663 57.3136 98.2278 57.744C98.2787 58.1022 95.3172 58.8718 95.101 58.3969C94.9674 58.1022 96.0189 57.6189 96.4429 56.2494C96.604 55.7301 96.6761 55.0708 96.4747 54.9754C96.1355 54.8143 95.3554 56.4063 94.8021 56.2494V56.2516Z" stroke="#432600" stroke-width="0.635967" stroke-miterlimit="10"/>
<path d="M91.6534 55.747C91.1849 55.4609 90.7757 54.8673 90.939 54.5684C91.1955 54.0999 92.6455 54.7571 92.8723 54.3691C93.2221 53.7713 90.5107 50.9307 89.4996 51.4585C88.8784 51.7828 88.8593 53.394 89.3914 53.678C90.2436 54.1338 92.4865 51.1744 92.9974 51.5539C93.326 51.7977 92.3656 53.0018 92.8702 54.3691C93.1352 55.0878 93.6206 55.3506 93.4765 55.6665C93.2963 56.0587 92.3169 56.1541 91.6534 55.747Z" stroke="#432600" stroke-width="0.635967" stroke-miterlimit="10"/>
<path d="M97.1224 60.1797C96.5224 60.0102 96.7641 57.9369 96.5246 57.9242C96.2532 57.9115 95.5346 59.5819 96.1515 60.5846C97.0779 62.0898 100.487 61.2418 100.548 61.6721C100.599 62.0304 97.6375 62.7999 97.4213 62.3251C97.2877 62.0304 98.3392 61.5471 98.7632 60.1776C98.9243 59.6582 98.9964 58.999 98.795 58.9036C98.4558 58.7425 97.6757 60.3345 97.1224 60.1776V60.1797Z" stroke="#432600" stroke-width="0.635967" stroke-miterlimit="10"/>
<path d="M100.302 65.4583C99.7021 65.2887 99.9438 63.2154 99.7043 63.2027C99.4329 63.19 98.7143 64.8605 99.3312 65.8632C100.258 67.3683 103.666 66.5203 103.728 66.9507C103.779 67.3089 100.817 68.0784 100.601 67.6036C100.467 67.3089 101.519 66.8256 101.943 65.4562C102.104 64.9368 102.176 64.2775 101.975 64.1821C101.635 64.021 100.855 65.613 100.302 65.4562V65.4583Z" stroke="#432600" stroke-width="0.635967" stroke-miterlimit="10"/>
<path d="M75.0079 45.0056C78.4272 47.1445 79.625 47.3332 79.9875 46.9538C80.6044 46.3072 79.2031 43.6043 78.3276 43.7061C77.3949 43.8142 77.6408 47.0343 76.3074 47.3862C75.2665 47.6618 73.6087 46.0973 73.8546 45.2939C74.0687 44.5858 75.8516 44.1407 81.7936 44.7893" stroke="#432600" stroke-width="0.635967" stroke-miterlimit="10"/>
<path d="M62.0176 43.1485C65.437 45.2875 66.6347 45.4762 66.9972 45.0967C67.6141 44.4502 66.2129 41.7473 65.3374 41.8491C64.4046 41.9572 64.6505 45.1773 63.3171 45.5292C62.2762 45.8048 60.6185 44.2403 60.8644 43.4368C61.0785 42.7288 62.8613 42.2836 68.8034 42.9323" stroke="#432600" stroke-width="0.635967" stroke-miterlimit="10"/>
<path d="M40.7929 49.6333C44.649 50.8162 45.8553 50.6911 46.1075 50.229C46.5357 49.4467 44.4858 47.1954 43.6654 47.5198C42.792 47.8653 43.8604 50.9137 42.6648 51.5963C41.7299 52.1305 39.7266 51.0473 39.7542 50.2078C39.7796 49.4701 41.3865 48.5776 47.2925 47.6703" stroke="#432600" stroke-width="0.635967" stroke-miterlimit="10"/>
<path d="M47.4609 46.9368C51.317 48.1197 52.5232 47.9946 52.7755 47.5325C53.2037 46.7502 51.1537 44.4989 50.3333 44.8233C49.46 45.1688 50.5284 48.2172 49.3328 48.8998C48.3979 49.434 46.3946 48.3508 46.4222 47.5113C46.4476 46.7736 48.0545 45.8811 53.9605 44.9738" stroke="#432600" stroke-width="0.635967" stroke-miterlimit="10"/>
<path d="M63.3178 41.3657C66.0503 44.3336 67.1527 44.8339 67.6042 44.5625C68.3695 44.1025 67.7356 41.1262 66.8622 40.9905C65.9337 40.8485 65.319 44.0177 63.9389 44.005C62.862 43.9944 61.6791 42.0483 62.1264 41.3382C62.5207 40.7128 64.3586 40.7552 69.9149 42.9514" stroke="#432600" stroke-width="0.635967" stroke-miterlimit="10"/>
<path d="M70.435 42.4023C73.1675 45.3702 74.2699 45.8705 74.7214 45.5991C75.4867 45.1391 74.8528 42.1628 73.9794 42.0271C73.0509 41.8851 72.4362 45.0543 71.0561 45.0416C69.9792 45.031 68.7963 43.0849 69.2436 42.3748C69.6379 41.7494 71.4759 41.7918 77.0321 43.988" stroke="#432600" stroke-width="0.635967" stroke-miterlimit="10"/>
<path d="M87.1398 50.4685C85.5689 48.4122 84.0681 47.1255 83.0272 46.3559C82.4145 45.9023 81.7892 45.4995 81.007 45.5631C79.7711 45.6606 78.6369 46.8753 78.8425 47.4392C79.0312 47.9607 80.354 47.9141 81.5136 47.8717C82.6202 47.8314 85.4248 47.5876 85.482 46.9326C85.5923 45.7009 75.8217 44.5858 75.8832 42.82C75.9044 42.1946 77.1509 41.635 77.3268 41.8088C77.5981 42.078 75.3892 44.1746 75.8111 44.7682C76.2987 45.4529 80.2819 44.111 80.2141 43.1083C80.1314 41.8766 73.8841 40.2803 72.3472 42.4596C71.7155 43.3542 71.8893 44.8763 72.2751 44.9844C72.998 45.19 75.3744 40.7107 74.4395 39.7885C73.9413 39.2967 72.8348 40.1426 69.3878 40.7276C67.6898 41.0159 66.4348 41.2279 66.2843 40.8718C66.0638 40.3545 68.0735 38.4106 69.4599 38.8515C71.0456 39.3539 71.5565 42.8942 70.399 43.8312C69.0274 44.9399 65.023 42.6398 65.2032 41.8109C65.4003 40.9057 70.8675 40.5411 75.4507 42.75C77.4561 43.7167 77.2908 44.2085 79.6354 45.4932C84.7994 48.3169 88.8188 47.683 88.8717 48.5967C88.9184 49.3832 86.0141 50.9731 83.748 49.8962C81.8782 49.0058 80.848 46.4937 81.6556 43.9796" stroke="#432600" stroke-width="0.635967" stroke-miterlimit="10"/>
<path d="M101.405 66.5267C100.574 64.0761 99.5626 62.3781 98.8228 61.3139C98.3882 60.6885 97.9239 60.1077 97.1629 59.9148C95.9609 59.6116 94.4982 60.4002 94.5109 61.0002C94.5236 61.5534 95.7913 61.9329 96.9022 62.2636C97.9621 62.5795 100.699 63.243 100.964 62.6431C101.462 61.511 92.5606 57.3327 93.1839 55.6771C93.4043 55.092 94.7632 54.9585 94.8734 55.181C95.0451 55.5245 92.2808 56.8049 92.4907 57.5002C92.7344 58.3036 96.9361 58.3079 97.1926 57.3349C97.5084 56.1414 92.0985 52.6308 89.9468 54.2059C89.0628 54.8525 88.7406 56.3491 89.0713 56.5759C89.6903 56.9999 93.3746 53.5169 92.7832 52.3446C92.4673 51.7193 91.1509 52.1666 87.6976 51.6196C85.9953 51.3483 84.7403 51.149 84.7107 50.7653C84.6683 50.2057 87.193 49.0058 88.3653 49.8665C89.7072 50.8501 89.0607 54.367 87.6615 54.8843C86.008 55.4969 82.949 52.0351 83.3836 51.308C83.8606 50.5131 89.1561 51.9164 92.7938 55.4736C94.3858 57.0296 94.07 57.4451 95.8825 59.4102C99.8742 63.7369 103.885 64.4195 103.643 65.3035C103.436 66.0624 100.177 66.6433 98.3734 64.8965C96.8852 63.455 96.7135 60.7436 98.2822 58.6195" stroke="#432600" stroke-width="0.635967" stroke-miterlimit="10"/>
<path d="M41.5919 50.0234C43.1627 47.9671 44.6636 46.6803 45.7045 45.9108C46.3171 45.4571 46.9425 45.0543 47.7247 45.1179C48.9606 45.2154 50.0948 46.4301 49.8891 46.994C49.7005 47.5155 48.3777 47.4689 47.2181 47.4265C46.1115 47.3862 43.3069 47.1424 43.2496 46.4874C43.1394 45.2557 52.91 44.1406 52.8485 42.3748C52.8273 41.7494 51.5808 41.1898 51.4049 41.3636C51.1335 41.6328 53.3424 43.7294 52.9206 44.323C52.433 45.0077 48.4497 43.6658 48.5176 42.6631C48.6003 41.4314 54.8476 39.8352 56.3845 42.0144C57.0162 42.909 56.8424 44.4311 56.4566 44.5392C55.7337 44.7448 53.3573 40.2655 54.2922 39.3433C54.7903 38.8515 55.8969 39.6974 59.3439 40.2824C61.0419 40.5708 62.2969 40.7827 62.4474 40.4266C62.6679 39.9093 60.6582 37.9654 59.2718 38.4063C57.6861 38.9088 57.1752 42.449 58.3327 43.386C59.7042 44.4947 63.7087 42.1946 63.5285 41.3657C63.3314 40.4605 57.8642 40.0959 53.281 42.3048C51.2756 43.2715 51.4409 43.7633 49.0963 45.048C43.9323 47.8717 39.9129 47.2378 39.8599 48.1515C39.8133 48.938 42.7176 50.5279 44.9837 49.451C46.8535 48.5606 47.8837 46.0486 47.076 43.5344" stroke="#432600" stroke-width="0.635967" stroke-miterlimit="10"/>
<path d="M27.3252 66.0815C28.1562 63.6309 29.1674 61.9329 29.9072 60.8687C30.3418 60.2433 30.806 59.6625 31.5671 59.4696C32.769 59.1664 34.2318 59.955 34.2191 60.5549C34.2063 61.1082 32.9386 61.4877 31.8278 61.8184C30.7679 62.1343 28.0311 62.7978 27.7661 62.1979C27.2679 61.0658 36.1694 56.8875 35.5461 55.2319C35.3256 54.6468 33.9668 54.5133 33.8566 54.7359C33.6849 55.0793 36.4492 56.3597 36.2393 57.055C35.9955 57.8585 31.7939 57.8627 31.5374 56.8897C31.2215 55.6962 36.6315 52.1856 38.7832 53.7607C39.6672 54.4073 39.9894 55.9039 39.6587 56.1307C39.0397 56.5547 35.3553 53.0717 35.9468 51.8994C36.2626 51.2741 37.5791 51.7214 41.0324 51.1744C42.7347 50.9031 43.9896 50.7038 44.0193 50.3201C44.0617 49.7605 41.5369 48.5606 40.3646 49.4213C39.0227 50.4049 39.6693 53.9218 41.0684 54.4391C42.722 55.0517 45.7809 51.5899 45.3464 50.8628C44.8694 50.0679 39.5739 51.4712 35.9362 55.0284C34.3441 56.5844 34.66 56.9999 32.8475 58.965C28.8557 63.2917 24.8449 63.9743 25.0866 64.8583C25.2943 65.6173 28.5526 66.1981 30.3566 64.4513C31.8448 63.0098 32.0165 60.2984 30.4478 58.1743" stroke="#432600" stroke-width="0.635967" stroke-miterlimit="10"/>
<path d="M51.6495 49.8071C53.7779 48.3338 55.6031 47.5728 56.8305 47.1615C57.5513 46.9198 58.272 46.729 58.997 47.0279C60.1418 47.5007 60.8477 49.0058 60.4788 49.4807C60.1397 49.9195 58.8953 49.4658 57.8057 49.0694C56.7648 48.6921 54.1722 47.594 54.3184 46.9537C54.5919 45.7497 64.231 47.6957 64.7165 45.9977C64.8882 45.3977 63.877 44.4798 63.6544 44.5922C63.3131 44.766 64.7695 47.4413 64.1844 47.8738C63.5103 48.3741 60.1333 45.8726 60.5085 44.9377C60.9664 43.7909 67.4024 44.1979 68.1931 46.7418C68.5175 47.789 67.8857 49.1818 67.483 49.1669C66.7325 49.1394 65.8506 44.1449 67.0229 43.5577C67.6483 43.2439 68.439 44.3887 71.5404 46.0062C73.0668 46.8032 74.1945 47.3904 74.4489 47.1C74.8178 46.676 73.5056 44.2085 72.0513 44.2C70.3872 44.1894 68.81 47.401 69.624 48.6475C70.5886 50.1251 75.1061 49.169 75.1888 48.3253C75.2799 47.4032 70.1922 45.3723 65.1511 46.0613C62.9464 46.3623 62.9528 46.8838 60.3241 47.382C54.541 48.4779 50.9139 46.6358 50.5811 47.488C50.2949 48.2214 52.5674 50.6296 55.0562 50.3011C57.1103 50.0297 58.8635 47.9565 58.8698 45.3151" stroke="#432600" stroke-width="0.635967" stroke-miterlimit="10"/>
<path d="M54.8027 44.2C58.6588 45.3829 59.865 45.2579 60.1173 44.7957C60.5455 44.0135 58.4955 41.7622 57.6751 42.0865C56.8017 42.432 57.8702 45.4804 56.6746 46.1631C55.7397 46.6973 53.7364 45.614 53.764 44.7745C53.7894 44.0368 55.3963 43.1443 61.3023 42.237" stroke="#432600" stroke-width="0.635967" stroke-miterlimit="10"/>
<path d="M29.2275 63.8811C30.0585 61.4305 31.0697 59.7324 31.8095 58.6683C32.2441 58.0429 32.7084 57.462 33.4694 57.2691C34.6714 56.966 36.1341 57.7546 36.1214 58.3545C36.1087 58.9078 34.841 59.2873 33.7302 59.618C32.6702 59.9338 29.9334 60.5974 29.6685 59.9974C29.1703 58.8654 38.0717 54.6871 37.4485 53.0315C37.228 52.4464 35.8691 52.3128 35.7589 52.5354C35.5872 52.8788 38.3515 54.1593 38.1417 54.8546C37.8979 55.658 33.6963 55.6623 33.4398 54.6892C33.1239 53.4957 38.5338 49.9852 40.6855 51.5603C41.5695 52.2068 41.8918 53.7035 41.5611 53.9303C40.942 54.3543 37.2577 50.8713 37.8491 49.699C38.165 49.0736 39.4814 49.5209 42.9347 48.974C44.637 48.7027 45.892 48.5034 45.9217 48.1197C45.9641 47.56 43.4393 46.3602 42.267 47.2209C40.9251 48.2045 41.5717 51.7214 42.9708 52.2386C44.6243 52.8513 47.6833 49.3895 47.2487 48.6624C46.7717 47.8674 41.4763 49.2708 37.8385 52.828C36.2465 54.384 36.5623 54.7995 34.7498 56.7646C30.7581 61.0913 26.7472 61.7739 26.9889 62.6579C27.1967 63.4168 30.4549 63.9977 32.259 62.2509C33.7471 60.8093 33.9189 58.098 32.3501 55.9739" stroke="#432600" stroke-width="0.635967" stroke-miterlimit="10"/>
<path d="M75.824 50.4092C75.8197 50.1039 79.75 50.0997 79.9662 48.9274C80.0913 48.2511 78.8893 47.6788 79.0716 47.2336C79.36 46.5319 82.5758 47.3756 82.6076 47.2336C82.6373 47.1064 80.2524 45.9129 77.4839 46.4407C75.9003 46.7418 74.2171 47.6024 74.3082 48.1006C74.3761 48.4758 75.4169 48.4398 77.1235 48.7493C79.7585 49.2284 82.5991 50.2799 82.5355 50.6975C82.4401 51.3207 75.8303 50.8056 75.824 50.4092Z" stroke="#432600" stroke-width="0.635967" stroke-miterlimit="10"/>
<path d="M102.622 69.0133C102.69 66.7344 102.789 56.9469 97.0656 53.8582C94.7698 52.6202 91.8952 52.5714 91.7977 52.9191C91.5984 53.6356 102.955 56.7391 102.736 57.6168C102.609 58.1298 98.416 58.3969 95.622 56.0947C92.0733 53.1714 92.3361 47.382 92.4464 47.3629C92.6117 47.3332 93.7141 59.8957 95.9103 59.919C97.3857 59.9359 99.6264 54.2928 97.727 51.7277C96.7074 50.3498 95.3803 51.06 89.205 48.9019C88.1048 48.5182 86.4068 47.8865 84.4353 46.7121C83.0001 45.8578 82.2073 45.1836 82.1988 45.1963C82.1797 45.2218 85.7178 47.6448 89.7032 50.0318C92.7601 51.8613 93.6929 51.9334 94.2504 51.5475C95.1365 50.9307 95.1174 48.9676 94.3352 47.7572C93.129 45.8896 90.248 46.0273 89.3492 46.0697C89.1436 46.0803 88.3338 46.1376 87.1063 46.4958C83.2333 47.6257 82.3345 49.9894 80.0344 49.8156C78.4508 49.6948 77.3591 48.4589 77.4354 48.2999C77.5965 47.9713 82.9832 51.7977 87.2505 50.0318C88.6666 49.4446 89.5697 48.4037 90.0657 47.7233" stroke="#432600" stroke-width="0.635967" stroke-miterlimit="10"/>
<path d="M26.6406 67.4213C27.0031 65.17 28.7457 55.5393 34.9506 53.5826C37.4372 52.7983 40.2715 53.2922 40.3012 53.6526C40.3627 54.3946 28.6249 55.304 28.6736 56.2071C28.7012 56.7349 32.7692 57.7864 35.947 56.0502C39.9832 53.8455 40.8142 48.1112 40.7082 48.0709C40.5513 48.0094 37.1044 60.1416 34.9442 59.7515C33.4921 59.4887 32.3537 53.5254 34.7005 51.3652C35.9618 50.2035 37.132 51.1511 43.6019 50.1929C44.753 50.0233 46.5422 49.7223 48.6981 48.9401C50.2689 48.3698 51.1741 47.8589 51.1805 47.8717C51.1932 47.9013 47.2629 49.6142 42.9002 51.2084C39.555 52.4315 38.6223 52.3255 38.1495 51.8422C37.3948 51.0706 37.7849 49.1457 38.7791 48.1048C40.3139 46.498 43.1185 47.1742 43.9941 47.3841C44.1933 47.4328 44.9798 47.6427 46.1161 48.2236C49.7072 50.0615 50.146 52.5524 52.4376 52.8152C54.0148 52.9954 55.3207 51.9864 55.274 51.8147C55.1765 51.4606 49.1666 54.2059 45.3084 51.6684C44.028 50.8268 43.3369 49.6333 42.9786 48.8701" stroke="#432600" stroke-width="0.635967" stroke-miterlimit="10"/>
<path d="M69.2273 45.3596C68.9877 45.9277 68.7036 46.481 68.5065 46.4429C68.2797 46.3983 68.3602 45.6182 68.1461 44.6388C68.1143 44.4926 67.5716 42.1056 66.6304 41.9678C65.475 41.7982 63.9466 45.0586 64.3218 45.3596C64.4999 45.5037 65.0066 44.8805 66.3421 44.0601C68.7058 42.6122 70.5713 42.449 70.5268 42.184C70.4822 41.9105 68.5001 42.1692 65.2588 42.1119C62.4542 42.061 60.8092 41.813 60.7837 41.9678C60.7371 42.2667 66.8191 43.2821 66.7746 43.6276C66.747 43.8417 64.36 43.7633 58.6914 43.2673" stroke="#432600" stroke-width="0.635967" stroke-miterlimit="10"/>
<path d="M74.4805 44.783C76.8845 44.2467 78.3387 42.5508 78.1607 41.3191C77.9126 39.6062 74.436 38.2643 72.9648 39.5872C71.943 40.5072 71.8476 42.7564 73.3252 44.5668" stroke="#432600" stroke-width="0.635967" stroke-miterlimit="10"/>
<path d="M62.2619 43.7167C64.1359 42.1183 64.6277 39.939 63.8942 38.9342C62.8746 37.5351 59.1732 37.976 58.4906 39.833C58.0179 41.124 58.9846 43.157 61.1384 44.0665" stroke="#432600" stroke-width="0.635967" stroke-miterlimit="10"/>
<path d="M74.353 44.128C71.9491 44.6643 70.4948 46.3602 70.6729 47.5919C70.9209 49.3047 74.3975 50.6466 75.8687 49.3238C76.8905 48.4038 76.9859 46.1546 75.5083 44.3442" stroke="#432600" stroke-width="0.635967" stroke-miterlimit="10"/>
<path d="M104.28 58.293C103.722 58.0132 104.35 56.0226 104.117 55.9654C103.852 55.9018 102.832 57.4069 103.25 58.5093C103.877 60.1628 107.383 59.9699 107.362 60.4044C107.345 60.7648 104.29 60.9662 104.17 60.4596C104.093 60.1458 105.217 59.8681 105.891 58.6025C106.147 58.1213 106.342 57.4896 106.162 57.3582C105.859 57.1377 104.793 58.5538 104.28 58.2951V58.293Z" stroke="#432600" stroke-width="0.635967" stroke-miterlimit="10"/>
<path d="M85.6847 36.6405C85.0615 36.6405 84.7244 34.5821 84.4934 34.6351C84.2284 34.6965 83.9952 36.5006 84.8643 37.2955C86.1681 38.4911 89.2122 36.7401 89.3903 37.1365C89.5366 37.4672 86.8994 39.019 86.5624 38.6205C86.3525 38.3746 87.2323 37.622 87.2641 36.1868C87.2768 35.642 87.1665 34.9891 86.9461 34.9531C86.5751 34.8916 86.2614 36.6362 85.6869 36.6384L85.6847 36.6405Z" stroke="#432600" stroke-width="0.635967" stroke-miterlimit="10"/>
<path d="M49.0142 34.6138C49.6374 34.6138 49.9745 32.5554 50.2055 32.6084C50.4705 32.6699 50.7037 34.4739 49.8346 35.2689C48.5308 36.4645 45.4867 34.7135 45.3086 35.1099C45.1623 35.4406 47.7995 36.9924 48.1365 36.5938C48.3464 36.3479 47.4667 35.5953 47.4349 34.1602C47.4221 33.6154 47.5324 32.9624 47.7528 32.9264C48.1238 32.8649 48.4375 34.6096 49.012 34.6117L49.0142 34.6138Z" stroke="#432600" stroke-width="0.635967" stroke-miterlimit="10"/>
<path d="M26.1097 57.9411C26.6673 57.6613 26.0398 55.6707 26.273 55.6135C26.538 55.5499 27.5576 57.055 27.14 58.1574C26.5125 59.8109 23.0062 59.618 23.0274 60.0525C23.0444 60.4129 26.0991 60.6143 26.22 60.1077C26.2963 59.7939 25.1728 59.5162 24.4986 58.2506C24.2421 57.7694 24.0471 57.1377 24.2273 57.0063C24.5304 56.7858 25.5967 58.2019 26.1097 57.9433V57.9411Z" stroke="#432600" stroke-width="0.635967" stroke-miterlimit="10"/>
<path d="M103.354 54.5938C103.243 55.0284 101.666 54.7931 101.55 55.3146C101.475 55.6474 102.033 56.1074 102.561 56.2537C103.311 56.4636 104.227 56.1032 104.293 55.6771C104.344 55.3337 103.805 55.2128 103.354 54.5938ZM103.354 54.5938C103.525 53.9239 100.14 51.9334 99.3131 52.7177C98.8043 53.1989 99.2283 54.7549 99.8176 54.8821C100.763 55.0856 102.109 51.626 102.705 51.8507C103.089 51.9948 102.495 53.4152 103.354 54.5938Z" stroke="#432600" stroke-width="0.635967" stroke-miterlimit="10"/>
<path d="M83.3106 35.3601C83.2004 35.7946 81.6232 35.5593 81.5066 36.0808C81.4324 36.4136 81.9899 36.8737 82.5178 37.0199C83.2682 37.2298 84.184 36.8694 84.2497 36.4433C84.3006 36.0999 83.7622 35.9791 83.3106 35.3601ZM83.3106 35.3601C83.4823 34.6902 80.0969 32.6996 79.2701 33.4839C78.7613 33.9652 79.1853 35.5212 79.7746 35.6484C80.7201 35.8519 82.0662 32.3922 82.6619 32.6169C83.0456 32.7611 82.4521 34.1814 83.3106 35.3601Z" stroke="#432600" stroke-width="0.635967" stroke-miterlimit="10"/>
<path d="M55.0411 34.9403C54.9308 35.3749 53.3537 35.1396 53.2371 35.6611C53.1629 35.9939 53.7204 36.4539 54.2482 36.6002C54.9987 36.8101 55.9145 36.4497 55.9802 36.0236C56.0311 35.6802 55.4926 35.5594 55.0411 34.9403ZM55.0411 34.9403C55.2128 34.2705 51.8273 32.2799 51.0006 33.0642C50.4918 33.5455 50.9158 35.1015 51.5051 35.2286C52.4506 35.4322 53.7967 31.9725 54.3924 32.1972C54.7761 32.3414 54.1825 33.7617 55.0411 34.9403Z" stroke="#432600" stroke-width="0.635967" stroke-miterlimit="10"/>
<path d="M94.4544 43.2969C93.8545 43.1273 94.0962 41.0541 93.8566 41.0414C93.5853 41.0286 92.8666 42.6991 93.4835 43.7018C94.4099 45.2069 97.8187 44.359 97.8802 44.7893C97.931 45.1476 94.9696 45.9171 94.7533 45.4423C94.6198 45.1476 95.6712 44.6643 96.0952 43.2948C96.2563 42.7754 96.3284 42.1161 96.127 42.0208C95.7878 41.8596 95.0077 43.4517 94.4544 43.2948V43.2969Z" stroke="#432600" stroke-width="0.635967" stroke-miterlimit="10"/>
<path d="M91.3018 42.7945C90.8333 42.5083 90.4242 41.9148 90.5874 41.6159C90.8439 41.1474 92.2939 41.8045 92.5207 41.4166C92.8705 40.8188 90.1592 37.9781 89.148 38.506C88.5269 38.8303 88.5078 40.4415 89.0399 40.7255C89.8921 41.1813 92.1349 38.2219 92.6458 38.6014C92.9744 38.8452 92.0141 40.0493 92.5186 41.4166C92.7836 42.1352 93.2691 42.3981 93.1249 42.714C92.9447 43.1062 91.9653 43.2016 91.3018 42.7945Z" stroke="#432600" stroke-width="0.635967" stroke-miterlimit="10"/>
<path d="M97.6107 46.9877C97.0107 46.8181 97.2524 44.7448 97.0129 44.7321C96.7415 44.7194 96.0229 46.3899 96.6398 47.3926C97.5662 48.8977 100.975 48.0497 101.036 48.4801C101.087 48.8383 98.1258 49.6078 97.9096 49.133C97.776 48.8383 98.8275 48.355 99.2515 46.9855C99.4126 46.4662 99.4846 45.8069 99.2833 45.7115C98.9441 45.5504 98.164 47.1424 97.6107 46.9855V46.9877Z" stroke="#432600" stroke-width="0.635967" stroke-miterlimit="10"/>
<path d="M98.5677 49.5443C97.9678 49.3747 98.2094 47.3014 97.9699 47.2887C97.6985 47.276 96.9799 48.9465 97.5968 49.9492C98.5232 51.4543 101.932 50.6063 101.993 51.0367C102.044 51.3949 99.0828 52.1645 98.8666 51.6896C98.7331 51.3949 99.7845 50.9116 100.208 49.5421C100.37 49.0228 100.442 48.3635 100.24 48.2681C99.9011 48.107 99.121 49.699 98.5677 49.5421V49.5443Z" stroke="#432600" stroke-width="0.635967" stroke-miterlimit="10"/>
<path d="M86.6222 41.1156C85.999 41.1156 85.6619 39.0572 85.4309 39.1102C85.1659 39.1716 84.9327 40.9757 85.8018 41.7706C87.1056 42.9662 90.1497 41.2152 90.3278 41.6116C90.4741 41.9423 87.8369 43.4941 87.4999 43.0956C87.29 42.8497 88.1698 42.0971 88.2016 40.6619C88.2143 40.1171 88.104 39.4642 87.8836 39.4282C87.5126 39.3667 87.1989 41.1113 86.6244 41.1135L86.6222 41.1156Z" stroke="#432600" stroke-width="0.635967" stroke-miterlimit="10"/>
<path d="M84.2442 39.8351C84.134 40.2697 82.5568 40.0344 82.4402 40.5559C82.366 40.8887 82.9235 41.3487 83.4514 41.495C84.2018 41.7049 85.1176 41.3445 85.1833 40.9184C85.2342 40.575 84.6957 40.4542 84.2442 39.8351ZM84.2442 39.8351C84.4159 39.1653 81.0304 37.1747 80.2037 37.959C79.6949 38.4403 80.1189 39.9963 80.7082 40.1235C81.6537 40.327 82.9998 36.8673 83.5955 37.092C83.9792 37.2362 83.3856 38.6565 84.2442 39.8351Z" stroke="#432600" stroke-width="0.635967" stroke-miterlimit="10"/>
<path d="M95.39 47.7699C94.7901 47.6003 95.0317 45.527 94.7922 45.5143C94.5208 45.5016 93.8022 47.1721 94.4191 48.1748C95.3454 49.6799 98.7543 48.832 98.8157 49.2623C98.8666 49.6206 95.9051 50.3901 95.6889 49.9152C95.5553 49.6206 96.6068 49.1372 97.0308 47.7678C97.1919 47.2484 97.264 46.5891 97.0626 46.4937C96.7234 46.3326 95.9433 47.9246 95.39 47.7678V47.7699Z" stroke="#432600" stroke-width="0.635967" stroke-miterlimit="10"/>
<path d="M92.2374 47.2675C91.7689 46.9813 91.3597 46.3877 91.523 46.0888C91.7795 45.6203 93.2295 46.2775 93.4563 45.8896C93.8061 45.2918 91.0947 42.4511 90.0835 42.979C89.4624 43.3033 89.4433 44.9144 89.9754 45.1985C90.8276 45.6543 93.0705 42.6949 93.5814 43.0743C93.9099 43.3181 92.9496 44.5222 93.4542 45.8896C93.7192 46.6082 94.2046 46.8711 94.0605 47.1869C93.8803 47.5791 92.9009 47.6745 92.2374 47.2675Z" stroke="#432600" stroke-width="0.635967" stroke-miterlimit="10"/>
<path d="M97.7083 51.7002C97.1084 51.5306 97.3501 49.4573 97.1105 49.4446C96.8392 49.4319 96.1205 51.1024 96.7374 52.1051C97.6638 53.6102 101.073 52.7622 101.134 53.1926C101.185 53.5508 98.2235 54.3204 98.0072 53.8455C97.8737 53.5509 98.9251 53.0675 99.3491 51.6981C99.5102 51.1787 99.5823 50.5194 99.3809 50.424C99.0417 50.2629 98.2616 51.8549 97.7083 51.6981V51.7002Z" stroke="#432600" stroke-width="0.635967" stroke-miterlimit="10"/>
<path d="M100.886 56.9766C100.286 56.807 100.528 54.7337 100.288 54.721C100.017 54.7083 99.2983 56.3788 99.9151 57.3815C100.842 58.8866 104.25 58.0386 104.312 58.469C104.363 58.8272 101.401 59.5968 101.185 59.1219C101.051 58.8273 102.103 58.3439 102.527 56.9745C102.688 56.4551 102.76 55.7958 102.559 55.7004C102.219 55.5393 101.439 57.1313 100.886 56.9745V56.9766Z" stroke="#432600" stroke-width="0.635967" stroke-miterlimit="10"/>
<path d="M75.5938 36.526C79.0132 38.665 80.2109 38.8537 80.5734 38.4742C81.1903 37.8276 79.7891 35.1248 78.9136 35.2265C77.9808 35.3346 78.2267 38.5548 76.8933 38.9067C75.8524 39.1822 74.1947 37.6178 74.4406 36.8143C74.6547 36.1063 76.4375 35.6611 82.3796 36.3098" stroke="#432600" stroke-width="0.635967" stroke-miterlimit="10"/>
<path d="M62.6035 34.669C66.0229 36.808 67.2207 36.9966 67.5832 36.6172C68.2001 35.9706 66.7988 33.2677 65.9233 33.3695C64.9905 33.4776 65.2364 36.6977 63.903 37.0496C62.8622 37.3252 61.2044 35.7607 61.4503 34.9573C61.6644 34.2493 63.4473 33.8041 69.3893 34.4528" stroke="#432600" stroke-width="0.635967" stroke-miterlimit="10"/>
<path d="M41.3789 41.1537C45.235 42.3366 46.4412 42.2116 46.6935 41.7494C47.1217 40.9672 45.0717 38.7159 44.2513 39.0402C43.3779 39.3858 44.4464 42.4342 43.2507 43.1168C42.3159 43.651 40.3126 42.5677 40.3401 41.7282C40.3656 40.9905 41.9725 40.098 47.8785 39.1907" stroke="#432600" stroke-width="0.635967" stroke-miterlimit="10"/>
<path d="M48.0449 38.4572C51.901 39.6401 53.1072 39.5151 53.3594 39.0529C53.7877 38.2707 51.7377 36.0194 50.9173 36.3437C50.0439 36.6892 51.1124 39.7376 49.9167 40.4203C48.9819 40.9545 46.9786 39.8712 47.0061 39.0317C47.0316 38.294 48.6384 37.4015 54.5445 36.4942" stroke="#432600" stroke-width="0.635967" stroke-miterlimit="10"/>
<path d="M63.9037 32.884C66.6363 35.8519 67.7386 36.3522 68.1901 36.0808C68.9554 35.6208 68.3216 32.6445 67.4482 32.5088C66.5197 32.3668 65.9049 35.536 64.5249 35.5233C63.448 35.5127 62.265 33.5666 62.7123 32.8565C63.1066 32.2311 64.9446 32.2735 70.5008 34.4697" stroke="#432600" stroke-width="0.635967" stroke-miterlimit="10"/>
<path d="M71.0209 33.9228C73.7534 36.8906 74.8558 37.3909 75.3073 37.1196C76.0726 36.6596 75.4388 33.6832 74.5654 33.5476C73.6369 33.4055 73.0221 36.5748 71.642 36.5621C70.5651 36.5515 69.3822 34.6054 69.8295 33.8952C70.2238 33.2699 72.0618 33.3123 77.618 35.5085" stroke="#432600" stroke-width="0.635967" stroke-miterlimit="10"/>
<path d="M87.7257 41.9869C86.1549 39.9306 84.654 38.6438 83.6131 37.8743C83.0005 37.4206 82.3751 37.0178 81.5929 37.0814C80.357 37.1789 79.2228 38.3936 79.4285 38.9575C79.6171 39.479 80.9399 39.4324 82.0995 39.39C83.2061 39.3497 86.0107 39.1059 86.068 38.4509C86.1782 37.2192 76.4076 36.1042 76.4691 34.3383C76.4903 33.7129 77.7368 33.1533 77.9127 33.3271C78.1841 33.5963 75.9752 35.6929 76.397 36.2865C76.8846 36.9712 80.8679 35.6293 80.8 34.6266C80.7174 33.3949 74.47 31.7987 72.9331 33.9779C72.3014 34.8725 72.4752 36.3946 72.861 36.5027C73.5839 36.7083 75.9603 32.229 75.0254 31.3068C74.5273 30.815 73.4207 31.6609 69.9738 32.246C68.2757 32.5343 67.0207 32.7462 66.8702 32.3901C66.6498 31.8728 68.6594 29.9289 70.0458 30.3698C71.6315 30.8723 72.1424 34.4125 70.9849 35.3495C69.6134 36.4582 65.6089 34.1581 65.7891 33.3292C65.9862 32.424 71.4534 32.0594 76.0366 34.2683C78.0421 35.235 77.8767 35.7268 80.2213 37.0115C85.3854 39.8352 89.4047 39.2013 89.4577 40.115C89.5043 40.9015 86.6001 42.4914 84.3339 41.4145C82.4642 40.5241 81.4339 38.0121 82.2416 35.4979" stroke="#432600" stroke-width="0.635967" stroke-miterlimit="10"/>
<path d="M101.991 58.045C101.16 55.5944 100.149 53.8964 99.4087 52.8322C98.9741 52.2069 98.5099 51.626 97.7488 51.4331C96.5469 51.13 95.0841 51.9186 95.0969 52.5185C95.1096 53.0718 96.3773 53.4512 97.4881 53.7819C98.548 54.0978 101.285 54.7613 101.55 54.1614C102.048 53.0294 93.1465 48.8511 93.7698 47.1954C93.9903 46.6104 95.3491 46.4768 95.4593 46.6994C95.6311 47.0428 92.8667 48.3232 93.0766 49.0185C93.3204 49.822 97.522 49.8262 97.7785 48.8532C98.0944 47.6597 92.6844 44.1492 90.5327 45.7242C89.6487 46.3708 89.3265 47.8674 89.6572 48.0943C90.2762 48.5183 93.9606 45.0353 93.3691 43.863C93.0533 43.2376 91.7368 43.6849 88.2835 43.138C86.5812 42.8666 85.3263 42.6674 85.2966 42.2837C85.2542 41.724 87.779 40.5241 88.9513 41.3848C90.2932 42.3685 89.6466 45.8853 88.2475 46.4026C86.594 47.0152 83.535 43.5535 83.9695 42.8263C84.4465 42.0314 89.742 43.4348 93.3797 46.9919C94.9718 48.5479 94.6559 48.9634 96.4684 50.9286C100.46 55.2553 104.471 55.9379 104.229 56.8219C104.022 57.5808 100.763 58.1616 98.9593 56.4148C97.4711 54.9733 97.2994 52.262 98.8681 50.1378" stroke="#432600" stroke-width="0.635967" stroke-miterlimit="10"/>
<path d="M42.1759 41.5417C43.7467 39.4854 45.2476 38.1986 46.2885 37.4291C46.9011 36.9754 47.5265 36.5726 48.3087 36.6362C49.5446 36.7337 50.6788 37.9484 50.4731 38.5123C50.2845 39.0338 48.9617 38.9872 47.8021 38.9448C46.6955 38.9045 43.8909 38.6607 43.8336 38.0057C43.7234 36.774 53.494 35.659 53.4325 33.8931C53.4113 33.2677 52.1648 32.7081 51.9889 32.8819C51.7175 33.1511 53.9264 35.2477 53.5046 35.8413C53.017 36.526 49.0337 35.1841 49.1016 34.1814C49.1842 32.9497 55.4316 31.3535 56.9685 33.5327C57.6002 34.4273 57.4264 35.9494 57.0406 36.0575C56.3177 36.2631 53.9413 31.7838 54.8762 30.8616C55.3743 30.3698 56.4809 31.2157 59.9278 31.8008C61.6259 32.0891 62.8809 32.3011 63.0314 31.9449C63.2518 31.4277 61.2422 29.4837 59.8558 29.9247C58.2701 30.4271 57.7592 33.9673 58.9167 34.9043C60.2882 36.013 64.2927 33.7129 64.1125 32.884C63.9154 31.9788 58.4482 31.6142 53.865 33.8231C51.8595 34.7898 52.0249 35.2816 49.6803 36.5663C44.5162 39.39 40.4969 38.7561 40.4439 39.6698C40.3973 40.4563 43.3015 42.0462 45.5677 40.9693C47.4374 40.0789 48.4677 37.5669 47.66 35.0527" stroke="#432600" stroke-width="0.635967" stroke-miterlimit="10"/>
<path d="M27.9111 57.6019C28.7421 55.1514 29.7533 53.4533 30.4931 52.3891C30.9277 51.7638 31.392 51.1829 32.153 50.99C33.355 50.6869 34.8177 51.4755 34.805 52.0754C34.7923 52.6287 33.5246 53.0082 32.4138 53.3389C31.3538 53.6547 28.617 54.3182 28.3521 53.7183C27.8539 52.5863 36.7553 48.408 36.132 46.7524C35.9116 46.1673 34.5527 46.0337 34.4425 46.2563C34.2708 46.5997 37.0351 47.8801 36.8253 48.5755C36.5815 49.3789 32.3798 49.3831 32.1233 48.4101C31.8075 47.2166 37.2174 43.7061 39.3691 45.2812C40.2531 45.9277 40.5753 47.4244 40.2446 47.6512C39.6256 48.0752 35.9413 44.5922 36.5327 43.4199C36.8486 42.7945 38.165 43.2418 41.6183 42.6949C43.3206 42.4235 44.5756 42.2243 44.6053 41.8406C44.6476 41.2809 42.1229 40.0811 40.9506 40.9417C39.6087 41.9254 40.2552 45.4423 41.6544 45.9595C43.3079 46.5722 46.3669 43.1104 45.9323 42.3833C45.4553 41.5883 40.1598 42.9917 36.5221 46.5488C34.9301 48.1048 35.2459 48.5203 33.4334 50.4855C29.4417 54.8122 25.4308 55.4948 25.6725 56.3788C25.8803 57.1377 29.1385 57.7185 30.9426 55.9718C32.4307 54.5302 32.6024 51.8189 31.0337 49.6948" stroke="#432600" stroke-width="0.635967" stroke-miterlimit="10"/>
<path d="M52.2354 41.3254C54.3638 39.8521 56.189 39.0911 57.4164 38.6798C58.1372 38.4381 58.858 38.2474 59.583 38.5463C60.7277 39.019 61.4336 40.5241 61.0648 40.999C60.7256 41.4378 59.4812 40.9841 58.3916 40.5877C57.3507 40.2104 54.7581 39.1123 54.9044 38.4721C55.1778 37.268 64.817 39.214 65.3024 37.516C65.4741 36.9161 64.463 35.9981 64.2404 36.1105C63.8991 36.2843 65.3554 38.9596 64.7703 39.3921C64.0962 39.8924 60.7192 37.3909 61.0945 36.456C61.5523 35.3092 67.9883 35.7162 68.7791 38.2601C69.1034 39.3073 68.4717 40.7001 68.0689 40.6852C67.3185 40.6577 66.4366 35.6632 67.6089 35.076C68.2342 34.7623 69.025 35.907 72.1264 37.5245C73.6527 38.3215 74.7805 38.9088 75.0349 38.6183C75.4037 38.1944 74.0915 35.7268 72.6373 35.7183C70.9731 35.7077 69.3959 38.9194 70.21 40.1659C71.1745 41.6434 75.692 40.6873 75.7747 39.8436C75.8659 38.9215 70.7781 36.8906 65.737 37.5796C63.5323 37.8806 63.5387 38.4021 60.91 38.9003C55.127 39.9963 51.4998 38.1541 51.167 39.0063C50.8808 39.7398 53.1533 42.148 55.6421 41.8194C57.6963 41.548 59.4494 39.4748 59.4558 36.8334" stroke="#432600" stroke-width="0.635967" stroke-miterlimit="10"/>
<path d="M55.3867 35.7183C59.2427 36.9012 60.449 36.7761 60.7012 36.314C61.1295 35.5318 59.0795 33.2804 58.2591 33.6048C57.3857 33.9503 58.4542 36.9987 57.2585 37.6813C56.3237 38.2155 54.3204 37.1323 54.3479 36.2928C54.3734 35.5551 55.9802 34.6626 61.8863 33.7553" stroke="#432600" stroke-width="0.635967" stroke-miterlimit="10"/>
<path d="M29.8154 55.4015C30.6464 52.9509 31.6576 51.2529 32.3974 50.1887C32.832 49.5633 33.2963 48.9825 34.0573 48.7896C35.2593 48.4864 36.722 49.275 36.7093 49.875C36.6966 50.4283 35.4289 50.8077 34.318 51.1384C33.2581 51.4543 30.5213 52.1178 30.2564 51.5179C29.7582 50.3859 38.6596 46.2076 38.0363 44.5519C37.8159 43.9668 36.457 43.8333 36.3468 44.0559C36.1751 44.3993 38.9394 45.6797 38.7296 46.375C38.4858 47.1785 34.2841 47.1827 34.0276 46.2097C33.7118 45.0162 39.1217 41.5056 41.2734 43.0807C42.1574 43.7273 42.4796 45.2239 42.1489 45.4508C41.5299 45.8747 37.8456 42.3918 38.437 41.2195C38.7529 40.5941 40.0693 41.0414 43.5226 40.4944C45.2249 40.2231 46.4799 40.0238 46.5095 39.6401C46.5519 39.0805 44.0272 37.8806 42.8549 38.7413C41.513 39.7249 42.1595 43.2418 43.5587 43.7591C45.2122 44.3717 48.2712 40.9099 47.8366 40.1828C47.3596 39.3879 42.0641 40.7912 38.4264 44.3484C36.8344 45.9044 37.1502 46.3199 35.3377 48.285C31.346 52.6117 27.3351 53.2943 27.5768 54.1783C27.7846 54.9373 31.0428 55.5181 32.8469 53.7713C34.335 52.3298 34.5067 49.6185 32.938 47.4943" stroke="#432600" stroke-width="0.635967" stroke-miterlimit="10"/>
<path d="M76.4119 41.9296C76.4076 41.6244 80.3379 41.6201 80.5541 40.4478C80.6792 39.7716 79.4772 39.1992 79.6595 38.754C79.9478 38.0523 83.1637 38.8961 83.1955 38.754C83.2252 38.6268 80.8403 37.4333 78.0717 37.9612C76.4882 38.2622 74.805 39.1229 74.8961 39.6211C74.964 39.9963 76.0048 39.9602 77.7113 40.2698C80.3464 40.7488 83.187 41.8003 83.1234 42.2179C83.028 42.8412 76.4182 42.326 76.4119 41.9296Z" stroke="#432600" stroke-width="0.635967" stroke-miterlimit="10"/>
<path d="M103.21 60.5316C103.278 58.2527 103.377 48.4652 97.6535 45.3765C95.3576 44.1385 92.4831 44.0898 92.3856 44.4374C92.1863 45.1539 103.543 48.2575 103.324 49.1351C103.197 49.6481 99.0039 49.9152 96.2099 47.613C92.6612 44.6897 92.924 38.9003 93.0343 38.8812C93.1996 38.8515 94.3019 51.414 96.4982 51.4373C97.9736 51.4543 100.214 45.8111 98.3149 43.246C97.2952 41.8681 95.9682 42.5783 89.7929 40.4202C88.6927 40.0365 86.9947 39.4048 85.0232 38.2304C83.588 37.3761 82.7952 36.7019 82.7867 36.7147C82.7676 36.7401 86.3057 39.1631 90.2911 41.5501C93.348 43.3796 94.2808 43.4517 94.8383 43.0658C95.7244 42.449 95.7053 40.4859 94.9231 39.2755C93.7168 37.4079 90.8359 37.5457 89.9371 37.588C89.7315 37.5986 88.9217 37.6559 87.6942 38.0141C83.8212 39.1441 82.9224 41.5077 80.6223 41.3339C79.0387 41.2131 77.947 39.9772 78.0233 39.8182C78.1844 39.4896 83.5711 43.316 87.8384 41.5501C89.2545 40.9629 90.1576 39.922 90.6536 39.2416" stroke="#432600" stroke-width="0.635967" stroke-miterlimit="10"/>
<path d="M27.2266 58.9396C27.5891 56.6883 29.3316 47.0576 35.5366 45.101C38.0232 44.3166 40.8575 44.8105 40.8872 45.1709C40.9486 45.9129 29.2108 46.8223 29.2595 47.7254C29.2871 48.2532 33.3552 49.3047 36.5329 47.5685C40.5692 45.3638 41.4002 39.6295 41.2942 39.5892C41.1373 39.5278 37.6904 51.6599 35.5302 51.2698C34.0781 51.007 32.9397 45.0437 35.2864 42.8835C36.5477 41.7218 37.7179 42.6694 44.1878 41.7112C45.3389 41.5417 47.1281 41.2406 49.284 40.4584C50.8549 39.8881 51.7601 39.3772 51.7664 39.39C51.7791 39.4196 47.8489 41.1325 43.4861 42.7267C40.141 43.9499 39.2082 43.8439 38.7355 43.3605C37.9808 42.5889 38.3708 40.664 39.3651 39.6232C40.8999 38.0163 43.7045 38.6925 44.58 38.9024C44.7793 38.9511 45.5657 39.161 46.702 39.7419C50.2931 41.5798 50.7319 44.0707 53.0235 44.3336C54.6007 44.5137 55.9066 43.5047 55.86 43.333C55.7624 42.9789 49.7525 45.7242 45.8943 43.1867C44.6139 42.3451 43.9228 41.1516 43.5646 40.3884" stroke="#432600" stroke-width="0.635967" stroke-miterlimit="10"/>
<path d="M69.8112 36.88C69.5717 37.4481 69.2876 38.0014 69.0905 37.9633C68.8636 37.9187 68.9442 37.1386 68.7301 36.1592C68.6983 36.013 68.1556 33.626 67.2144 33.4882C66.059 33.3186 64.5306 36.579 64.9058 36.88C65.0839 37.0242 65.5905 36.4009 66.9261 35.5805C69.2898 34.1326 71.1553 33.9694 71.1107 33.7044C71.0662 33.4309 69.0841 33.6896 65.8428 33.6323C63.0382 33.5815 61.3932 33.3334 61.3677 33.4882C61.3211 33.7871 67.4031 34.8025 67.3585 35.1481C67.331 35.3622 64.944 35.2837 59.2754 34.7877" stroke="#432600" stroke-width="0.635967" stroke-miterlimit="10"/>
<path d="M75.0684 36.3034C77.4724 35.7671 78.9266 34.0711 78.7485 32.8395C78.5005 31.1266 75.0239 29.7847 73.5527 31.1075C72.5309 32.0276 72.4355 34.2768 73.9131 36.0872" stroke="#432600" stroke-width="0.635967" stroke-miterlimit="10"/>
<path d="M62.8479 35.2371C64.7218 33.6387 65.2137 31.4595 64.4802 30.4546C63.4605 29.0555 59.7592 29.4965 59.0766 31.3535C58.6038 32.6445 59.5705 34.6775 61.7243 35.5869" stroke="#432600" stroke-width="0.635967" stroke-miterlimit="10"/>
<path d="M74.939 35.6484C72.535 36.1847 71.0808 37.8806 71.2588 39.1123C71.5068 40.8251 74.9835 42.167 76.4547 40.8442C77.4765 39.9242 77.5719 37.675 76.0943 35.8646" stroke="#432600" stroke-width="0.635967" stroke-miterlimit="10"/>
<path d="M106.247 61.6085C105.416 59.158 104.404 57.4599 103.665 56.3957C103.23 55.7704 102.766 55.1895 102.005 54.9966C100.803 54.6935 99.34 55.4821 99.3527 56.082C99.3654 56.6353 100.633 57.0147 101.744 57.3455C102.804 57.6613 105.541 58.3248 105.806 57.7249C106.304 56.5929 97.4024 52.4146 98.0257 50.759C98.2461 50.1739 99.605 50.0403 99.7152 50.2629C99.8869 50.6063 97.1226 51.8867 97.3324 52.5821C97.5762 53.3855 101.778 53.3897 102.034 52.4167C102.35 51.2232 96.9403 47.7127 94.7886 49.2877C93.9046 49.9343 93.5824 51.431 93.9131 51.6578C94.5321 52.0818 98.2164 48.5988 97.625 47.4265C97.3091 46.8011 95.9927 47.2484 92.5394 46.7015C90.8371 46.4301 89.5821 46.2309 89.5525 45.8472C89.5101 45.2875 92.0348 44.0877 93.2071 44.9483C94.549 45.932 93.9025 49.4489 92.5034 49.9661C90.8498 50.5788 87.7908 47.117 88.2254 46.3899C88.7024 45.5949 93.9979 46.9983 97.6356 50.5554C99.2276 52.1114 98.9118 52.5269 100.724 54.4921C104.716 58.8188 108.727 59.5014 108.485 60.3854C108.277 61.1443 105.019 61.7251 103.215 59.9784C101.727 58.5368 101.555 55.8255 103.124 53.7014" stroke="#432600" stroke-width="0.635967" stroke-miterlimit="10"/>
<path d="M46.4844 52.6202C48.0553 50.5639 49.5562 49.2771 50.597 48.5076C51.2097 48.054 51.8351 47.6512 52.6173 47.7148C53.8532 47.8123 54.9873 49.027 54.7817 49.5909C54.593 50.1124 53.2702 50.0657 52.1106 50.0233C51.0041 49.9831 48.1994 49.7393 48.1422 49.0842C48.032 47.8526 57.8026 46.7375 57.7411 44.9716C57.7199 44.3463 56.4734 43.7866 56.2974 43.9605C56.0261 44.2297 58.235 46.3263 57.8132 46.9198C57.3256 47.6045 53.3423 46.2627 53.4101 45.26C53.4928 44.0283 59.7401 42.432 61.2771 44.6113C61.9088 45.5059 61.7349 47.0279 61.3491 47.1361C60.6262 47.3417 58.2498 42.8624 59.1847 41.9402C59.6829 41.4484 60.7895 42.2942 64.2364 42.8793C65.9344 43.1676 67.1894 43.3796 67.3399 43.0235C67.5604 42.5062 65.5508 40.5623 64.1643 41.0032C62.5787 41.5056 62.0678 45.0458 63.2252 45.9828C64.5968 47.0915 68.6013 44.7915 68.4211 43.9626C68.224 43.0574 62.7567 42.6928 58.1735 44.9017C56.1681 45.8684 56.3335 46.3602 53.9889 47.6448C48.8248 50.4685 44.8055 49.8347 44.7525 50.7483C44.7059 51.5348 47.6101 53.1247 49.8763 52.0478C51.746 51.1575 52.7763 48.6454 51.9686 46.1312" stroke="#432600" stroke-width="0.635967" stroke-miterlimit="10"/>
<path d="M57.128 43.9244C59.2564 42.4511 61.0816 41.6901 62.309 41.2788C63.0298 41.0371 63.7505 40.8464 64.4755 41.1453C65.6203 41.618 66.3262 43.1231 65.9573 43.598C65.6182 44.0368 64.3738 43.5831 63.2842 43.1867C62.2433 42.8094 59.6507 41.7113 59.797 41.0711C60.0704 39.867 69.7096 41.813 70.195 40.115C70.3667 39.5151 69.3556 38.5971 69.133 38.7095C68.7917 38.8833 70.248 41.5586 69.6629 41.9911C68.9888 42.4914 65.6118 39.9899 65.987 39.055C66.4449 37.9082 72.8809 38.3152 73.6716 40.8591C73.996 41.9063 73.3643 43.2991 72.9615 43.2842C72.211 43.2567 71.3292 38.2622 72.5015 37.675C73.1268 37.3613 73.9176 38.506 77.019 40.1235C78.5453 40.9205 79.6731 41.5078 79.9274 41.2173C80.2963 40.7934 78.9841 38.3258 77.5299 38.3173C75.8657 38.3067 74.2885 41.5184 75.1026 42.7648C76.0671 44.2424 80.5846 43.2863 80.6673 42.4426C80.7584 41.5205 75.6707 39.4896 70.6296 40.1786C68.4249 40.4796 68.4313 41.0011 65.8026 41.4993C60.0195 42.5953 56.3924 40.7531 56.0596 41.6053C55.7734 42.3388 58.0459 44.747 60.5347 44.4184C62.5889 44.147 64.342 42.0738 64.3484 39.4324" stroke="#432600" stroke-width="0.635967" stroke-miterlimit="10"/>
<path d="M28.5414 65.4074C29.0989 65.1276 28.4714 63.137 28.7046 63.0798C28.9696 63.0162 29.9893 64.5213 29.5717 65.6236C28.9442 67.2772 25.4379 67.0842 25.4591 67.5188C25.476 67.8792 28.5308 68.0806 28.6516 67.5739C28.7279 67.2602 27.6044 66.9825 26.9303 65.7169C26.6738 65.2357 26.4788 64.604 26.6589 64.4725C26.9621 64.2521 28.0284 65.6682 28.5414 65.4095V65.4074Z" stroke="#432600" stroke-width="0.635967" stroke-miterlimit="10"/>
<path d="M105.799 66.0116C105.242 65.7318 105.869 63.7412 105.636 63.6839C105.371 63.6203 104.351 65.1255 104.769 66.2278C105.397 67.8813 108.903 67.6884 108.882 68.123C108.865 68.4834 105.81 68.6848 105.689 68.1781C105.613 67.8644 106.736 67.5866 107.41 66.3211C107.667 65.8399 107.862 65.2081 107.682 65.0767C107.379 64.8562 106.312 66.2723 105.799 66.0137V66.0116Z" stroke="#432600" stroke-width="0.635967" stroke-miterlimit="10"/>
<path d="M60.4492 101.522C61.8971 102.175 67.4915 104.485 74.3048 102.497C80.7684 100.608 84.1857 96.0589 85.129 94.7021" stroke="#432600" stroke-width="0.847956" stroke-miterlimit="10" stroke-linecap="round"/>
<path d="M25.4564 49.4171C39.356 49.4171 50.6238 38.3913 50.6238 24.7903C50.6238 11.1894 39.356 0.163574 25.4564 0.163574C11.5569 0.163574 0.289062 11.1894 0.289062 24.7903C0.289062 38.3913 11.5569 49.4171 25.4564 49.4171Z" fill="#F7F7F7"/>
<path d="M24.2601 10.0634C21.4703 12.6497 18.6784 15.236 15.8887 17.8222C17.4765 21.178 19.0643 24.5338 20.6521 27.8896C24.5484 27.5292 28.4469 27.1688 32.3433 26.8063C32.8732 23.0775 33.4011 19.3486 33.9311 15.6197C30.7067 13.7669 27.4845 11.9141 24.2601 10.0634Z" fill="#313639"/>
<path d="M15.9609 2.34068C18.4497 2.55691 20.9406 2.77315 23.4293 2.98938C25.439 2.13506 27.4465 1.28074 29.4562 0.426423C27.9383 0.10844 25.687 -0.179862 22.9969 0.138121C19.8446 0.511222 17.43 1.55845 15.9609 2.33857V2.34068Z" fill="#313639"/>
<path d="M6.40029 17.1714L5.53326 9.95532C4.28677 11.5898 2.44882 14.4198 1.3486 18.3628C0.229295 22.3715 0.358594 25.7973 0.591782 27.8536C2.52724 24.2943 4.46483 20.7328 6.40029 17.1735V17.1714Z" fill="#313639"/>
<path d="M42.6074 6.76065C43.8136 7.88207 45.2255 9.41264 46.5398 11.4159C48.5579 14.4877 49.5267 17.4237 50.0228 19.48C47.8944 17.4958 45.7639 15.5116 43.6356 13.5252C43.2921 11.2697 42.9508 9.01409 42.6074 6.76065Z" fill="#313639"/>
<path d="M39.5236 36.4264C42.5063 35.8604 45.489 35.2965 48.4717 34.7305C47.7912 36.4625 46.4896 39.1272 44.0432 41.7346C41.0308 44.942 37.7535 46.4895 35.8965 47.2039C37.1048 43.6107 38.3153 40.0196 39.5236 36.4264Z" fill="#313639"/>
<path d="M15.384 38.4615C12.2508 39.0869 9.11757 39.7122 5.98438 40.3376C7.29871 41.8406 9.27868 43.7676 12.0473 45.4804C15.8185 47.8123 19.3948 48.7196 21.6822 49.1076C19.5835 45.5589 17.4848 42.0102 15.3861 38.4636L15.384 38.4615Z" fill="#313639"/>
<path d="M15.1855 39.0381L21.0301 27.455" stroke="#313639" stroke-width="1.05995" stroke-miterlimit="10"/>
<path d="M40.0283 37.0899C37.2194 33.3844 34.4085 29.6788 31.5996 25.9732" stroke="#313639" stroke-width="1.05995" stroke-miterlimit="10"/>
<path d="M5.49805 17.1185C9.48556 17.3898 13.4731 17.659 17.4606 17.9304" stroke="#313639" stroke-width="1.05995" stroke-miterlimit="10"/>
<path d="M44.196 13.3832C40.518 14.2312 36.8421 15.0791 33.1641 15.925" stroke="#313639" stroke-width="1.05995" stroke-miterlimit="10"/>
<path d="M24.6564 11.6512C24.1518 8.22337 23.6452 4.79551 23.1406 1.36765" stroke="#313639" stroke-width="1.05995" stroke-miterlimit="10"/>
<path opacity="0.1" d="M37.9689 91.1959C39.958 91.1959 41.5706 89.5834 41.5706 87.5942C41.5706 85.6051 39.958 83.9925 37.9689 83.9925C35.9797 83.9925 34.3672 85.6051 34.3672 87.5942C34.3672 89.5834 35.9797 91.1959 37.9689 91.1959Z" fill="#F700F7"/>
<path opacity="0.1" d="M91.9279 90.9839C93.917 90.9839 95.5296 89.3714 95.5296 87.3822C95.5296 85.393 93.917 83.7805 91.9279 83.7805C89.9387 83.7805 88.3262 85.393 88.3262 87.3822C88.3262 89.3714 89.9387 90.9839 91.9279 90.9839Z" fill="#F700F7"/>
</svg>
