<svg width="109" height="129" viewBox="0 0 109 129" fill="none" xmlns="http://www.w3.org/2000/svg">
<g clip-path="url(#clip0_2023_3323)">
<path d="M53.134 89.2474C80.2969 89.2474 102.317 71.2451 102.317 49.038C102.317 26.831 80.2969 8.82861 53.134 8.82861C25.9711 8.82861 3.95117 26.831 3.95117 49.038C3.95117 71.2451 25.9711 89.2474 53.134 89.2474Z" fill="#FAF9F6"/>
<path d="M26.663 82.931C22.8892 88.0704 18.0586 95.8976 14.8111 106.227C11.9771 115.245 11.2858 123.189 11.2607 128.986H95.0073C95.8364 123.242 96.5423 112.335 91.6658 99.981C88.5143 91.9977 84.1056 86.1283 80.714 82.3337C75.1901 84.4691 66.0803 87.2506 54.4915 87.4887C42.13 87.7425 32.3749 84.9922 26.663 82.931Z" fill="#313639"/>
<path d="M104.823 4.30982C96.2479 -2.26227 76.2239 7.38018 76.3492 13.5814C76.4014 16.2341 80.1063 16.3902 87.0671 22.6988C95.3227 30.1805 95.707 35.029 99.2177 34.9607C104.126 34.8651 108.812 25.287 108.981 17.0168C109.044 13.9776 109.173 7.64369 104.823 4.30787V4.30982Z" fill="#313639"/>
<path d="M5.15797 1.73102C14.2135 -4.2516 33.448 6.70449 32.8507 12.8803C32.5959 15.5232 28.8889 15.4315 21.4624 21.2599C12.6555 28.1697 11.9015 32.9812 8.4055 32.6786C3.51645 32.255 -0.426529 22.3881 0.0371055 14.1296C0.206269 11.0924 0.563393 4.76624 5.15797 1.73102Z" fill="#313639"/>
<path d="M36.1174 57.3863C43.0529 57.3863 48.6752 51.6964 48.6752 44.6774C48.6752 37.6585 43.0529 31.9685 36.1174 31.9685C29.1819 31.9685 23.5596 37.6585 23.5596 44.6774C23.5596 51.6964 29.1819 57.3863 36.1174 57.3863Z" fill="#313639"/>
<path d="M71.7902 58.1104C78.7257 58.1104 84.348 52.4205 84.348 45.4015C84.348 38.3826 78.7257 32.6926 71.7902 32.6926C64.8547 32.6926 59.2324 38.3826 59.2324 45.4015C59.2324 52.4205 64.8547 58.1104 71.7902 58.1104Z" fill="#313639"/>
<path d="M55.8718 58.8794C53.3093 58.8716 52.027 58.8677 51.7137 59.4767C51.0997 60.6693 53.798 64.333 56.9933 64.1105C59.7062 63.9231 61.8949 60.9933 61.3122 59.7753C60.8924 58.895 59.0128 58.8892 55.8739 58.8774L55.8718 58.8794Z" fill="#313639"/>
<path d="M21.5151 58.5653C21.7407 58.4384 23.3697 57.5327 24.0025 58.0343C24.6791 58.5692 23.8458 60.4059 23.3634 61.2238C22.835 62.1197 22.1814 62.7248 21.7282 63.0839C21.1392 62.6799 20.2767 61.9811 19.5959 60.8919C19.4935 60.728 18.1193 58.4989 18.8148 57.9016C19.4476 57.359 21.4024 58.4989 21.5172 58.5653H21.5151Z" fill="#FC9493"/>
<path d="M85.7594 58.9185C85.5339 58.7917 83.9049 57.886 83.2721 58.3876C82.5954 58.9224 83.4287 60.7592 83.9111 61.577C84.4395 62.473 85.0932 63.0781 85.5464 63.4372C86.1353 63.0332 86.9979 62.3344 87.6787 61.2452C87.781 61.0812 89.1552 58.8522 88.4598 58.2549C87.827 57.7122 85.8722 58.8522 85.7573 58.9185H85.7594Z" fill="#FC9493"/>
<path d="M40.5703 68.8635C42.5836 70.1147 48.3351 73.3295 56.4237 73.1831C64.3932 73.0386 69.9443 69.7145 71.922 68.3989" stroke="#231F20" stroke-miterlimit="10" stroke-linecap="round"/>
<path d="M35.8067 48.997C38.1632 48.997 40.0734 47.2116 40.0734 45.0092C40.0734 42.8069 38.1632 41.0215 35.8067 41.0215C33.4503 41.0215 31.54 42.8069 31.54 45.0092C31.54 47.2116 33.4503 48.997 35.8067 48.997Z" fill="black"/>
<path d="M72.0802 50.3261C74.4366 50.3261 76.3469 48.5407 76.3469 46.3383C76.3469 44.136 74.4366 42.3506 72.0802 42.3506C69.7237 42.3506 67.8135 44.136 67.8135 46.3383C67.8135 48.5407 69.7237 50.3261 72.0802 50.3261Z" fill="black"/>
<path d="M33.9744 44.4333C34.3653 44.4333 34.6822 44.1125 34.6822 43.7167C34.6822 43.3209 34.3653 43 33.9744 43C33.5835 43 33.2666 43.3209 33.2666 43.7167C33.2666 44.1125 33.5835 44.4333 33.9744 44.4333Z" fill="white"/>
<path d="M70.0242 45.5952C70.4151 45.5952 70.732 45.2743 70.732 44.8785C70.732 44.4827 70.4151 44.1619 70.0242 44.1619C69.6333 44.1619 69.3164 44.4827 69.3164 44.8785C69.3164 45.2743 69.6333 45.5952 70.0242 45.5952Z" fill="white"/>
<path d="M47.1115 129C45.9169 127.497 42.9388 123.316 43.912 118.501C44.1542 117.308 44.5782 115.208 46.3993 114.314C48.8971 113.09 51.9525 115.151 52.0861 115.245C53.9407 116.533 54.492 118.364 54.6466 118.965C56.2505 115.571 59.3414 113.759 61.6136 114.314C64.3641 114.985 65.093 118.92 65.3102 120.095C66.1038 124.38 63.913 127.839 63.1069 128.988C57.7751 128.992 52.4433 128.996 47.1094 129H47.1115Z" fill="#FAF9F6"/>
</g>
<defs>
<clipPath id="clip0_2023_3323">
<rect width="109" height="129" fill="white"/>
</clipPath>
</defs>
</svg>
