<svg width="155" height="171" viewBox="0 0 155 171" fill="none" xmlns="http://www.w3.org/2000/svg">
<path d="M136.445 28.9412H18.7748C17.4829 28.9412 16.4355 29.9885 16.4355 31.2804V97.6935C16.4355 98.9855 17.4829 100.033 18.7748 100.033H136.445C137.737 100.033 138.784 98.9855 138.784 97.6935V31.2804C138.784 29.9885 137.737 28.9412 136.445 28.9412Z" fill="#007B6B"/>
<path d="M58.332 100.033C58.4077 105.456 58.4804 110.88 58.5561 116.3C70.4415 116.143 82.327 115.986 94.2124 115.829C94.2881 110.562 94.3608 105.296 94.4365 100.033H58.332Z" fill="#005046"/>
<path d="M29.9053 115.119H125.146C125.664 115.119 126.083 115.538 126.083 116.056V170.476H28.916V116.105C28.916 115.561 29.3583 115.119 29.9024 115.119H29.9053Z" fill="#007B6B"/>
<path d="M55.8094 145.817H101.224V170.476H54.375V147.255C54.375 146.463 55.018 145.817 55.8123 145.817H55.8094Z" fill="#005046"/>
<path d="M56.9492 147.304H98.8465C99.3382 147.304 99.7368 147.703 99.7368 148.194V170.476H55.957V148.293C55.957 147.746 56.4022 147.304 56.9463 147.304H56.9492Z" fill="#8CCBFC"/>
<path d="M80.6702 85.8924C75.8084 86.1543 72.5846 83.14 72.1016 82.6745C68.7295 79.4158 68.5956 75.2843 68.584 74.5016C75.9975 74.4347 83.4081 74.3707 90.8216 74.3037C90.8769 74.9758 91.1649 79.5293 87.7025 82.9218C84.9618 85.6073 81.6274 85.843 80.6702 85.8924Z" fill="#003A33"/>
<path d="M28.8425 120.757C28.2227 120.117 27.3324 119.882 26.6138 120.164C25.642 120.545 25.0746 121.84 25.5751 123.062C25.1474 122.218 24.2163 121.799 23.422 122.023C22.4619 122.291 21.8363 123.446 22.232 124.549C22.1214 124.394 21.3853 123.391 20.4485 123.434C19.3632 123.487 18.1877 124.941 18.3681 127.001C17.6728 125.814 16.1802 125.384 15.0251 125.963C13.774 126.588 13.2561 128.226 13.9864 129.53C12.744 128.971 11.3038 129.297 10.4949 130.272C9.56097 131.398 9.65116 133.169 10.7917 134.284C9.34566 133.69 7.78906 133.879 7.00349 134.729C5.90368 135.919 6.14518 138.584 8.34188 140.077C6.61943 139.058 4.74278 139.774 4.32962 140.819C3.96884 141.738 4.60603 143.242 6.11317 143.938C4.89699 143.766 3.73317 144.138 3.29092 144.904C2.66537 145.98 3.34621 148.049 5.44398 148.916C4.14633 148.381 2.72066 149.044 2.32496 150.179C1.99618 151.116 2.40642 152.256 3.36366 152.853C3.29674 152.885 2.04273 153.478 1.87689 154.857C1.76051 155.823 2.22603 156.78 3.06689 157.31C2.27549 157.374 1.6354 157.941 1.50738 158.648C1.35317 159.495 1.96126 160.394 2.9185 160.58C1.99326 160.734 1.29498 161.476 1.2106 162.364C1.13786 163.138 1.54811 163.9 2.24931 164.296C1.44046 164.342 0.727618 164.773 0.46576 165.41C0.0904299 166.324 0.663613 167.63 1.95254 168.084C1.07095 168.189 0.346472 168.701 0.0962522 169.422C-0.0550437 169.856 0.00314845 170.254 0.0613392 170.481C6.9453 170.481 13.8293 170.481 20.7103 170.481C20.7045 170.339 20.6638 169.71 20.1546 169.219C19.5 168.587 18.6329 168.718 18.5398 168.736C18.9617 168.5 19.2206 168.046 19.209 167.566C19.1974 167.1 18.9355 166.673 18.5223 166.452C18.9908 166.303 19.3196 165.879 19.3399 165.393C19.3574 164.93 19.0955 164.496 18.6707 164.296C19.4272 164.182 19.9975 163.638 20.0819 162.995C20.1633 162.39 19.7851 161.933 19.7094 161.843C20.2041 161.727 20.5852 161.331 20.6754 160.839C20.7714 160.313 20.5183 159.771 20.044 159.501C21.234 159.702 22.2989 158.925 22.4589 157.941C22.5811 157.179 22.1535 156.361 21.3824 155.937C22.0051 156.146 22.6743 155.899 22.9798 155.381C23.23 154.956 23.198 154.403 22.9041 153.97C23.9254 154.229 24.9175 153.708 25.2056 152.893C25.415 152.308 25.2463 151.622 24.7982 151.11C25.8689 150.662 26.4887 149.675 26.3577 148.77C26.2588 148.081 25.7555 147.647 25.578 147.508C26.6225 147.813 27.6845 147.371 28.1034 146.542C28.5632 145.631 28.0336 144.683 27.9929 144.61C28.3013 144.601 28.6126 144.592 28.921 144.584C28.8948 136.643 28.8716 128.703 28.8454 120.763L28.8425 120.757Z" fill="#005046"/>
<path d="M69.7852 75.6421C76.5382 75.5752 83.2883 75.5112 90.0414 75.4443C89.4653 80.3701 85.6887 84.2049 81.176 84.7548C75.9155 85.3949 70.6609 81.4496 69.7852 75.6421Z" fill="#005046"/>
<path d="M73.7871 75.517C73.8366 78.1298 73.886 80.7425 73.9355 83.3553" stroke="#003A33" stroke-width="2" stroke-miterlimit="10"/>
<path d="M80.5059 75.2406C80.5553 78.4906 80.6048 81.7405 80.6542 84.9905" stroke="#003A33" stroke-width="2" stroke-miterlimit="10"/>
<path d="M86.3418 74.4783C86.3913 77.4373 86.4407 80.3963 86.4902 83.3553" stroke="#003A33" stroke-width="2" stroke-miterlimit="10"/>
<path d="M37.9885 124.813C38.9863 124.813 39.7953 124.004 39.7953 123.006C39.7953 122.009 38.9863 121.2 37.9885 121.2C36.9906 121.2 36.1816 122.009 36.1816 123.006C36.1816 124.004 36.9906 124.813 37.9885 124.813Z" fill="#FEB650"/>
<path d="M42.549 124.813C43.5469 124.813 44.3558 124.004 44.3558 123.006C44.3558 122.009 43.5469 121.2 42.549 121.2C41.5511 121.2 40.7422 122.009 40.7422 123.006C40.7422 124.004 41.5511 124.813 42.549 124.813Z" fill="#FEB650"/>
<path d="M28.918 4.79782C31.6908 12.028 33.5209 17.9926 34.7109 22.255C35.7088 25.8309 36.6864 29.7442 37.7571 29.6831C38.5951 29.6336 39.0519 27.178 39.465 25.2257C40.2593 21.4811 41.6443 16.0694 44.2192 9.25523" stroke="#313639" stroke-width="2" stroke-miterlimit="10"/>
<path d="M28.1857 6.16822C29.889 6.16822 31.2698 4.78743 31.2698 3.08412C31.2698 1.38081 29.889 0 28.1857 0C26.4824 0 25.1016 1.38081 25.1016 3.08412C25.1016 4.78743 26.4824 6.16822 28.1857 6.16822Z" fill="#FEB650"/>
<path d="M44.3556 11.3996C46.0589 11.3996 47.4397 10.0188 47.4397 8.31549C47.4397 6.61218 46.0589 5.23138 44.3556 5.23138C42.6523 5.23138 41.2715 6.61218 41.2715 8.31549C41.2715 10.0188 42.6523 11.3996 44.3556 11.3996Z" fill="#FEB650"/>
<path d="M126.157 120.757C126.776 120.117 127.667 119.882 128.385 120.164C129.357 120.545 129.925 121.84 129.424 123.062C129.852 122.218 130.783 121.799 131.577 122.023C132.537 122.291 133.163 123.446 132.767 124.549C132.878 124.394 133.614 123.391 134.551 123.434C135.636 123.487 136.811 124.941 136.631 127.001C137.326 125.814 138.819 125.384 139.974 125.963C141.225 126.588 141.743 128.226 141.013 129.53C142.255 128.971 143.695 129.297 144.504 130.272C145.438 131.398 145.348 133.169 144.207 134.284C145.653 133.69 147.21 133.879 147.996 134.729C149.095 135.919 148.854 138.584 146.657 140.077C148.38 139.058 150.256 139.774 150.67 140.819C151.03 141.738 150.393 143.242 148.886 143.938C150.102 143.766 151.266 144.138 151.708 144.904C152.334 145.98 151.653 148.049 149.555 148.916C150.853 148.381 152.278 149.044 152.674 150.179C153.003 151.116 152.593 152.256 151.635 152.853C151.702 152.885 152.956 153.478 153.122 154.857C153.239 155.823 152.773 156.78 151.932 157.31C152.724 157.374 153.364 157.941 153.492 158.648C153.646 159.495 153.038 160.394 152.081 160.58C153.006 160.734 153.704 161.476 153.789 162.364C153.861 163.138 153.451 163.9 152.75 164.296C153.559 164.342 154.272 164.773 154.533 165.41C154.909 166.324 154.336 167.63 153.047 168.084C153.928 168.189 154.653 168.701 154.903 169.422C155.054 169.856 154.996 170.254 154.938 170.481C148.054 170.481 141.17 170.481 134.289 170.481C134.295 170.339 134.335 169.71 134.845 169.219C135.499 168.587 136.366 168.718 136.459 168.736C136.037 168.5 135.779 168.046 135.79 167.566C135.802 167.1 136.064 166.673 136.477 166.452C136.008 166.303 135.68 165.879 135.659 165.393C135.642 164.93 135.904 164.496 136.328 164.296C135.572 164.182 135.002 163.638 134.917 162.995C134.836 162.39 135.214 161.933 135.29 161.843C134.795 161.727 134.414 161.331 134.324 160.839C134.228 160.313 134.481 159.771 134.955 159.501C133.765 159.702 132.7 158.925 132.54 157.941C132.418 157.179 132.846 156.361 133.617 155.937C132.994 156.146 132.325 155.899 132.019 155.381C131.769 154.956 131.801 154.403 132.095 153.97C131.074 154.229 130.082 153.708 129.794 152.893C129.584 152.308 129.753 151.622 130.201 151.11C129.13 150.662 128.51 149.675 128.641 148.77C128.74 148.081 129.244 147.647 129.421 147.508C128.377 147.813 127.315 147.371 126.896 146.542C126.436 145.631 126.966 144.683 127.006 144.61C126.698 144.601 126.387 144.592 126.078 144.584C126.104 136.643 126.128 128.703 126.154 120.763L126.157 120.757Z" fill="#005046"/>
<path d="M50.6089 69.8493C56.9545 69.8493 62.0987 64.7051 62.0987 58.3595C62.0987 52.0139 56.9545 46.8698 50.6089 46.8698C44.2633 46.8698 39.1191 52.0139 39.1191 58.3595C39.1191 64.7051 44.2633 69.8493 50.6089 69.8493Z" fill="#313639"/>
<path d="M45.4225 52.1942C45.8403 52.1942 46.179 51.8555 46.179 51.4377C46.179 51.0199 45.8403 50.6812 45.4225 50.6812C45.0047 50.6812 44.666 51.0199 44.666 51.4377C44.666 51.8555 45.0047 52.1942 45.4225 52.1942Z" fill="white"/>
<path d="M104.244 69.8493C110.589 69.8493 115.733 64.7051 115.733 58.3595C115.733 52.0139 110.589 46.8698 104.244 46.8698C97.898 46.8698 92.7539 52.0139 92.7539 58.3595C92.7539 64.7051 97.898 69.8493 104.244 69.8493Z" fill="#313639"/>
<path d="M99.0553 52.1942C99.4731 52.1942 99.8118 51.8555 99.8118 51.4377C99.8118 51.0199 99.4731 50.6812 99.0553 50.6812C98.6375 50.6812 98.2988 51.0199 98.2988 51.4377C98.2988 51.8555 98.6375 52.1942 99.0553 52.1942Z" fill="white"/>
</svg>
