<svg width="88" height="182" viewBox="0 0 88 182" fill="none" xmlns="http://www.w3.org/2000/svg">
<path d="M14 182H58C57.8736 173.923 56.9373 161.932 52.9813 148.418C48.315 132.483 41.4907 121.397 36.8798 115C32.9986 120.082 28.606 126.864 24.6903 135.555C16.426 153.896 14.4672 171.47 14 182Z" fill="#1862A0"/>
<path d="M44 121C64.4345 121 81 104.211 81 83.5C81 62.7893 64.4345 46 44 46C23.5655 46 7 62.7893 7 83.5C7 104.211 23.5655 121 44 121Z" fill="#FEDBAF"/>
<path d="M8 75.4248C6.75234 72.7604 4.28072 71.5348 2.50486 72.1608C0.220829 72.9678 0.0186539 76.509 0.00590415 76.807C-0.145272 80.2577 2.63599 83.0559 4.98195 84.2382C5.86532 84.6832 6.67038 84.8925 7.24959 85C7.49912 81.8076 7.74865 78.6153 8 75.4229V75.4248Z" fill="#FEDBAF"/>
<path d="M80 75.8637C81.1215 72.9707 83.5162 71.5493 85.3022 72.1267C87.5994 72.8705 87.9516 76.6235 87.9768 76.9383C88.2748 80.597 85.6399 83.7045 83.3663 85.0778C82.5121 85.593 81.7211 85.8557 81.1522 86C80.7675 82.6219 80.3829 79.2438 80 75.8657V75.8637Z" fill="#FEDBAF"/>
<path d="M27 90C30.866 90 34 86.866 34 83C34 79.134 30.866 76 27 76C23.134 76 20 79.134 20 83C20 86.866 23.134 90 27 90Z" fill="#313639"/>
<path d="M65.5288 84.9004C66.1312 81.1896 63.6112 77.693 59.9004 77.0907C56.1896 76.4883 52.693 79.0082 52.0907 82.7191C51.4883 86.4299 54.0082 89.9265 57.7191 90.5288C61.4299 91.1312 64.9265 88.6113 65.5288 84.9004Z" fill="#313639"/>
<path d="M18.6476 102.08C15.6532 104.526 14.5672 107.538 14.5672 107.538C14.2283 108.475 13.3174 111.41 14.9119 116.699C17.0474 123.783 21.6998 128.525 24.4496 131.268C29.1231 135.93 31.4878 136.453 33.7428 140.867C34.3879 142.132 35.6299 144.562 36.0035 147.932C36.2885 150.497 36.4194 156.719 37.4785 160.164C37.5517 160.404 37.7192 160.921 38.0678 160.992C38.9593 161.175 40.0801 158.24 41.1661 156.362C43.0918 153.032 45.3332 152.306 51.245 148.274C56.1014 144.961 58.5278 143.306 60.6845 141.111C62.0421 139.73 70.3975 131.226 68.7972 122.596C67.95 118.029 66.29 114.41 66.29 114.41C65.7489 113.231 64.582 110.899 64.6667 107.784C64.6879 107.023 64.7688 106.746 64.7649 106.469C64.6918 100.841 29.5814 93.1521 18.6476 102.084V102.08Z" fill="white"/>
<path opacity="0.1" d="M42.3654 96.4485C44.5173 95.0555 47.7682 93.4694 51.5061 93.8862C54.3682 94.2065 54.9226 95.4105 59.7133 97.0891C63.5763 98.4416 66.7136 99.5395 70.3283 98.9124C74.7764 98.1387 77.2882 95.2137 77.8965 95.8581C78.4277 96.4215 76.8244 98.9935 75.1441 100.933C70.5612 106.221 64.4347 107.929 62.8583 108.322C51.3117 111.201 41.1605 104.051 39.5149 102.854C38.1868 103.657 32.0988 107.136 24.5749 105.268C23.6395 105.037 16.2446 103.082 12.78 96.352C11.1863 93.2572 10.3259 88.9603 11.6502 88.1249C13.0629 87.2334 15.2783 91.3509 21.0853 93.0025C25.1254 94.1525 29.5158 93.7126 31.7004 93.4945C35.1322 93.1511 37.5401 92.416 39.9075 93.8399C41.1625 94.5943 41.9189 95.6632 42.3654 96.4504V96.4485Z" fill="#E9E9EA"/>
<path opacity="0.03" d="M8 75C14.3173 72.8737 19.824 71.5547 24.0806 70.7095C29.612 69.6103 34.6906 68.6305 41.5216 68.6287C43.2722 68.6287 47.875 68.6912 53.7166 69.6444C60.2166 70.7057 62.5228 71.9337 70.0407 73.3702C74.2631 74.1775 77.749 74.5963 80 74.8219C79.6271 73.6128 79.256 72.4018 78.8831 71.1927C72.6228 68.045 59.1358 62.3293 41.3294 63.0646C26.166 63.69 14.7492 68.7083 8.71736 71.9015C8.47951 72.9343 8.24166 73.9672 8.00381 75H8Z" fill="#231F20"/>
<path d="M48.0611 0.00455385C45.0019 0.0901197 44.9348 7.35751 38.2302 20.3236C36.0521 24.5353 36.51 22.8982 26.0527 39.2241C18.7274 50.6576 15.0303 56.3601 12.4078 62.1406C9.5 67 8.79306 71.2752 8 74C19.3308 70.0602 29.154 68.8223 35.5905 68.4002C47.6243 67.613 57.1755 69.0752 64.3495 70.1723C70.7802 71.1554 76.1075 72.3628 80 73.3611C79.5901 69.8434 78.7031 64.3349 76.527 57.7672C74.7915 52.5249 73.4026 50.2526 67.1367 36.9766C63.2921 28.8345 61.3707 24.7616 59.3593 20.4377C51.5073 3.55459 50.2295 -0.0600967 48.0611 0.000750116V0.00455385Z" fill="#DB6162"/>
<path d="M49.7404 3.01305C47.9679 2.4679 44.956 19.0864 31.6091 37.4942C26.8785 44.017 22.5674 48.399 16.7206 58.5897C13.5739 64.0735 11.3799 68.8051 10 72C12.1728 70.9895 14.8749 69.9315 18.0582 69.1033C21.4165 68.2295 24.44 67.8344 26.9285 67.6711C41.2377 52.4943 44.8963 40.6017 46.0645 35.0173C46.6765 32.0864 47.2808 27.653 48.4163 19.3067C50.5526 3.61138 49.9945 3.08903 49.7424 3.01115L49.7404 3.01305Z" fill="#DC6764"/>
<path d="M51.9863 74.4685C52.1635 74.4609 52.4301 74.4247 52.6986 74.2742C53.0396 74.0819 53.1729 73.8229 53.3462 73.8686C53.5424 73.92 53.5195 74.2876 53.7024 74.3219C53.8966 74.3599 54.0185 73.9657 54.2528 73.9809C54.4966 73.9962 54.5556 74.4323 54.7708 74.4342C54.9956 74.4361 55.068 73.9695 55.2889 73.9638C55.5384 73.9581 55.5955 74.5447 55.9041 74.5961C56.2412 74.6514 56.464 74.0076 56.8126 74.0609C57.1078 74.1066 57.1192 74.598 57.4278 74.6437C57.7249 74.6894 57.8544 74.259 58.2067 74.2704C58.5572 74.2819 58.6105 74.718 58.9362 74.7409C59.3857 74.7732 59.6028 73.9657 60.0218 74.0114C60.2942 74.0419 60.2637 74.3904 60.6541 74.579C61.1341 74.8094 61.4884 74.4285 61.854 74.6761C62.1645 74.8856 62.0312 75.2418 62.3073 75.3732C62.7054 75.5636 63.2463 74.9561 63.4901 75.1465C63.6482 75.2703 63.4787 75.577 63.6367 75.697C63.871 75.876 64.3529 75.2722 64.8043 75.4208C65.1871 75.5465 65.1014 76.0684 65.5394 76.2341C65.9032 76.3712 66.1451 76.0817 66.4098 76.2626C66.6346 76.4169 66.5412 76.6836 66.7831 76.9597C66.9717 77.1749 67.2402 77.253 67.4478 77.2835" stroke="white" stroke-miterlimit="10" stroke-linecap="round"/>
<path d="M67.1319 76.3541C66.9643 76.2931 66.7224 76.1788 66.511 75.9522C66.2444 75.6646 66.1948 75.3789 66.0158 75.3694C65.8139 75.3599 65.7244 75.716 65.5377 75.6932C65.3416 75.6703 65.3435 75.2589 65.1149 75.2018C64.8788 75.1427 64.6902 75.5408 64.4826 75.476C64.2674 75.4094 64.3398 74.9428 64.1302 74.8704C63.8941 74.7904 63.6636 75.3313 63.3513 75.2856C63.0122 75.2361 62.997 74.5542 62.6485 74.5009C62.3533 74.4552 62.1952 74.9199 61.8847 74.8704C61.5876 74.8228 61.5952 74.3733 61.2562 74.28C60.9191 74.1847 60.7362 74.5828 60.4182 74.5066C59.9801 74.3999 60.0182 73.5657 59.6049 73.4819C59.3364 73.4286 59.2602 73.7695 58.8298 73.8305C58.3022 73.9048 58.0812 73.4343 57.6565 73.56C57.2965 73.6648 57.3156 74.0438 57.0128 74.0857C56.5766 74.1466 56.2433 73.4038 55.9538 73.5105C55.7653 73.581 55.8338 73.9238 55.6472 73.9905C55.3691 74.0895 55.0929 73.3696 54.6187 73.3734C54.2149 73.3772 54.1387 73.9009 53.6721 73.9257C53.2836 73.9467 53.1407 73.5962 52.8341 73.6895C52.5712 73.7676 52.5808 74.0514 52.2665 74.24C52.0208 74.3885 51.7428 74.3809 51.5352 74.3466" stroke="white" stroke-miterlimit="10" stroke-linecap="round"/>
<path d="M53.0586 74.4152C53.2357 74.3961 53.4909 74.3485 53.7709 74.2209C54.2375 74.0076 54.4813 73.7029 54.628 73.7886C54.7689 73.8705 54.6546 74.2209 54.7765 74.2685C54.9099 74.3219 55.0813 73.9124 55.327 73.9276C55.5708 73.9428 55.6298 74.379 55.845 74.3809C56.0698 74.3828 56.1421 73.9162 56.3631 73.9105C56.6126 73.9047 56.6697 74.4914 56.9782 74.5428C57.3058 74.5961 57.4963 73.9771 57.8867 74.0076C58.1839 74.0305 58.2124 74.3999 58.5248 74.4399C58.9362 74.4933 59.1723 73.9009 59.4885 73.9809C59.7875 74.0571 59.738 74.6247 60.0104 74.6894C60.3551 74.7694 60.6541 73.9086 61.096 73.96C61.3264 73.9866 61.3036 74.2266 61.7283 74.5275C62.014 74.7294 62.0845 74.6628 62.6501 74.9389C63.2158 75.2132 63.1606 75.2875 63.3815 75.3218C63.9529 75.4132 64.3471 74.9237 64.5643 75.0951C64.7223 75.2189 64.5528 75.5256 64.7109 75.6455C64.9452 75.8246 65.427 75.2208 65.8784 75.3694C66.1355 75.4551 66.0422 75.6417 66.6136 76.1826C66.8726 76.4264 67.0917 76.5769 67.3031 76.6874C67.444 76.7616 67.5678 76.8112 67.6573 76.8435" stroke="white" stroke-miterlimit="10" stroke-linecap="round"/>
<path d="M32 73.7079C31.8282 73.6989 31.5695 73.6566 31.3089 73.4807C30.9782 73.2557 30.8489 72.9528 30.6807 73.0062C30.4904 73.0664 30.5126 73.4962 30.3352 73.5363C30.1467 73.5809 30.0285 73.1198 29.8012 73.1376C29.5647 73.1555 29.5074 73.6655 29.2986 73.6678C29.0806 73.67 29.0103 73.1243 28.796 73.1176C28.554 73.1109 28.4985 73.797 28.1992 73.8571C27.8721 73.9217 27.656 73.1688 27.3178 73.2312C27.0314 73.2846 27.0203 73.8593 26.721 73.9128C26.4327 73.9662 26.3071 73.4628 25.9653 73.4762C25.6253 73.4896 25.5735 73.9997 25.2576 74.0264C24.8215 74.0642 24.6109 73.1198 24.2044 73.1733C23.9401 73.2089 23.9697 73.6165 23.5909 73.8371C23.1253 74.1066 22.7816 73.6611 22.4268 73.9507C22.1256 74.1957 22.255 74.6122 21.9871 74.7659C21.6009 74.9886 21.0761 74.2781 20.8396 74.5008C20.6863 74.6456 20.8507 75.0042 20.6973 75.1446C20.4701 75.3539 20.0026 74.6478 19.5647 74.8216C19.1933 74.9686 19.2764 75.5789 18.8514 75.7727C18.4985 75.9331 18.2639 75.5945 18.007 75.8061C17.789 75.9865 17.8795 76.2984 17.6449 76.6213C17.4619 76.873 17.2014 76.9644 17 77" stroke="white" stroke-miterlimit="10" stroke-linecap="round"/>
<path d="M18 76C18.1612 75.9387 18.3938 75.8236 18.5971 75.5955C18.8536 75.3061 18.9012 75.0185 19.0734 75.0089C19.2676 74.9994 19.3536 75.3578 19.5332 75.3348C19.7218 75.3118 19.72 74.8978 19.9398 74.8403C20.1669 74.7808 20.3483 75.1815 20.5479 75.1163C20.7549 75.0492 20.6853 74.5796 20.8868 74.5067C21.1139 74.4262 21.3356 74.9706 21.636 74.9246C21.962 74.8748 21.9767 74.1885 22.3119 74.1348C22.5958 74.0888 22.7478 74.5566 23.0464 74.5067C23.3322 74.4588 23.3248 74.0064 23.6509 73.9125C23.9751 73.8166 24.1509 74.2173 24.4568 74.1406C24.8781 74.0332 24.8415 73.1936 25.239 73.1093C25.4973 73.0556 25.5705 73.3987 25.9845 73.4601C26.4919 73.5348 26.7044 73.0614 27.1128 73.1879C27.459 73.2933 27.4407 73.6748 27.732 73.7169C28.1514 73.7783 28.472 73.0307 28.7504 73.138C28.9317 73.209 28.8658 73.554 29.0453 73.6211C29.3127 73.7208 29.5783 72.9962 30.0344 73C30.4228 73.0038 30.496 73.531 30.9448 73.5559C31.3185 73.577 31.4559 73.2243 31.7508 73.3182C32.0035 73.3968 31.9944 73.6824 32.2966 73.8722C32.5329 74.0217 32.8003 74.0141 33 73.9796" stroke="white" stroke-miterlimit="10" stroke-linecap="round"/>
<path d="M32 73.8358C31.818 73.811 31.5558 73.7489 31.2681 73.5827C30.7887 73.3047 30.5382 72.9076 30.3875 73.0193C30.2427 73.126 30.3601 73.5827 30.2348 73.6447C30.0978 73.7142 29.9217 73.1806 29.6693 73.2005C29.4188 73.2203 29.3581 73.7886 29.137 73.7911C28.9061 73.7936 28.8317 73.1856 28.6047 73.1781C28.3483 73.1707 28.2896 73.9351 27.9726 74.0021C27.636 74.0716 27.4403 73.265 27.0391 73.3047C26.7339 73.3345 26.7045 73.8159 26.3836 73.8681C25.9609 73.9375 25.7182 73.1657 25.3933 73.27C25.0861 73.3692 25.137 74.1088 24.8571 74.1932C24.5029 74.2974 24.1957 73.1757 23.7417 73.2427C23.5049 73.2774 23.5284 73.5901 23.092 73.9822C22.7984 74.2453 22.726 74.1584 22.1448 74.5183C21.5636 74.8756 21.6203 74.9724 21.3933 75.0171C20.8063 75.1362 20.4012 74.4984 20.1781 74.7218C20.0157 74.8831 20.1898 75.2826 20.0274 75.439C19.7867 75.6723 19.2916 74.8856 18.8278 75.0791C18.5636 75.1908 18.6595 75.434 18.0724 76.1388C17.8063 76.4565 17.5812 76.6526 17.364 76.7965C17.2192 76.8933 17.092 76.9578 17 77" stroke="white" stroke-miterlimit="10" stroke-linecap="round"/>
<path d="M18 76C18.1548 75.9285 18.3752 75.8063 18.5919 75.6013C18.9543 75.2589 19.0855 74.8997 19.2439 74.9354C19.3969 74.9693 19.3951 75.3342 19.5208 75.3417C19.6573 75.3511 19.6938 74.9147 19.9214 74.8546C20.1473 74.7962 20.3294 75.1875 20.5261 75.1235C20.7319 75.0577 20.659 74.5969 20.8594 74.5235C21.0834 74.4426 21.3092 74.9768 21.6061 74.9298C21.9193 74.8809 21.9102 74.2414 22.2745 74.1511C22.5513 74.0834 22.6861 74.4201 22.983 74.3636C23.3727 74.2884 23.4128 73.6602 23.7242 73.6395C24.0174 73.6207 24.1413 74.1699 24.4072 74.1455C24.7441 74.1172 24.7623 73.2163 25.1812 73.1298C25.3998 73.0847 25.4471 73.3179 25.9225 73.4702C26.2412 73.5737 26.2867 73.489 26.8823 73.5756C27.4778 73.6621 27.4505 73.7486 27.6618 73.7129C28.2081 73.6245 28.4231 73.0452 28.6707 73.1392C28.851 73.2069 28.7873 73.5474 28.9658 73.6132C29.2317 73.711 29.4921 72.9963 29.9474 73C30.2061 73 30.1769 73.2069 30.8563 73.5417C31.164 73.6922 31.4081 73.7655 31.6321 73.8069C31.7833 73.8332 31.9108 73.8426 32 73.8464" stroke="white" stroke-miterlimit="10" stroke-linecap="round"/>
<path d="M53 74.6268C53.182 74.6082 53.4442 74.5617 53.7319 74.437C54.2113 74.2285 54.4618 73.9307 54.6125 74.0145C54.7573 74.0945 54.6399 74.437 54.7652 74.4835C54.9022 74.5357 55.0783 74.1355 55.3307 74.1504C55.5812 74.1652 55.6419 74.5915 55.863 74.5933C56.0939 74.5952 56.1683 74.1392 56.3953 74.1336C56.6517 74.128 56.7104 74.7013 57.0274 74.7516C57.364 74.8037 57.5597 74.1988 57.9609 74.2285C58.2661 74.2509 58.2955 74.612 58.6164 74.651C59.0391 74.7032 59.2818 74.1243 59.6067 74.2025C59.9139 74.2769 59.863 74.8316 60.1429 74.8949C60.4971 74.973 60.8043 74.1318 61.2583 74.182C61.4951 74.2081 61.4716 74.4426 61.908 74.7367C62.2016 74.934 62.274 74.8688 62.8552 75.1387C63.4364 75.4067 63.3796 75.4793 63.6067 75.5128C64.1937 75.6022 64.5988 75.1238 64.8219 75.2913C64.9843 75.4123 64.8102 75.712 64.9726 75.8292C65.2133 76.0042 65.7084 75.4142 66.1722 75.5594C66.4364 75.6431 66.3405 75.8255 66.9276 76.3541C67.1937 76.5924 67.4188 76.7394 67.636 76.8474C67.7808 76.92 67.908 76.9684 68 77" stroke="white" stroke-miterlimit="10" stroke-linecap="round"/>
<path d="M24 82C24.5523 82 25 81.5523 25 81C25 80.4477 24.5523 80 24 80C23.4477 80 23 80.4477 23 81C23 81.5523 23.4477 82 24 82Z" fill="white"/>
<path d="M56 82C56.5523 82 57 81.5523 57 81C57 80.4477 56.5523 80 56 80C55.4477 80 55 80.4477 55 81C55 81.5523 55.4477 82 56 82Z" fill="white"/>
<path opacity="0.03" d="M4.86884 74.2347C4.11328 73.7666 2.98388 74.0076 2.39868 74.8782C1.82136 75.7387 1.99487 76.8842 2.15734 77.9639C2.38448 79.4659 3.14162 82.0277 4.14483 81.9998C5.01396 81.9759 5.58812 80.0217 5.67487 79.7288C6.19856 77.9519 6.19541 75.0554 4.86884 74.2367V74.2347Z" fill="#231F20"/>
<path opacity="0.03" d="M82.4139 74.2347C83.3584 73.7666 84.7701 74.0076 85.5017 74.8781C86.2233 75.7387 86.0064 76.8842 85.8033 77.9639C85.5194 79.4659 84.573 82.0277 83.319 81.9998C82.2326 81.9759 81.5149 80.0217 81.4064 79.7288C80.7518 77.9519 80.7557 75.0554 82.4139 74.2367V74.2347Z" fill="#231F20"/>
<path d="M39.7866 102.005C37.8859 101.925 36.4659 102.876 35.7619 103.641C35.4435 103.985 35.1088 104.349 35.0215 104.893C34.7761 106.404 36.6971 107.654 37.3787 108.099C38.1252 108.586 38.7764 109.01 39.7014 109C40.734 108.989 41.448 108.45 42.1702 107.904C42.8437 107.395 44.004 106.52 44 105.248C44 104.672 43.7586 104.243 43.6409 104.039C42.9634 102.864 41.3973 102.071 39.7846 102.003L39.7866 102.005Z" fill="#F38097"/>
<path d="M42.3654 96.4485C44.5173 95.0555 47.7682 93.4694 51.5061 93.8862C54.3682 94.2065 54.9226 95.4105 59.7133 97.0891C63.5763 98.4416 66.7136 99.5395 70.3283 98.9124C74.7764 98.1387 77.2882 95.2137 77.8965 95.8581C78.4277 96.4215 76.8244 98.9935 75.1441 100.933C70.5612 106.221 64.4347 107.929 62.8583 108.322C51.3117 111.201 41.1605 104.051 39.5149 102.854C38.1868 103.657 32.0988 107.136 24.5749 105.268C23.6395 105.037 16.2446 103.082 12.78 96.352C11.1863 93.2572 10.3259 88.9603 11.6502 88.1249C13.0629 87.2334 15.2783 91.3509 21.0853 93.0025C25.1254 94.1525 29.5158 93.7126 31.7004 93.4945C35.1322 93.1511 37.5401 92.416 39.9075 93.8399C41.1625 94.5943 41.9189 95.6632 42.3654 96.4504V96.4485Z" fill="white"/>
</svg>
