<svg width="52" height="50" viewBox="0 0 52 50" fill="none" xmlns="http://www.w3.org/2000/svg">
<g clip-path="url(#clip0_2068_2805)">
<path fill-rule="evenodd" clip-rule="evenodd" d="M32.7734 32.9208C37.5509 45.8015 30.4789 53.3109 16.8549 48.5746C4.82991 44.3955 3.46492 35.1691 13.6634 27.6597C21.3594 21.9904 29.3609 23.7074 32.7734 32.9208Z" fill="#8E694F"/>
<path fill-rule="evenodd" clip-rule="evenodd" d="M23.3536 0.0648355C26.7401 0.686839 28.6966 5.46201 27.7281 10.7361C26.7596 16.0101 23.2236 19.7875 19.8371 19.1655C16.4506 18.5435 14.4941 13.7683 15.4626 8.49428C16.4376 3.22021 19.9671 -0.550689 23.3536 0.0648355Z" fill="#8E694F"/>
<path fill-rule="evenodd" clip-rule="evenodd" d="M40.5792 5.49439C43.8032 6.69952 44.8822 11.7468 42.9907 16.7682C41.0992 21.7896 36.9522 24.8802 33.7282 23.675C30.5042 22.4699 29.4252 17.4226 31.3167 12.4012C33.2082 7.37984 37.3552 4.28926 40.5792 5.49439Z" fill="#8E694F"/>
<path fill-rule="evenodd" clip-rule="evenodd" d="M49.6139 22.7031C52.5779 24.4265 52.8119 29.26 50.1469 33.5039C47.4754 37.7478 42.9059 39.7887 39.9419 38.0653C36.9779 36.3418 36.7439 31.5083 39.4089 27.2644C42.0804 23.0205 46.6499 20.9796 49.6139 22.7031Z" fill="#8E694F"/>
<path fill-rule="evenodd" clip-rule="evenodd" d="M6.75346 9.01269C3.33446 8.6952 0.324962 12.492 0.0259623 17.494C-0.273038 22.4959 2.25546 26.8046 5.66796 27.1156C9.08696 27.4331 12.0965 23.6298 12.3955 18.6343C12.6945 13.6324 10.166 9.32369 6.75346 9.01269Z" fill="#8E694F"/>
</g>
<defs>
<clipPath id="clip0_2068_2805">
<rect width="52" height="50" fill="white"/>
</clipPath>
</defs>
</svg>
