<svg width="58" height="58" viewBox="0 0 58 58" fill="none" xmlns="http://www.w3.org/2000/svg">
<path d="M29 0C12.992 0 0 12.992 0 29C0 45.008 12.992 58 29 58C45.008 58 58 45.008 58 29C58 12.992 45.008 0 29 0ZM39.15 31.175H24.099L29.087 36.163C29.928 37.004 29.928 38.396 29.087 39.237C28.652 39.672 28.101 39.875 27.55 39.875C26.999 39.875 26.448 39.672 26.013 39.237L17.313 30.537C16.9085 30.1277 16.6817 29.5754 16.6817 29C16.6817 28.4246 16.9085 27.8723 17.313 27.463L26.013 18.763C26.854 17.922 28.246 17.922 29.087 18.763C29.928 19.604 29.928 20.996 29.087 21.837L24.099 26.825H39.15C40.339 26.825 41.325 27.811 41.325 29C41.325 30.189 40.339 31.175 39.15 31.175Z" fill="#FAF9F6"/>
</svg>
