<svg width="65" height="50" viewBox="0 0 65 50" fill="none" xmlns="http://www.w3.org/2000/svg">
<path d="M65 50H0V6.06338L0.695375 4.39685H64.3002L65 6.37998V50Z" fill="#4F7A54"/>
<path d="M64.3002 4.2605H0.695312V48.8875H64.3002V4.2605Z" fill="#98CD9E"/>
<path d="M59.639 1.26599L32.4973 5.45211L5.14001 1.26599L2.93945 6.90757V47.2385C2.93945 47.2385 25.2971 42.1949 32.4973 46.1436C39.7019 42.1949 62.0552 47.2385 62.0552 47.2385V6.90757L59.6346 1.26599H59.639Z" fill="#FAF9F6"/>
<path d="M59.639 1.26599L32.4973 5.45211L5.14001 1.26599L2.93945 6.90757V47.2385C2.93945 47.2385 25.2971 42.1949 32.4973 46.1436C39.7019 42.1949 62.0552 47.2385 62.0552 47.2385V6.90757L59.6346 1.26599H59.639Z" fill="#313639" fill-opacity="0.15"/>
<path d="M32.1625 4.26056C23.0302 -2.06258 14.206 0.237144 5.13968 1.26608C5.27171 15.8076 5.00764 29.6015 5.13968 44.143C16.9743 38.5981 32.2945 45.3962 32.2945 45.3962C32.2945 45.3962 47.2451 38.1716 59.8763 44.3584C60.0083 29.817 59.3173 15.8076 59.4494 1.27048C49.6261 0.157995 41.7173 -1.52612 32.1581 4.26056H32.1625Z" fill="#FAF9F6"/>
<path d="M32.1625 4.26056C23.0302 -2.06258 14.206 0.237144 5.13968 1.26608C5.27171 15.8076 5.00764 29.6015 5.13968 44.143C16.9743 38.5981 32.2945 45.3962 32.2945 45.3962C32.2945 45.3962 47.2451 38.1716 59.8763 44.3584C60.0083 29.817 59.3173 15.8076 59.4494 1.27048C49.6261 0.157995 41.7173 -1.52612 32.1581 4.26056H32.1625Z" fill="#313639" fill-opacity="0.05"/>
</svg>
