<svg width="21" height="21" viewBox="0 0 21 21" fill="none" xmlns="http://www.w3.org/2000/svg">
<path fill-rule="evenodd" clip-rule="evenodd" d="M10.5 21C16.299 21 21 16.299 21 10.5C21 4.70101 16.299 0 10.5 0C4.70101 0 0 4.70101 0 10.5C0 16.299 4.70101 21 10.5 21ZM10.7917 5.25C10.7917 4.76675 10.3999 4.375 9.91667 4.375C9.43342 4.375 9.04167 4.76675 9.04167 5.25V11.0833V11.4458L9.29795 11.7021L12.7979 15.2021C13.1397 15.5438 13.6937 15.5438 14.0354 15.2021C14.3771 14.8603 14.3771 14.3063 14.0354 13.9646L10.7917 10.7209V5.25Z" fill="#313639"/>
</svg>
