<svg width="82" height="50" viewBox="0 0 82 50" fill="none" xmlns="http://www.w3.org/2000/svg">
<path d="M38.9386 27.2754C39.5715 17.5908 44.464 8.41863 49.909 0.592633C50.4716 -0.211064 51.4461 -0.160833 52.0187 0.592633C52.8827 1.7379 53.385 3.14437 54.3294 4.28964C55.7861 6.07786 57.5642 7.846 59.4027 9.21228C60.116 9.74473 60.8996 10.237 61.7033 10.6991C64.476 12.0152 67.51 12.8289 70.4435 13.7029C72.9852 14.4564 75.4264 15.1697 78.0686 15.461C78.9828 15.5615 80.2285 15.461 80.8614 16.2446C81.5647 17.1186 81.0222 18.4347 80.8212 19.3991C80.4093 21.3983 80.0276 23.3674 79.254 25.2661C76.421 32.2683 72.503 37.6431 66.9575 42.7063C64.0943 45.3083 60.7388 47.3075 57.0217 48.4327C54.3695 49.2364 51.5968 50.241 48.7638 49.9497C45.8102 49.6483 43.1278 48.1514 41.9625 45.3686C40.2747 41.32 39.5112 37.1106 39.039 32.7606C38.8381 30.9221 38.808 29.0937 38.9285 27.2754H38.9386Z" fill="#6FBEFB"/>
<path d="M63.7333 26.1101C63.7534 26.6024 63.884 27.0947 64.1653 27.5568C65.0594 29.0135 66.938 29.777 68.5052 28.9231C69.9418 28.1294 70.6752 26.0599 69.8213 24.6233C69.7007 24.4224 69.55 24.2315 69.3893 24.0607C69.0578 23.4177 68.465 22.8953 67.7518 22.6944C67.2494 22.5538 66.7974 22.5739 66.3654 22.7045C64.9489 22.7848 63.663 23.8095 63.6328 25.3165C63.6328 25.5877 63.6629 25.859 63.7333 26.1202V26.1101Z" fill="#313639"/>
<path d="M47.7887 18.8567C47.7887 18.8567 47.7486 18.7763 47.7285 18.7361C47.2261 17.6813 47.4572 16.536 48.0499 15.5816C48.1805 15.3606 48.3312 15.1496 48.502 14.9587C49.2856 14.0546 50.5816 13.7532 51.6766 14.1349C52.2091 14.2655 52.6913 14.5267 53.1032 14.9487C53.6557 15.5113 54.0274 16.3049 54.0174 17.0986C54.0576 17.3296 54.0777 17.5507 54.0676 17.7918C54.0274 19.4393 52.7114 20.9061 51.0437 20.9764C50.4208 21.0066 49.6272 20.8358 49.0947 20.5042C48.6025 20.2029 48.3111 19.8111 48.07 19.3188C48.07 19.3087 48.0499 19.2987 48.0399 19.2887C48.0198 19.2686 47.9897 19.2284 47.9394 19.158C47.9394 19.158 47.9394 19.158 47.9394 19.148C47.9294 19.1279 47.9093 19.1078 47.8892 19.0877C47.849 19.0174 47.8189 18.9471 47.7787 18.8768L47.7887 18.8567Z" fill="#313639"/>
<path d="M59.3625 41.3503C59.1516 41.7723 58.6794 42.0736 58.1972 41.9732C57.4739 41.8325 57.1926 41.6015 56.7505 41.0087C56.3487 40.4663 56.198 39.763 55.8464 39.1904C55.7057 38.9593 55.5349 38.7383 55.3642 38.5374C54.7212 37.9045 53.9878 37.362 53.1942 36.9501C50.4717 35.5436 47.8496 35.835 44.9261 36.0459C44.253 36.0962 43.8713 35.5737 43.8914 34.9509C44.1024 29.6364 51.0242 27.0144 55.1833 29.5159C59.0411 31.8265 61.5627 36.8597 59.3625 41.3302V41.3503Z" fill="#313639"/>
<path d="M43.1179 27.2754C42.485 17.5908 37.5925 8.41863 32.1475 0.592633C31.5849 -0.211064 30.6104 -0.160833 30.0378 0.592633C29.1738 1.7379 28.6715 3.14437 27.7271 4.28964C26.2704 6.07786 24.4922 7.846 22.6538 9.21228C21.9405 9.74473 21.1569 10.237 20.3532 10.6991C17.5805 12.0152 14.5465 12.8289 11.613 13.7029C9.07131 14.4564 6.63008 15.1697 3.98792 15.461C3.07372 15.5615 1.82799 15.461 1.19508 16.2446C0.491841 17.1187 1.03434 18.4347 1.23526 19.3991C1.64716 21.3983 2.02891 23.3674 2.80247 25.2661C5.6355 32.2683 9.55353 37.6431 15.099 42.7064C17.9622 45.3083 21.3176 47.3075 25.0347 48.4327C27.6869 49.2364 30.4597 50.241 33.2927 49.9497C36.2463 49.6483 38.9287 48.1514 40.094 45.3686C41.7818 41.32 42.5453 37.1106 43.0175 32.7606C43.2184 30.9221 43.2485 29.0937 43.128 27.2754H43.1179Z" fill="#FFEA56"/>
<path d="M18.4256 25.3166C18.3954 23.8096 17.1095 22.7749 15.693 22.7045C15.271 22.5739 14.8089 22.5438 14.3066 22.6945C13.5933 22.8954 13.0006 23.4178 12.6691 24.0608C12.5083 24.2416 12.3576 24.4325 12.2371 24.6234C11.3832 26.06 12.1165 28.1295 13.5531 28.9232C15.1103 29.7871 16.999 29.0136 17.8931 27.5569C18.1744 27.1048 18.305 26.6025 18.3251 26.1102C18.3854 25.849 18.4256 25.5878 18.4256 25.3065V25.3166Z" fill="#313639"/>
<path d="M34.2678 18.8567C34.2678 18.8567 34.308 18.7763 34.328 18.7361C34.8304 17.6813 34.5993 16.536 34.0066 15.5816C33.876 15.3606 33.7253 15.1496 33.5545 14.9587C32.7709 14.0546 31.4749 13.7532 30.3799 14.1349C29.8474 14.2655 29.3652 14.5267 28.9533 14.9487C28.4008 15.5113 28.0291 16.3049 28.0391 17.0986C27.9989 17.3296 27.9788 17.5507 27.9889 17.7918C28.0291 19.4393 29.3451 20.9061 31.0128 20.9764C31.6357 21.0066 32.4293 20.8358 32.9618 20.5042C33.454 20.2029 33.7454 19.8111 33.9865 19.3188C33.9865 19.3087 34.0066 19.2987 34.0166 19.2887C34.0367 19.2686 34.0668 19.2284 34.1171 19.158C34.1171 19.158 34.1171 19.158 34.1171 19.148C34.1271 19.1279 34.1472 19.1078 34.1673 19.0877C34.2075 19.0174 34.2376 18.9471 34.2778 18.8768L34.2678 18.8567Z" fill="#313639"/>
<path d="M35.6442 26.0698C35.393 25.678 34.8806 25.4269 34.4185 25.5675C33.7153 25.7886 33.4541 26.0498 33.0824 26.6827C32.7408 27.2653 32.6705 27.9786 32.3791 28.5814C32.2586 28.8326 32.1179 29.0636 31.9672 29.2746C31.3946 29.9678 30.7215 30.5906 29.9781 31.0829C27.4264 32.7606 24.7842 32.7506 21.8507 32.851C21.1776 32.8711 20.8461 33.4337 20.9365 34.0465C21.7101 39.3108 28.863 41.1894 32.7408 38.2559C36.3273 35.5535 38.3064 30.2792 35.6442 26.0598V26.0698Z" fill="#313639"/>
</svg>
