<svg width="49" height="50" viewBox="0 0 49 50" fill="none" xmlns="http://www.w3.org/2000/svg">
<g clip-path="url(#clip0_2068_2821)">
<path d="M47.5409 9.66827C46.0876 8.22493 43.9644 7.86153 42.1709 8.56785C43.5211 6.40284 43.2532 3.52128 41.3618 1.64288C39.1509 -0.552836 35.5692 -0.552836 33.3583 1.64288C31.3072 3.67994 31.1629 6.88395 32.9151 9.08991L8.5182 33.3196C6.57016 31.3849 3.41103 31.3849 1.46299 33.3196C-0.485058 35.2543 -0.485058 38.3918 1.46299 40.3265C2.91629 41.7698 5.0344 42.1332 6.83299 41.4269C5.48276 43.5919 5.75074 46.4683 7.6421 48.3519C9.85297 50.5476 13.4347 50.5476 15.6456 48.3519C17.6967 46.3148 17.841 43.1108 16.0888 40.9048L40.4857 16.6751C42.4337 18.6098 45.5929 18.6098 47.5409 16.6751C49.489 14.7404 49.489 11.603 47.5409 9.66827Z" fill="#FFD496"/>
</g>
<defs>
<clipPath id="clip0_2068_2821">
<rect width="49" height="50" fill="white"/>
</clipPath>
</defs>
</svg>
