<svg width="32" height="32" viewBox="0 0 32 32" fill="none" xmlns="http://www.w3.org/2000/svg">
<path d="M16 0C7.16 0 0 7.16 0 16C0 24.84 7.16 32 16 32C24.84 32 32 24.84 32 16C32 7.16 24.84 0 16 0ZM24 19.66C24 20.67 24 21.17 23.89 21.59C23.6 22.71 22.73 23.59 21.63 23.89C21.22 24 20.73 24 19.73 24C19.24 24 18.99 24 18.79 23.94C18.23 23.79 17.8 23.35 17.66 22.79C17.6 22.59 17.6 22.33 17.6 21.83V20.75C17.6 19.98 17.6 19.59 17.37 19.36C17.14 19.13 16.76 19.12 16 19.12C15.24 19.12 14.87 19.12 14.64 19.36C14.4 19.59 14.4 19.98 14.4 20.75V21.83C14.4 22.33 14.4 22.59 14.35 22.79C14.2 23.35 13.77 23.79 13.22 23.94C13.01 24 12.76 24 12.27 24C11.28 24 10.78 24 10.37 23.89C9.27 23.59 8.41 22.71 8.11 21.59C8 21.17 8 20.67 8 19.66V16.3C8 14.5 8 13.6 8.42 12.85C8.83 12.1 9.59 11.64 11.11 10.71L14.35 8.73C15.16 8.24 15.56 8 16 8C16.44 8 16.85 8.24 17.65 8.73L20.89 10.71C22.41 11.64 23.17 12.1 23.59 12.85C24 13.6 24 14.5 24 16.3V19.66Z" fill="#FBFAF7"/>
</svg>
