<svg width="81" height="50" viewBox="0 0 81 50" fill="none" xmlns="http://www.w3.org/2000/svg">
<g clip-path="url(#clip0_2068_2823)">
<path d="M38.0948 27.2754C38.7277 17.5908 43.6202 8.41863 49.0653 0.592633C49.6279 -0.211064 50.6023 -0.160833 51.175 0.592633C52.039 1.7379 52.5413 3.14437 53.4856 4.28964C54.9423 6.07786 56.7205 7.846 58.559 9.21228C59.2722 9.74473 60.0558 10.237 60.8595 10.6991C63.6323 12.0152 66.6662 12.8289 69.5997 13.7029C72.1414 14.4564 74.5827 15.1697 77.2248 15.461C78.139 15.5615 79.3848 15.461 80.0177 16.2446C80.7209 17.1187 80.1784 18.4347 79.9775 19.3991C79.5656 21.3983 79.1838 23.3674 78.4103 25.2661C75.5772 32.2683 71.6592 37.6431 66.1137 42.7063C63.2505 45.3083 59.8951 47.3075 56.178 48.4327C53.5258 49.2364 50.753 50.241 47.92 49.9497C44.9664 49.6483 42.2841 48.1514 41.1187 45.3686C39.431 41.32 38.6674 37.1106 38.1953 32.7606C37.9944 30.9221 37.9642 29.0937 38.0848 27.2754H38.0948Z" fill="#6FBEFB"/>
<path d="M62.8895 26.1101C62.9096 26.6024 63.0402 27.0947 63.3215 27.5568C64.2156 29.0135 66.0943 29.777 67.6615 28.9231C69.0981 28.1294 69.8315 26.0599 68.9775 24.6233C68.857 24.4224 68.7063 24.2315 68.5455 24.0607C68.214 23.4177 67.6213 22.8953 66.908 22.6944C66.4057 22.5538 65.9536 22.5739 65.5216 22.7045C64.1051 22.7848 62.8192 23.8096 62.7891 25.3165C62.7891 25.5877 62.8192 25.859 62.8895 26.1202V26.1101Z" fill="#313639"/>
<path d="M46.945 18.8567C46.945 18.8567 46.9048 18.7763 46.8847 18.7361C46.3824 17.6813 46.6135 16.536 47.2062 15.5816C47.3368 15.3606 47.4875 15.1496 47.6583 14.9587C48.4419 14.0546 49.7378 13.7532 50.8329 14.1349C51.3653 14.2655 51.8475 14.5267 52.2594 14.9487C52.812 15.5113 53.1837 16.3049 53.1736 17.0986C53.2138 17.3296 53.2339 17.5507 53.2239 17.7918C53.1837 19.4393 51.8676 20.9061 50.2 20.9764C49.5771 21.0066 48.7834 20.8358 48.251 20.5042C47.7587 20.2029 47.4674 19.8111 47.2263 19.3188C47.2263 19.3087 47.2062 19.2987 47.1961 19.2887C47.1761 19.2686 47.1459 19.2284 47.0957 19.158C47.0957 19.158 47.0957 19.158 47.0957 19.148C47.0856 19.1279 47.0655 19.1078 47.0455 19.0877C47.0053 19.0174 46.9751 18.9471 46.9349 18.8768L46.945 18.8567Z" fill="#313639"/>
<path d="M58.5188 41.3503C58.3078 41.7723 57.8357 42.0736 57.3534 41.9732C56.6301 41.8325 56.3488 41.6015 55.9068 41.0087C55.5049 40.4663 55.3542 39.763 55.0026 39.1904C54.862 38.9593 54.6912 38.7383 54.5204 38.5374C53.8774 37.9045 53.1441 37.362 52.3504 36.9501C49.6279 35.5436 47.0058 35.835 44.0824 36.0459C43.4093 36.0962 43.0275 35.5737 43.0476 34.9509C43.2586 29.6364 50.1804 27.0144 54.3396 29.5159C58.1973 31.8265 60.7189 36.8597 58.5188 41.3302V41.3503Z" fill="#313639"/>
<path d="M42.2742 27.2754C41.6413 17.5908 36.7488 8.41863 31.3037 0.592633C30.7411 -0.211064 29.7666 -0.160833 29.194 0.592633C28.33 1.7379 27.8277 3.14437 26.8834 4.28964C25.4267 6.07786 23.6485 7.846 21.81 9.21228C21.0968 9.74473 20.3132 10.237 19.5095 10.6991C16.7367 12.0152 13.7027 12.8289 10.7692 13.7029C8.22756 14.4564 5.78633 15.1697 3.14417 15.461C2.22997 15.5615 0.984237 15.461 0.351326 16.2446C-0.351909 17.1187 0.190587 18.4347 0.391511 19.3991C0.803406 21.3983 1.18516 23.3674 1.95872 25.2661C4.79175 32.2683 8.70977 37.6431 14.2553 42.7063C17.1185 45.3083 20.4739 47.3075 24.191 48.4327C26.8432 49.2364 29.6159 50.241 32.449 49.9497C35.4026 49.6483 38.0849 48.1514 39.2503 45.3686C40.938 41.32 41.7015 37.1106 42.1737 32.7606C42.3746 30.9221 42.4048 29.0937 42.2842 27.2754H42.2742Z" fill="#FFEA56"/>
<path d="M17.5818 25.3166C17.5517 23.8096 16.2657 22.7749 14.8492 22.7045C14.4273 22.5739 13.9652 22.5438 13.4629 22.6945C12.7496 22.8954 12.1568 23.4178 11.8253 24.0608C11.6646 24.2416 11.5139 24.4325 11.3933 24.6234C10.5394 26.06 11.2728 28.1295 12.7094 28.9232C14.2665 29.7871 16.1552 29.0136 17.0494 27.5569C17.3306 27.1048 17.4612 26.6025 17.4813 26.1102C17.5416 25.849 17.5818 25.5878 17.5818 25.3065V25.3166Z" fill="#313639"/>
<path d="M33.424 18.8567C33.424 18.8567 33.4642 18.7763 33.4843 18.7361C33.9866 17.6813 33.7555 16.536 33.1628 15.5816C33.0322 15.3606 32.8815 15.1496 32.7107 14.9587C31.9271 14.0546 30.6312 13.7532 29.5361 14.1349C29.0037 14.2655 28.5215 14.5267 28.1096 14.9487C27.557 15.5113 27.1853 16.3049 27.1954 17.0986C27.1552 17.3296 27.1351 17.5507 27.1451 17.7918C27.1853 19.4393 28.5014 20.9061 30.169 20.9764C30.7919 21.0066 31.5856 20.8358 32.118 20.5042C32.6103 20.2029 32.9016 19.8111 33.1427 19.3188C33.1427 19.3087 33.1628 19.2987 33.1729 19.2887C33.193 19.2686 33.2231 19.2284 33.2733 19.158C33.2733 19.158 33.2733 19.158 33.2733 19.148C33.2834 19.1279 33.3035 19.1078 33.3236 19.0877C33.3637 19.0174 33.3939 18.9471 33.4341 18.8768L33.424 18.8567Z" fill="#313639"/>
<path d="M34.8004 26.0698C34.5493 25.678 34.0369 25.4269 33.5748 25.5675C32.8715 25.7886 32.6103 26.0498 32.2386 26.6827C31.8971 27.2653 31.8267 27.9786 31.5354 28.5814C31.4148 28.8326 31.2742 29.0636 31.1235 29.2746C30.5509 29.9678 29.8778 30.5906 29.1343 31.0829C26.5826 32.7606 23.9405 32.7506 21.007 32.851C20.3339 32.8711 20.0023 33.4337 20.0928 34.0465C20.8663 39.3108 28.0192 41.1894 31.8971 38.2559C35.4836 35.5535 37.4627 30.2792 34.8004 26.0598V26.0698Z" fill="#313639"/>
</g>
<defs>
<clipPath id="clip0_2068_2823">
<rect width="80.3697" height="50" fill="white"/>
</clipPath>
</defs>
</svg>
