<svg width="32" height="32" viewBox="0 0 32 32" fill="none" xmlns="http://www.w3.org/2000/svg">
<path d="M16 0C7.16 0 0 7.16 0 16C0 24.84 7.16 32 16 32C24.84 32 32 24.83 32 16C32 7.17 24.84 0 16 0ZM17.45 21.53C17.36 22.38 16.61 23 15.72 23C15.22 23 14.75 22.8 14.41 22.46L11.86 19.89C10.52 19.89 9.86 19.89 9.35 19.64C8.87 19.42 8.49 19.05 8.25 18.59C8 18.1 8 17.46 8 16.18V15.81C8 14.53 8 13.89 8.25 13.4C8.49 12.95 8.87 12.58 9.35 12.35C9.86 12.11 10.52 12.11 11.86 12.11L14.41 9.54C14.75 9.19 15.22 9 15.72 9C16.61 9 17.36 9.61 17.45 10.46C17.57 11.67 17.72 13.59 17.72 16C17.72 18.41 17.57 20.32 17.45 21.53ZM19.69 19.6C19.41 19.42 19.32 19.06 19.51 18.79C20.04 18 20.35 17.04 20.35 16C20.35 14.96 20.04 13.99 19.51 13.2C19.32 12.93 19.41 12.57 19.69 12.4C19.97 12.22 20.34 12.3 20.53 12.57C21.19 13.54 21.57 14.73 21.57 16C21.57 17.27 21.19 18.45 20.53 19.43C20.34 19.7 19.97 19.77 19.69 19.6ZM21.89 21.81C21.67 22.06 21.29 22.1 21.03 21.89C20.78 21.68 20.74 21.32 20.96 21.07C22.08 19.77 22.78 17.99 22.78 16C22.78 14.01 22.08 12.22 20.96 10.93C20.74 10.68 20.78 10.31 21.03 10.1C21.29 9.9 21.67 9.93 21.89 10.18C23.2 11.69 24 13.75 24 16C24 18.25 23.2 20.3 21.89 21.81Z" fill="#FBFAF7"/>
</svg>
