<svg width="32" height="32" viewBox="0 0 32 32" fill="none" xmlns="http://www.w3.org/2000/svg">
<path d="M16 0C7.16 0 0 7.16 0 16C0 24.84 7.16 32 16 32C24.84 32 32 24.83 32 16C32 7.17 24.84 0 16 0ZM23.75 16.72L19.18 21.84C18.83 22.23 18.22 22.27 17.83 21.91C17.43 21.56 17.4 20.95 17.75 20.56L20.89 17.04H8.96C8.43 17.04 8 16.61 8 16.08C8 15.55 8.43 15.12 8.96 15.12H20.89L17.75 11.6C17.4 11.2 17.43 10.59 17.83 10.24C18.22 9.89 18.83 9.92 19.18 10.32L23.75 15.44C24.08 15.8 24.08 16.35 23.75 16.72Z" fill="#FBFAF7"/>
</svg>
