<svg width="32" height="32" viewBox="0 0 32 32" fill="none" xmlns="http://www.w3.org/2000/svg">
<path d="M16 0C7.16 0 0 7.16 0 16C0 24.84 7.16 32 16 32C24.84 32 32 24.83 32 16C32 7.17 24.84 0 16 0ZM23.04 17.04H11.1L14.25 20.56C14.6 20.95 14.57 21.56 14.17 21.91C13.77 22.27 13.17 22.23 12.81 21.84L8.24 16.72C7.92 16.35 7.92 15.8 8.24 15.44L12.81 10.32C13.17 9.92 13.77 9.89 14.17 10.24C14.57 10.59 14.6 11.2 14.25 11.6L11.1 15.12H23.04C23.57 15.12 24 15.55 24 16.08C24 16.61 23.57 17.04 23.04 17.04Z" fill="#FBFAF7"/>
</svg>
