<svg width="82" height="50" viewBox="0 0 82 50" fill="none" xmlns="http://www.w3.org/2000/svg">
<path d="M41 49.9998C63.6437 49.9998 82 44.6466 82 38.043C82 31.4394 63.6437 26.0862 41 26.0862C18.3563 26.0862 0 31.4394 0 38.043C0 44.6466 18.3563 49.9998 41 49.9998Z" fill="#FFF29A"/>
<path d="M66.582 26.428V35.5699C66.582 38.4668 54.9407 40.8172 40.584 40.8172C26.2272 40.8172 14.5859 38.4668 14.5859 35.5699V26.428C14.5859 26.1547 14.5859 25.8678 14.5994 25.5945C15.0161 11.3966 26.4827 0 40.5705 0C54.6584 0 66.125 11.3966 66.5551 25.6081C66.5551 25.8814 66.5551 26.1547 66.5551 26.4417L66.582 26.428Z" fill="#D5C345"/>
<path d="M66.5668 25.6081C66.1367 28.4368 54.6701 30.6915 40.5823 30.6915C26.4944 30.6915 15.0278 28.4231 14.5977 25.6081C15.0144 11.3829 26.4809 0 40.5688 0C54.6567 0 66.1232 11.3829 66.5534 25.6081H66.5668Z" fill="#FFF29A"/>
</svg>
