<svg width="39" height="50" viewBox="0 0 39 50" fill="none" xmlns="http://www.w3.org/2000/svg">
<g clip-path="url(#clip0_2068_2819)">
<path d="M38.1966 21.8148C38.356 26.7405 36.7961 31.6623 34.4774 35.8479C33.7147 37.2296 32.8674 38.5386 31.9708 39.7323C28.9101 43.8284 25.2923 46.6667 22.5298 47.1765C23.3496 47.7129 25.0266 48.8791 24.7993 49.3229C24.6506 49.6182 23.6655 49.1891 22.5259 49.3554C21.4502 49.508 20.2131 50.2687 20.0478 49.8996C19.7801 49.3259 21.0545 47.9323 21.7188 47.2641C15.559 47.4461 3.09961 38.1567 0.604781 26.3823C-0.198289 22.608 -0.161876 19.1527 0.479793 16.0841C2.27489 7.49043 8.82641 1.86795 15.1506 0.374991C15.5944 0.266734 16.0452 0.180128 16.4841 0.117142C26.4398 -1.03629 37.6877 6.39507 38.1966 21.8158V21.8148Z" fill="#6FBEFB"/>
</g>
<defs>
<clipPath id="clip0_2068_2819">
<rect width="38.2069" height="50" fill="white"/>
</clipPath>
</defs>
</svg>
