<svg width="50" height="50" viewBox="0 0 50 50" fill="none" xmlns="http://www.w3.org/2000/svg">
<path d="M48.5169 33.5021C45.0336 43.1416 36.2562 49.3271 26.6476 49.9506C26.2815 49.9803 25.9055 49.9902 25.5195 49.9902C22.5212 50.0595 19.4832 49.5943 16.5047 48.5156C15.5745 48.1791 14.6839 47.803 13.823 47.3675C13.4469 47.1894 13.0907 47.0014 12.7345 46.7935C8.35072 44.349 4.93674 40.6872 2.74982 36.4117C2.5618 36.0653 2.39358 35.719 2.23525 35.3429C-0.357392 29.6126 -0.812588 22.9025 1.49308 16.5191C1.69099 15.9649 1.9087 15.4304 2.13629 14.9158C2.29462 14.5397 2.46285 14.1636 2.65086 13.8172C5.82734 7.45357 11.448 2.94061 17.9296 1.02063C18.3057 0.911761 18.6916 0.812793 19.0775 0.723721C23.3029 -0.315447 27.8153 -0.265963 32.2287 1.07011C32.6246 1.18887 33.0204 1.31753 33.4063 1.45609L33.4855 1.48578C38.1859 3.17814 42.0649 6.13729 44.8753 9.83871C45.1029 10.1257 45.3206 10.4226 45.5185 10.7393C49.6054 16.6181 51.1194 24.1693 49.1304 31.493C49.0413 31.8592 48.9325 32.2155 48.8137 32.5817C48.7148 32.8786 48.6158 33.1953 48.507 33.5021H48.5169Z" fill="#FFB750"/>
<path d="M17.416 26.0499C14.9916 32.8788 13.7447 40.1134 13.8338 47.3677C13.4578 47.1896 13.1015 47.0016 12.7453 46.7937C12.7255 43.6069 12.963 40.4301 13.4578 37.2829C14.0713 33.3043 15.0806 29.3753 16.4363 25.5848C16.5551 25.2582 16.6738 24.9316 16.8025 24.605C20.1274 15.7473 25.3918 7.62202 32.2396 1.07031C32.6354 1.18907 33.0312 1.31773 33.4171 1.45629C30.7849 3.91071 28.3902 6.59275 26.2429 9.49253C22.7002 14.2529 19.8503 19.518 17.792 25.0702C17.6634 25.3968 17.5446 25.7234 17.4259 26.0499H17.416Z" fill="#313639"/>
<path d="M27.3708 28.6525C27.2322 28.9791 27.1036 29.3156 26.9849 29.6719C26.6088 30.721 26.2823 31.8096 26.025 32.9082C24.6891 38.5098 24.9365 44.4677 26.6583 49.9604C26.2922 49.9901 25.9161 50 25.5302 50C24.788 47.5852 24.3229 45.0813 24.1646 42.5675C23.8677 38.0743 24.4813 33.5713 25.9557 29.3651C26.0844 29.0187 26.2031 28.6822 26.3317 28.3457C27.3213 25.7923 28.6374 23.3676 30.2702 21.1408C33.9612 16.0835 39.0773 12.1347 44.886 9.83862C45.1136 10.1256 45.3313 10.4225 45.5292 10.7392C42.6693 11.8378 39.9777 13.352 37.5434 15.2225C33.0113 18.7161 29.4588 23.3676 27.3708 28.6525Z" fill="#313639"/>
<path d="M12.1298 22.0317C11.9814 22.3583 11.8033 22.675 11.6449 22.9917C9.17105 27.7718 6.19248 32.2749 2.75871 36.4019C2.57069 36.0555 2.40247 35.7091 2.24414 35.333C2.91704 34.5215 3.56025 33.7 4.19357 32.8489C6.65757 29.5533 8.8346 26.0597 10.7345 22.4275C10.8929 22.1009 11.0611 21.7842 11.2095 21.4577C14.4256 15.0148 16.7115 8.11671 17.9286 1.01077C18.3047 0.901907 18.6906 0.802939 19.0765 0.713867C18.562 3.81158 17.8594 6.8697 16.9589 9.86845C15.712 14.0647 14.0891 18.1323 12.1298 22.0317Z" fill="#313639"/>
<path d="M48.8241 32.5817C45.2814 32.6807 41.7289 32.5025 38.216 32.0572C34.4062 31.5722 30.636 30.7805 26.9746 29.672C26.6283 29.5829 26.2819 29.4741 25.9455 29.3553C23.0263 28.4448 20.1665 27.3364 17.4155 26.0399C17.079 25.8815 16.7525 25.7331 16.4259 25.5648C16.3864 25.5549 16.3369 25.5252 16.2973 25.5054C14.714 24.7236 13.1604 23.9022 11.6464 22.9817C11.3297 22.8036 11.0328 22.6057 10.7261 22.4176C7.47044 20.369 4.48197 17.9245 2.13672 14.9059C2.29505 14.5298 2.46327 14.1538 2.65129 13.8074C4.46218 16.242 6.72827 18.3203 9.19227 20.082C9.85527 20.5471 10.5183 21.0123 11.211 21.4477C11.5177 21.6556 11.8245 21.8436 12.1313 22.0218C13.6255 22.9521 15.189 23.8131 16.7921 24.585C17.1186 24.7434 17.4452 24.9017 17.7816 25.0601C20.5524 26.3467 23.4221 27.4353 26.3215 28.326C26.658 28.4349 27.0043 28.5537 27.3605 28.6427C27.8355 28.7912 28.3303 28.9396 28.8152 29.0683C35.4156 30.8794 42.293 31.691 49.1308 31.4831C49.0418 31.8493 48.9329 32.2056 48.8142 32.5718L48.8241 32.5817Z" fill="#313639"/>
</svg>
